<?xml version="1.0" encoding="utf-8"?>
<!-- Generator: Adobe Illustrator 22.1.0, SVG Export Plug-In . SVG Version: 6.00 Build 0)  -->
<svg version="1.1" id="Layer_1" xmlns="http://www.w3.org/2000/svg" xmlns:xlink="http://www.w3.org/1999/xlink" x="0px" y="0px"
	 viewBox="0 0 512 512" style="enable-background:new 0 0 512 512;" xml:space="preserve">
<style type="text/css">
	.st0{fill:#565656;}
	.st1{fill:#00AEEF;}
</style>
<g id="Traffic_Control">
	<g>
		<g>
			<path class="st0" d="M200.3,365.1H91.2c-11.6,0-21-9.4-21-21V42c0-11.6,9.4-21,21-21h109.1c11.6,0,21,9.4,21,21v302.1
				C221.2,355.7,211.8,365.1,200.3,365.1z M91.2,29.4c-6.9,0-12.6,5.6-12.6,12.6v302.1c0,6.9,5.6,12.6,12.6,12.6h109.1
				c6.9,0,12.6-5.6,12.6-12.6V42c0-6.9-5.6-12.6-12.6-12.6H91.2z"/>
			<path class="st0" d="M57.6,113.3c-1.1,0-2.1-0.4-3-1.2l-36-36c-3.7-3.7-4.7-8.9-2.7-13.7c2-4.8,6.4-7.8,11.6-7.8h30.1
				c2.3,0,4.2,1.9,4.2,4.2c0,2.3-1.9,4.2-4.2,4.2H27.5c-2.6,0-3.6,2-3.9,2.6s-0.9,2.7,0.9,4.6l36,36c1.6,1.6,1.6,4.3,0,5.9
				C59.7,112.9,58.7,113.3,57.6,113.3z"/>
			<path class="st0" d="M57.6,214c-1.1,0-2.1-0.4-3-1.2l-36-36c-3.7-3.7-4.7-8.9-2.7-13.7c2-4.8,6.4-7.8,11.6-7.8h30.1
				c2.3,0,4.2,1.9,4.2,4.2c0,2.3-1.9,4.2-4.2,4.2H27.5c-2.6,0-3.6,2-3.9,2.6c-0.2,0.6-0.9,2.7,0.9,4.6l36,36c1.6,1.6,1.6,4.3,0,5.9
				C59.7,213.6,58.7,214,57.6,214z"/>
			<path class="st0" d="M57.6,314.8c-1.1,0-2.1-0.4-3-1.2l-36-36c-3.7-3.7-4.7-8.9-2.7-13.7c2-4.8,6.4-7.8,11.6-7.8h30.1
				c2.3,0,4.2,1.9,4.2,4.2c0,2.3-1.9,4.2-4.2,4.2H27.5c-2.6,0-3.6,2-3.9,2.6c-0.2,0.6-0.9,2.7,0.9,4.6l36,36c1.6,1.6,1.6,4.3,0,5.9
				C59.7,314.3,58.7,314.8,57.6,314.8z"/>
			<path class="st0" d="M233.8,113.3c-1.1,0-2.1-0.4-3-1.2c-1.6-1.6-1.6-4.3,0-5.9l36-36c1.8-1.8,1.2-4,0.9-4.6
				c-0.3-0.6-1.3-2.6-3.9-2.6h-30.1c-2.3,0-4.2-1.9-4.2-4.2c0-2.3,1.9-4.2,4.2-4.2h30.1c5.2,0,9.6,3,11.6,7.8
				c2,4.8,0.9,10.1-2.7,13.7l-36,36C236,112.9,234.9,113.3,233.8,113.3z"/>
			<path class="st0" d="M233.8,214c-1.1,0-2.1-0.4-3-1.2c-1.6-1.6-1.6-4.3,0-5.9l36-36c1.8-1.8,1.2-4,0.9-4.6
				c-0.3-0.6-1.3-2.6-3.9-2.6h-30.1c-2.3,0-4.2-1.9-4.2-4.2c0-2.3,1.9-4.2,4.2-4.2h30.1c5.2,0,9.6,3,11.6,7.8
				c2,4.8,0.9,10.1-2.7,13.7l-36,36C236,213.6,234.9,214,233.8,214z"/>
			<path class="st0" d="M233.8,314.8c-1.1,0-2.1-0.4-3-1.2c-1.6-1.6-1.6-4.3,0-5.9l36-36c1.8-1.8,1.2-4,0.9-4.6
				c-0.3-0.6-1.3-2.6-3.9-2.6h-30.1c-2.3,0-4.2-1.9-4.2-4.2c0-2.3,1.9-4.2,4.2-4.2h30.1c5.2,0,9.6,3,11.6,7.8
				c2,4.8,0.9,10.1-2.7,13.7l-36,36C236,314.3,234.9,314.8,233.8,314.8z"/>
			<path class="st0" d="M145.7,130.1c-20.8,0-37.8-16.9-37.8-37.8s16.9-37.8,37.8-37.8s37.8,16.9,37.8,37.8S166.5,130.1,145.7,130.1
				z M145.7,63c-16.2,0-29.4,13.2-29.4,29.4s13.2,29.4,29.4,29.4s29.4-13.2,29.4-29.4S161.9,63,145.7,63z"/>
			<path class="st0" d="M145.7,113.3c-2.3,0-4.2-1.9-4.2-4.2s1.9-4.2,4.2-4.2c6.9,0,12.6-5.6,12.6-12.6c0-2.3,1.9-4.2,4.2-4.2
				c2.3,0,4.2,1.9,4.2,4.2C166.7,103.9,157.3,113.3,145.7,113.3z"/>
			<path class="st0" d="M145.7,230.8c-20.8,0-37.8-16.9-37.8-37.8s16.9-37.8,37.8-37.8s37.8,16.9,37.8,37.8S166.5,230.8,145.7,230.8
				z M145.7,163.7c-16.2,0-29.4,13.2-29.4,29.4s13.2,29.4,29.4,29.4s29.4-13.2,29.4-29.4S161.9,163.7,145.7,163.7z"/>
			<path class="st0" d="M145.7,214c-2.3,0-4.2-1.9-4.2-4.2c0-2.3,1.9-4.2,4.2-4.2c6.9,0,12.6-5.6,12.6-12.6c0-2.3,1.9-4.2,4.2-4.2
				c2.3,0,4.2,1.9,4.2,4.2C166.7,204.6,157.3,214,145.7,214z"/>
			<path class="st1" d="M145.7,331.5c-20.8,0-37.8-16.9-37.8-37.8s16.9-37.8,37.8-37.8s37.8,16.9,37.8,37.8S166.5,331.5,145.7,331.5
				z M145.7,264.4c-16.2,0-29.4,13.2-29.4,29.4s13.2,29.4,29.4,29.4s29.4-13.2,29.4-29.4S161.9,264.4,145.7,264.4z"/>
			<path class="st1" d="M145.7,314.8c-2.3,0-4.2-1.9-4.2-4.2c0-2.3,1.9-4.2,4.2-4.2c6.9,0,12.6-5.6,12.6-12.6c0-2.3,1.9-4.2,4.2-4.2
				c2.3,0,4.2,1.9,4.2,4.2C166.7,305.3,157.3,314.8,145.7,314.8z"/>
			<path class="st0" d="M154.1,491h-16.8c-11.6,0-21-9.4-21-21V360.9c0-2.3,1.9-4.2,4.2-4.2h50.4c2.3,0,4.2,1.9,4.2,4.2V470
				C175.1,481.6,165.7,491,154.1,491z M124.7,365.1V470c0,6.9,5.6,12.6,12.6,12.6h16.8c6.9,0,12.6-5.6,12.6-12.6V365.1H124.7z"/>
		</g>
		<path class="st1" d="M327.7,222.4L327.7,222.4c-1.8,0-3.4-1.2-4-2.9l-3.5-10.4c-1.3-4-4.6-7.3-8.6-8.6l-10.4-3.5
			c-1.7-0.6-2.9-2.2-2.9-4s1.2-3.4,2.9-4l10.4-3.5c4-1.3,7.3-4.6,8.6-8.6l3.5-10.4c1.1-3.4,6.8-3.4,8,0l3.5,10.4
			c1.3,4,4.6,7.3,8.6,8.6l10.4,3.5c1.7,0.6,2.9,2.2,2.9,4s-1.2,3.4-2.9,4l-10.4,3.5c-4,1.4-7.3,4.6-8.6,8.6l-3.5,10.4
			C331.1,221.3,329.5,222.4,327.7,222.4z M315.6,193.1c5.5,2.2,9.8,6.6,12.1,12.1c2.2-5.5,6.6-9.8,12.1-12.1
			c-5.5-2.2-9.8-6.6-12.1-12.1C325.5,186.4,321.1,190.8,315.6,193.1z"/>
		<g>
			<g>
				<path class="st0" d="M383.8,419.7h-8.4c-2.3,0-4.2-1.9-4.2-4.2c0-2.3,1.9-4.2,4.2-4.2h8.4c2.3,0,4.2,1.9,4.2,4.2
					C388,417.8,386.1,419.7,383.8,419.7z"/>
				<path class="st0" d="M358.6,419.7H196.1c-2.3,0-4.2-1.9-4.2-4.2c0-2.3,1.9-4.2,4.2-4.2h162.5c2.3,0,4.2,1.9,4.2,4.2
					C362.8,417.8,360.9,419.7,358.6,419.7z"/>
			</g>
			<g>
				<path class="st0" d="M204.5,436.4h-8.4c-2.3,0-4.2-1.9-4.2-4.2c0-2.3,1.9-4.2,4.2-4.2h8.4c2.3,0,4.2,1.9,4.2,4.2
					C208.7,434.6,206.8,436.4,204.5,436.4z"/>
				<path class="st0" d="M383.8,436.4H221.2c-2.3,0-4.2-1.9-4.2-4.2c0-2.3,1.9-4.2,4.2-4.2h162.5c2.3,0,4.2,1.9,4.2,4.2
					C388,434.6,386.1,436.4,383.8,436.4z"/>
			</g>
		</g>
		<path class="st1" d="M74.4,440.6c-9.3,0-16.8-7.5-16.8-16.8c0-9.3,7.5-16.8,16.8-16.8s16.8,7.5,16.8,16.8
			C91.2,433.1,83.6,440.6,74.4,440.6z M74.4,415.5c-4.6,0-8.4,3.8-8.4,8.4c0,4.6,3.8,8.4,8.4,8.4c4.6,0,8.4-3.8,8.4-8.4
			C82.8,419.2,79,415.5,74.4,415.5z"/>
		<g>
			<path class="st0" d="M434.2,440.6c-2.3,0-4.2-1.9-4.2-4.2v-29.4h-8.4v29.4c0,2.3-1.9,4.2-4.2,4.2c-2.3,0-4.2-1.9-4.2-4.2v-33.6
				c0-2.3,1.9-4.2,4.2-4.2h16.8c2.3,0,4.2,1.9,4.2,4.2v33.6C438.3,438.8,436.5,440.6,434.2,440.6z"/>
			<path class="st0" d="M425.8,407.8c-16.2,0-29.4-13.2-29.4-29.4s13.2-29.4,29.4-29.4c16.2,0,29.4,13.2,29.4,29.4
				S442,407.8,425.8,407.8z M425.8,357.4c-11.6,0-21,9.4-21,21c0,11.6,9.4,21,21,21c11.6,0,21-9.4,21-21
				C446.7,366.8,437.3,357.4,425.8,357.4z"/>
			<path class="st0" d="M476.2,491H375.4c-11.6,0-21-9.4-21-21c0-11.6,9.4-21,21-21h100.8c11.6,0,21,9.4,21,21
				C497.1,481.6,487.7,491,476.2,491z M375.4,457.4c-6.9,0-12.6,5.6-12.6,12.6s5.6,12.6,12.6,12.6h100.8c6.9,0,12.6-5.6,12.6-12.6
				s-5.6-12.6-12.6-12.6H375.4z"/>
			<g>
				<path class="st1" d="M360.5,317.3c-1.1,0-2.1-0.4-3-1.2c-1.6-1.6-1.6-4.3,0-5.9c18.2-18.2,42.5-28.3,68.2-28.3
					c25.8,0,50,10,68.2,28.3c1.6,1.6,1.6,4.3,0,5.9c-1.6,1.6-4.3,1.6-5.9,0c-16.6-16.6-38.8-25.8-62.3-25.8
					c-23.5,0-45.7,9.2-62.3,25.8C362.6,316.9,361.6,317.3,360.5,317.3z"/>
				<path class="st1" d="M467.3,341.1c-1.1,0-2.1-0.4-3-1.2c-10.3-10.3-24-16-38.6-16c-14.6,0-28.3,5.7-38.6,16
					c-1.6,1.6-4.3,1.6-5.9,0c-1.6-1.6-1.6-4.3,0-5.9c11.9-11.9,27.7-18.4,44.5-18.4c16.8,0,32.6,6.5,44.5,18.4
					c1.6,1.6,1.6,4.3,0,5.9C469.5,340.6,468.4,341.1,467.3,341.1z"/>
			</g>
		</g>
	</g>
</g>
</svg>
