<?xml version="1.0" encoding="utf-8"?>
<!-- Generator: Adobe Illustrator 22.1.0, SVG Export Plug-In . SVG Version: 6.00 Build 0)  -->
<svg version="1.1" id="Layer_1" xmlns="http://www.w3.org/2000/svg" xmlns:xlink="http://www.w3.org/1999/xlink" x="0px" y="0px"
	 viewBox="0 0 512 512" style="enable-background:new 0 0 512 512;" xml:space="preserve">
<style type="text/css">
	.st0{fill:#565656;}
	.st1{fill:#00AEEF;}
</style>
<g id="Communication">
	<g>
		<path class="st0" d="M464.7,483.8H47.3c-9.9,0-18-8.1-18-18c0-9.9,8.1-18,18-18h417.4c9.9,0,18,8.1,18,18
			C482.7,475.7,474.6,483.8,464.7,483.8z M47.3,455c-6,0-10.8,4.8-10.8,10.8c0,6,4.8,10.8,10.8,10.8h417.4c6,0,10.8-4.8,10.8-10.8
			c0-6-4.8-10.8-10.8-10.8H47.3z"/>
		<g>
			<path class="st0" d="M313,152.9c-1.1,0-2.2-0.5-2.9-1.4c-1.2-1.6-0.9-3.8,0.7-5l40.7-30.5c1.6-1.2,3.8-0.9,5,0.7
				c1.2,1.6,0.9,3.8-0.7,5l-40.7,30.5C314.5,152.7,313.8,152.9,313,152.9z"/>
			<path class="st0" d="M338.5,178.4c-0.8,0-1.5-0.2-2.2-0.7c-1.6-1.2-1.9-3.5-0.7-5l30.5-40.7c1.2-1.6,3.5-1.9,5-0.7
				c1.6,1.2,1.9,3.5,0.7,5l-30.5,40.7C340.6,177.9,339.5,178.4,338.5,178.4z"/>
			<path class="st1" d="M376.6,136.3c-6.4,0-12.9-2.5-17.8-7.4c-9.8-9.8-9.8-25.8,0-35.6l0,0c9.8-9.8,25.8-9.8,35.6,0
				c9.8,9.8,9.8,25.8,0,35.6C389.5,133.9,383.1,136.3,376.6,136.3z M363.9,98.4c-7,7-7,18.4,0,25.4c7,7,18.4,7,25.4,0
				c7-7,7-18.4,0-25.4C382.3,91.4,370.9,91.4,363.9,98.4L363.9,98.4z"/>
			<path class="st0" d="M325.7,316.8c-23.2,0-45.5-5-66.1-14.8c-1.8-0.9-2.6-3-1.7-4.8c0.9-1.8,3-2.5,4.8-1.7
				c19.7,9.3,40.9,14.1,63,14.1c32.2,0,62.8-10.1,88.4-29.3c1.6-1.2,3.8-0.9,5,0.7c1.2,1.6,0.9,3.8-0.7,5
				C391.6,306.1,359.5,316.8,325.7,316.8z"/>
			<g>
				<path class="st1" d="M455.9,114.6c-2,0-3.6-1.6-3.6-3.6c0-41.7-33.9-75.6-75.6-75.6c-2,0-3.6-1.6-3.6-3.6s1.6-3.6,3.6-3.6
					c45.6,0,82.8,37.1,82.8,82.8C459.5,113,457.9,114.6,455.9,114.6z"/>
				<path class="st1" d="M427.1,114.6c-2,0-3.6-1.6-3.6-3.6c0-25.8-21-46.8-46.8-46.8c-2,0-3.6-1.6-3.6-3.6s1.6-3.6,3.6-3.6
					c29.8,0,54,24.2,54,54C430.7,113,429.1,114.6,427.1,114.6z"/>
			</g>
		</g>
		<path class="st0" d="M104.5,361.4c-0.9,0-1.8-0.4-2.5-1.1c-1.4-1.4-1.4-3.7,0-5.1l47.7-47.7c1.4-1.4,3.7-1.4,5.1,0
			c1.4,1.4,1.4,3.7,0,5.1l-47.7,47.7C106.4,361.1,105.4,361.4,104.5,361.4z"/>
		<path class="st0" d="M155.4,361.4c-0.9,0-1.8-0.4-2.5-1.1c-1.4-1.4-1.4-3.7,0-5.1l22.2-22.2c1.4-1.4,3.7-1.4,5.1,0
			c1.4,1.4,1.4,3.7,0,5.1l-22.2,22.2C157.2,361.1,156.3,361.4,155.4,361.4z"/>
		<path class="st0" d="M203.6,330.9c-12,0-24-4.6-33.1-13.7c-18.2-18.2-18.2-47.9,0-66.2c8.8-8.8,20.6-13.7,33.1-13.7
			c12.5,0,24.2,4.9,33.1,13.7l0,0l0,0c8.8,8.8,13.7,20.6,13.7,33.1c0,12.5-4.9,24.2-13.7,33.1C227.6,326.4,215.6,330.9,203.6,330.9z
			 M203.6,244.6c-10.6,0-20.5,4.1-28,11.6c-15.4,15.4-15.4,40.5,0,56c15.4,15.4,40.6,15.4,56,0c7.5-7.5,11.6-17.4,11.6-28
			c0-10.6-4.1-20.5-11.6-28l0,0C224.1,248.7,214.2,244.6,203.6,244.6z"/>
		<path class="st0" d="M203.6,330.9c-12,0-24-4.6-33.1-13.7c-18.2-18.2-18.2-47.9,0-66.2c8.8-8.8,20.6-13.7,33.1-13.7
			c12.5,0,24.2,4.9,33.1,13.7l0,0l0,0c8.8,8.8,13.7,20.6,13.7,33.1c0,12.5-4.9,24.2-13.7,33.1C227.6,326.4,215.6,330.9,203.6,330.9z
			 M203.6,244.6c-10.6,0-20.5,4.1-28,11.6c-15.4,15.4-15.4,40.5,0,56c15.4,15.4,40.6,15.4,56,0c7.5-7.5,11.6-17.4,11.6-28
			c0-10.6-4.1-20.5-11.6-28l0,0C224.1,248.7,214.2,244.6,203.6,244.6z"/>
		<path class="st0" d="M325.6,338c-31,0-62.1-8-89.8-24.5c-1.7-1-2.3-3.2-1.3-4.9c1-1.7,3.2-2.3,4.9-1.3
			c63.7,37.9,146.2,29.4,200.6-20.7c0.7-0.6,1.1-1.5,1.1-2.5c0-1-0.4-2-1.1-2.7L206.3,47.7c-0.7-0.7-1.6-1.1-2.7-1.1
			c-1,0-1.8,0.4-2.4,1.1c-50,54.4-58.6,136.9-20.7,200.6c1,1.7,0.5,3.9-1.3,4.9c-1.7,1-3.9,0.5-4.9-1.3
			c-39.5-66.4-30.6-152.4,21.6-209.2c2-2.1,4.7-3.3,7.6-3.4c3.1-0.2,5.8,1.1,7.9,3.2l233.8,233.8c2.1,2.1,3.2,5,3.2,7.9
			c-0.1,2.9-1.3,5.6-3.4,7.6C411.9,322.3,368.9,338,325.6,338z"/>
		<path class="st1" d="M203.6,309.4c-6.7,0-13.1-2.6-17.8-7.4c-4.8-4.8-7.4-11.1-7.4-17.8c0-6.7,2.6-13.1,7.4-17.8
			c9.5-9.5,26.1-9.5,35.6,0c4.8,4.8,7.4,11.1,7.4,17.8c0,6.7-2.6,13.1-7.4,17.8C216.6,306.7,210.3,309.4,203.6,309.4z M203.6,266.2
			c-4.8,0-9.3,1.9-12.7,5.3c-3.4,3.4-5.3,7.9-5.3,12.7c0,4.8,1.9,9.3,5.3,12.7c6.8,6.8,18.6,6.8,25.4,0c3.4-3.4,5.3-7.9,5.3-12.7
			c0-4.8-1.9-9.3-5.3-12.7S208.4,266.2,203.6,266.2z"/>
		<path class="st0" d="M185.6,440.6c-2,0-3.6-1.6-3.6-3.6v-35c0-14.4-11.7-26.2-26.2-26.2h-70c-14.4,0-26.2,11.7-26.2,26.2v35
			c0,2-1.6,3.6-3.6,3.6s-3.6-1.6-3.6-3.6v-35c0-18.4,15-33.4,33.4-33.4h70c18.4,0,33.4,15,33.4,33.4v35
			C189.2,439,187.6,440.6,185.6,440.6z"/>
		<path class="st0" d="M164,440.6c-2,0-3.6-1.6-3.6-3.6v-35c0-2.5-2.1-4.6-4.6-4.6c-2,0-3.6-1.6-3.6-3.6c0-2,1.6-3.6,3.6-3.6
			c6.5,0,11.8,5.3,11.8,11.8v35C167.6,439,166,440.6,164,440.6z"/>
		<g>
			<g>
				<path class="st1" d="M292,411.8h-7.2c-2,0-3.6-1.6-3.6-3.6s1.6-3.6,3.6-3.6h7.2c2,0,3.6,1.6,3.6,3.6S294,411.8,292,411.8z"/>
				<path class="st1" d="M364,411.8h-57.6c-2,0-3.6-1.6-3.6-3.6s1.6-3.6,3.6-3.6H364c2,0,3.6,1.6,3.6,3.6S365.9,411.8,364,411.8z"/>
			</g>
			<g>
				<path class="st1" d="M414.3,397.4h-7.2c-2,0-3.6-1.6-3.6-3.6c0-2,1.6-3.6,3.6-3.6h7.2c2,0,3.6,1.6,3.6,3.6
					C417.9,395.8,416.3,397.4,414.3,397.4z"/>
				<path class="st1" d="M392.7,397.4h-57.6c-2,0-3.6-1.6-3.6-3.6c0-2,1.6-3.6,3.6-3.6h57.6c2,0,3.6,1.6,3.6,3.6
					C396.3,395.8,394.7,397.4,392.7,397.4z"/>
			</g>
		</g>
	</g>
</g>
</svg>
