<?xml version="1.0" encoding="utf-8"?>
<!-- Generator: Adobe Illustrator 22.1.0, SVG Export Plug-In . SVG Version: 6.00 Build 0)  -->
<svg version="1.1" id="Layer_1" xmlns="http://www.w3.org/2000/svg" xmlns:xlink="http://www.w3.org/1999/xlink" x="0px" y="0px"
	 viewBox="0 0 512 512" style="enable-background:new 0 0 512 512;" xml:space="preserve">
<style type="text/css">
	.st0{fill:#565656;}
</style>
<g>
	<g>
		<path class="st0" d="M408.4,490.4c-45.2,0-82-36.8-82-82s36.8-82,82-82s82,36.8,82,82S453.6,490.4,408.4,490.4z M408.4,334.1
			c-40.9,0-74.2,33.3-74.2,74.2s33.3,74.2,74.2,74.2s74.2-33.3,74.2-74.2S449.3,334.1,408.4,334.1z"/>
	</g>
	<g>
		<g>
			<path class="st0" d="M244.3,467c-122.8,0-222.7-99.9-222.7-222.7c0-2.2,1.7-3.9,3.9-3.9s3.9,1.7,3.9,3.9
				c0,118.5,96.4,214.9,214.9,214.9c2.2,0,3.9,1.7,3.9,3.9S246.4,467,244.3,467z"/>
			<path class="st0" d="M25.5,232.6c-2.2,0-3.9-1.7-3.9-3.9v-7.8c0-2.2,1.7-3.9,3.9-3.9s3.9,1.7,3.9,3.9v7.8
				C29.4,230.8,27.7,232.6,25.5,232.6z"/>
		</g>
		<g>
			<path class="st0" d="M463.1,248.2c-2.2,0-3.9-1.7-3.9-3.9c0-118.5-96.4-214.9-214.9-214.9c-2.2,0-3.9-1.7-3.9-3.9
				s1.7-3.9,3.9-3.9c122.8,0,222.7,99.9,222.7,222.7C467,246.4,465.2,248.2,463.1,248.2z"/>
			<path class="st0" d="M463.1,271.6c-2.2,0-3.9-1.7-3.9-3.9v-7.8c0-2.2,1.7-3.9,3.9-3.9s3.9,1.7,3.9,3.9v7.8
				C467,269.9,465.2,271.6,463.1,271.6z"/>
		</g>
	</g>
	<g>
		<path class="st0" d="M244.3,295.1c-28,0-50.8-22.8-50.8-50.8s22.8-50.8,50.8-50.8s50.8,22.8,50.8,50.8S272.3,295.1,244.3,295.1z
			 M244.3,201.3c-23.7,0-43,19.3-43,43s19.3,43,43,43s43-19.3,43-43S268,201.3,244.3,201.3z"/>
		<path class="st0" d="M353.7,248.2c-2.2,0-3.9-1.7-3.9-3.9c0-58.2-47.3-105.5-105.5-105.5c-2.2,0-3.9-1.7-3.9-3.9
			c0-2.2,1.7-3.9,3.9-3.9c62.5,0,113.3,50.8,113.3,113.3C357.6,246.4,355.8,248.2,353.7,248.2z"/>
		<path class="st0" d="M255.9,412.3h-23.2c-11,0-20.6-7.8-22.9-18.5l-3-14.1c-11-3.1-21.7-7.5-31.7-13.1l-12.1,7.8
			c-9.2,6-21.5,4.6-29.3-3.1l-16.4-16.4c-7.8-7.7-9.1-20.1-3.1-29.3l7.8-12.1c-5.7-10-10.1-20.6-13.1-31.7l-14.1-3
			c-10.7-2.3-18.5-12-18.5-22.9v-23.2c0-11,7.8-20.6,18.5-22.9l14.1-3c3.1-11,7.5-21.7,13.1-31.7l-7.8-12.1
			c-5.9-9.2-4.6-21.5,3.1-29.3l16.4-16.4c7.8-7.8,20.1-9.1,29.3-3.1l12.1,7.8c10-5.7,20.6-10.1,31.7-13.1l3-14.1
			c2.3-10.7,11.9-18.5,22.9-18.5h23.2c11,0,20.6,7.8,22.9,18.5l3,14.1c11,3.1,21.7,7.5,31.7,13.1l12.1-7.8
			c9.2-5.9,21.5-4.6,29.3,3.1l16.4,16.4c7.7,7.8,9.1,20.1,3.1,29.3l-7.8,12.1c5.7,10,10.1,20.6,13.1,31.7l14.1,3
			c10.7,2.3,18.5,11.9,18.5,22.9v23.2c0,11-7.8,20.6-18.5,22.9l-14.1,3c-3.3,11.8-8.1,23.2-14.4,33.8c-1.1,1.9-3.5,2.5-5.3,1.4
			c-1.9-1.1-2.5-3.5-1.4-5.3c6.3-10.7,11.1-22.2,14.2-34.2c0.4-1.7,2-2.9,3.8-2.9l15.6-3.4c7.1-1.5,12.3-8,12.3-15.3v-23.2
			c0-7.3-5.2-13.7-12.3-15.3l-16.2-3.5c-1.5-0.3-2.8-1.4-3.2-2.9c-3.1-12-7.8-23.4-14.2-34.2c-0.9-1.5-0.7-3.5,0.6-4.7l8.6-13.4
			c4-6.1,3.1-14.4-2.1-19.5l-16.4-16.4c-5.2-5.2-13.4-6-19.5-2.1l-13.9,9c-1.3,0.9-3,1-4.3,0.3c-10.7-6.3-22.2-11.1-34.2-14.2
			c-1.7-0.4-2.9-2-2.9-3.8l-3.4-15.6c-1.5-7.1-8-12.3-15.3-12.3h-23.2c-7.3,0-13.7,5.2-15.3,12.3l-3.5,16.2
			c-0.3,1.5-1.4,2.8-2.9,3.2c-12,3.1-23.5,7.8-34.2,14.2c-1.6,0.9-3.5,0.6-4.8-0.7l-13.4-8.6c-6.2-4-14.4-3.1-19.5,2.1l-16.4,16.4
			c-5.2,5.2-6,13.4-2.1,19.5l9,13.9c0.9,1.3,1,3,0.3,4.3c-6.3,10.7-11.1,22.2-14.2,34.2c-0.4,1.7-2,2.9-3.8,2.9l-15.6,3.4
			c-7.1,1.5-12.3,8-12.3,15.3v23.2c0,7.3,5.2,13.7,12.3,15.3l16.1,3.5c1.5,0.3,2.8,1.4,3.2,2.9c3.1,12,7.8,23.4,14.2,34.2
			c0.9,1.5,0.7,3.5-0.6,4.7l-8.6,13.4c-4,6.1-3.1,14.4,2.1,19.5l16.4,16.4c5.2,5.2,13.4,6,19.5,2.1l13.9-9c1.3-0.9,3-1,4.3-0.3
			c10.7,6.3,22.2,11.1,34.2,14.2c1.7,0.4,2.9,2,2.9,3.8l3.4,15.6c1.5,7.1,8,12.3,15.3,12.3h23.2c7.3,0,13.7-5.2,15.3-12.3l3.5-16.2
			c0.3-1.5,1.4-2.8,2.9-3.2c12-3.1,23.4-7.8,34.2-14.2c1.9-1.1,4.3-0.5,5.3,1.4c1.1,1.9,0.5,4.3-1.4,5.3
			c-10.6,6.3-22,11.1-33.8,14.4l-3,14.1C276.5,404.5,266.8,412.3,255.9,412.3z M244.3,326.3c-45.2,0-82-36.8-82-82s36.8-82,82-82
			s82,36.8,82,82S289.5,326.3,244.3,326.3z M244.3,170.1c-40.9,0-74.2,33.3-74.2,74.2s33.3,74.2,74.2,74.2s74.2-33.3,74.2-74.2
			S285.2,170.1,244.3,170.1z"/>
	</g>
	<g>
		<path class="st0" d="M426.5,428.8c0-4-1.3-7.3-3.9-9.9c-2.6-2.6-7.2-5-13.8-7.3c-8.2-2.6-14-5.6-17.3-9.2c-3.3-3.5-5-8.1-5-13.7
			c0-5.9,1.8-10.7,5.4-14.4c3.6-3.7,8.6-5.8,14.8-6.3v-11h5.6v11c6.4,0.6,11.3,3,14.8,7.2c3.5,4.2,5.3,9.9,5.3,17.1h-6.5
			c0-5.7-1.5-10.2-4.4-13.6c-3-3.4-7-5-12.1-5c-5.2,0-9.2,1.4-12.1,4.1c-2.9,2.7-4.3,6.3-4.3,10.8c0,4.4,1.3,7.8,4,10.2
			c2.6,2.5,7.2,4.8,13.5,6.9c6.4,2.2,11,4.2,13.9,6.2c2.9,2,5,4.3,6.5,7c1.4,2.7,2.2,5.9,2.2,9.7c0,6-1.9,10.8-5.6,14.4
			c-3.7,3.6-8.8,5.7-15.3,6.2v10.3h-5.5v-10.3c-7.3-0.5-12.9-2.8-16.9-6.9c-4-4.1-6-9.8-6-16.9h6.5c0,5.7,1.7,10.1,5,13.3
			c3.3,3.2,7.9,4.8,13.8,4.8c5.2,0,9.4-1.4,12.6-4.1C424.9,436.8,426.5,433.2,426.5,428.8z"/>
	</g>
</g>
</svg>
