<?xml version="1.0" encoding="utf-8"?>
<!-- Generator: Adobe Illustrator 22.1.0, SVG Export Plug-In . SVG Version: 6.00 Build 0)  -->
<svg version="1.1" id="Layer_1" xmlns="http://www.w3.org/2000/svg" xmlns:xlink="http://www.w3.org/1999/xlink" x="0px" y="0px"
	 viewBox="0 0 512 512" style="enable-background:new 0 0 512 512;" xml:space="preserve">
<style type="text/css">
	.st0{fill:#565656;}
</style>
<g>
	<g>
		<path class="st0" d="M207.8,380.7H72.6c-22.2,0-40.3-18.1-40.3-40.3V61.6c0-22.2,18.1-40.3,40.3-40.3h190.7
			c22.2,0,40.3,18.1,40.3,40.3v157.7c0,2-1.6,3.7-3.7,3.7c-2,0-3.7-1.6-3.7-3.7V61.6c0-18.2-14.8-33-33-33H72.6
			c-18.2,0-33,14.8-33,33v278.8c0,18.2,14.8,33,33,33h135.2c2,0,3.7,1.6,3.7,3.7C211.5,379.1,209.8,380.7,207.8,380.7z"/>
		<path class="st0" d="M146,190H72.6c-6.1,0-11-4.9-11-11v-73.4c0-6.1,4.9-11,11-11H146c6.1,0,11,4.9,11,11V179
			C157,185,152,190,146,190z M72.6,101.9c-2,0-3.7,1.6-3.7,3.7V179c0,2,1.6,3.7,3.7,3.7H146c2,0,3.7-1.6,3.7-3.7v-73.4
			c0-2-1.6-3.7-3.7-3.7H72.6z"/>
		<path class="st0" d="M263.3,190H256c-2,0-3.7-1.6-3.7-3.7s1.6-3.7,3.7-3.7h7.3c2,0,3.7-1.6,3.7-3.7v-73.4c0-2-1.6-3.7-3.7-3.7H190
			c-2,0-3.7,1.6-3.7,3.7V179c0,2,1.6,3.7,3.7,3.7h29.3c2,0,3.7,1.6,3.7,3.7s-1.6,3.7-3.7,3.7H190c-6.1,0-11-4.9-11-11v-73.4
			c0-6.1,4.9-11,11-11h73.4c6.1,0,11,4.9,11,11V179C274.3,185,269.4,190,263.3,190z"/>
		<path class="st0" d="M146,307.4H72.6c-6.1,0-11-4.9-11-11V223c0-6.1,4.9-11,11-11H146c6.1,0,11,4.9,11,11v73.4
			C157,302.4,152,307.4,146,307.4z M72.6,219.3c-2,0-3.7,1.6-3.7,3.7v73.4c0,2,1.6,3.7,3.7,3.7H146c2,0,3.7-1.6,3.7-3.7V223
			c0-2-1.6-3.7-3.7-3.7H72.6z"/>
		<path class="st0" d="M190,50.6h-44c-2,0-3.7-1.6-3.7-3.7c0-2,1.6-3.7,3.7-3.7h44c2,0,3.7,1.6,3.7,3.7
			C193.6,48.9,192,50.6,190,50.6z"/>
		<path class="st0" d="M182.6,366h-29.3c-6.1,0-11-4.9-11-11s4.9-11,11-11h29.3c6.1,0,11,4.9,11,11S188.7,366,182.6,366z
			 M153.3,351.4c-2,0-3.7,1.6-3.7,3.7s1.6,3.7,3.7,3.7h29.3c2,0,3.7-1.6,3.7-3.7s-1.6-3.7-3.7-3.7H153.3z"/>
		<path class="st0" d="M300,72.6H35.9c-2,0-3.7-1.6-3.7-3.7s1.6-3.7,3.7-3.7H300c2,0,3.7,1.6,3.7,3.7S302,72.6,300,72.6z"/>
		<path class="st0" d="M180.9,336.7h-145c-2,0-3.7-1.6-3.7-3.7s1.6-3.7,3.7-3.7h145c2,0,3.7,1.6,3.7,3.7S183,336.7,180.9,336.7z"/>
	</g>
	<g>
		<path class="st0" d="M201,424.7H76.3c-2,0-3.7-1.6-3.7-3.7c0-2,1.6-3.7,3.7-3.7H201c2,0,3.7,1.6,3.7,3.7
			C204.6,423.1,203,424.7,201,424.7z"/>
		<path class="st0" d="M43.2,439.4h-7.3c-2,0-3.7-1.6-3.7-3.7c0-2,1.6-3.7,3.7-3.7h7.3c2,0,3.7,1.6,3.7,3.7
			C46.9,437.8,45.3,439.4,43.2,439.4z"/>
		<path class="st0" d="M171.6,439.4H57.9c-2,0-3.7-1.6-3.7-3.7c0-2,1.6-3.7,3.7-3.7h113.7c2,0,3.7,1.6,3.7,3.7
			C175.3,437.8,173.7,439.4,171.6,439.4z"/>
	</g>
	<g>
		<g>
			<path class="st0" d="M340,490.8h-95.4c-12.1,0-22-9.9-22-22v-29.3c0-12.1,9.9-22,22-22H340c12.1,0,22,9.9,22,22v29.3
				C362,480.9,352.1,490.8,340,490.8z M244.6,424.7c-8.1,0-14.7,6.6-14.7,14.7v29.3c0,8.1,6.6,14.7,14.7,14.7H340
				c8.1,0,14.7-6.6,14.7-14.7v-29.3c0-8.1-6.6-14.7-14.7-14.7H244.6z"/>
			<path class="st0" d="M344,424.7H241.3c-1.5,0-2.8-0.9-3.4-2.2l-18.3-42.8c-2.3-5.5-5.2-10.8-8.4-15.9l-49.2-76
				c-5.6-8.6-4.4-20.1,2.9-27.4c8.5-8.5,22.4-8.5,31,0l19.7,19.7V175.3c0-12.1,9.9-22,22-22c12.1,0,22,9.9,22,22v60.6
				c3.9-3.5,9-5.6,14.7-5.6c7.6,0,14.4,3.9,18.3,9.9c3.9-5.9,10.7-9.9,18.3-9.9s14.4,3.9,18.3,9.9c1-1.5,2.2-2.9,3.6-4.2
				c4.6-4.2,10.8-6.2,17-5.6l0,0c11.1,1.1,19.8,11.2,19.8,22.9v93.7c0,15.5-3.1,30.6-9.2,44.8l-13.1,30.6
				C346.8,423.9,345.5,424.7,344,424.7z M243.7,417.4h97.9l12.2-28.4c5.7-13.3,8.6-27.4,8.6-41.9v-93.7c0-8-5.8-14.9-13.1-15.7
				c-4.2-0.4-8.3,0.9-11.4,3.7c-3.1,2.8-4.8,6.7-4.8,10.9c0,2-1.6,3.7-3.7,3.7c-2,0-3.7-1.6-3.7-3.7c0-8.1-6.6-14.7-14.7-14.7
				c-8.1,0-14.7,6.6-14.7,14.7c0,2-1.6,3.7-3.7,3.7c-2,0-3.7-1.6-3.7-3.7c0-8.1-6.6-14.7-14.7-14.7s-14.7,6.6-14.7,14.7
				c0,2-1.6,3.7-3.7,3.7c-2,0-3.7-1.6-3.7-3.7v-77c0-8.1-6.6-14.7-14.7-14.7s-14.7,6.6-14.7,14.7V289c0,1.5-0.9,2.8-2.3,3.4
				c-1.4,0.6-2.9,0.3-4-0.8l-26-26c-5.7-5.7-15-5.7-20.6,0c-4.8,4.8-5.6,12.5-1.9,18.2l49.2,76c3.5,5.4,6.5,11.1,9,17L243.7,417.4z"
				/>
			<path class="st0" d="M292.7,278c-2,0-3.7-1.6-3.7-3.7v-22c0-2,1.6-3.7,3.7-3.7c2,0,3.7,1.6,3.7,3.7v22
				C296.3,276.4,294.7,278,292.7,278z"/>
			<path class="st0" d="M329.4,278c-2,0-3.7-1.6-3.7-3.7v-22c0-2,1.6-3.7,3.7-3.7c2,0,3.7,1.6,3.7,3.7v22
				C333,276.4,331.4,278,329.4,278z"/>
			<path class="st0" d="M256,278c-2,0-3.7-1.6-3.7-3.7v-22c0-2,1.6-3.7,3.7-3.7c2,0,3.7,1.6,3.7,3.7v22C259.7,276.4,258,278,256,278
				z"/>
		</g>
		<path class="st0" d="M329.5,402.7c-0.5,0-1-0.1-1.4-0.3c-1.9-0.8-2.7-3-1.9-4.8l7.4-17.3c4.5-10.6,6.8-21.7,6.8-33.2
			c0-2,1.6-3.7,3.7-3.7c2,0,3.7,1.6,3.7,3.7c0,12.5-2.5,24.6-7.4,36.1l-7.4,17.3C332.3,401.9,330.9,402.7,329.5,402.7z"/>
	</g>
	<g>
		<g>
			<path class="st0" d="M415.9,171.6h-36.7c-2,0-3.7-1.6-3.7-3.7v-2.2c0-6.5-2.7-13-7.7-18.4c-8.8-9.5-12.4-22.4-9.8-35.3
				c3.1-15.5,15.5-28,30.8-31.3c12.2-2.6,24.6,0.4,34.1,8.1c9.5,7.7,14.9,19.1,14.9,31.3c0,10-3.7,19.6-10.5,27
				c-3.6,3.9-7.8,10.3-7.8,18.5v2.2C419.5,170,417.9,171.6,415.9,171.6z M382.8,164.3h29.4c0.4-7.9,3.7-15.4,9.7-22
				c5.6-6.1,8.6-13.9,8.6-22.1c0-10-4.5-19.3-12.2-25.6c-7.8-6.3-18-8.7-28-6.6c-12.5,2.6-22.6,12.9-25.2,25.5
				c-2.1,10.6,0.8,21.1,8,28.9C379.1,148.8,382.5,156.5,382.8,164.3z"/>
			<path class="st0" d="M397.5,208.3c-12.1,0-22-9.9-22-22V168c0-2,1.6-3.7,3.7-3.7h36.7c2,0,3.7,1.6,3.7,3.7v18.3
				C419.5,198.4,409.7,208.3,397.5,208.3z M382.9,171.6v14.7c0,8.1,6.6,14.7,14.7,14.7c8.1,0,14.7-6.6,14.7-14.7v-14.7H382.9z"/>
			<path class="st0" d="M415.9,190h-36.7c-2,0-3.7-1.6-3.7-3.7s1.6-3.7,3.7-3.7h36.7c2,0,3.7,1.6,3.7,3.7S417.9,190,415.9,190z"/>
		</g>
		<path class="st0" d="M397.5,65.3c-2,0-3.7-1.6-3.7-3.7V46.9c0-2,1.6-3.7,3.7-3.7c2,0,3.7,1.6,3.7,3.7v14.7
			C401.2,63.6,399.6,65.3,397.5,65.3z"/>
		<path class="st0" d="M360.9,77.8c-0.9,0-1.9-0.4-2.6-1.1l-10.4-10.4c-1.4-1.4-1.4-3.8,0-5.2s3.8-1.4,5.2,0l10.4,10.4
			c1.4,1.4,1.4,3.8,0,5.2C362.7,77.4,361.8,77.8,360.9,77.8z"/>
		<path class="st0" d="M434.2,77.8c-0.9,0-1.9-0.4-2.6-1.1c-1.4-1.4-1.4-3.8,0-5.2L442,61.1c1.4-1.4,3.8-1.4,5.2,0s1.4,3.8,0,5.2
			l-10.4,10.4C436.1,77.4,435.2,77.8,434.2,77.8z"/>
	</g>
	<g>
		<g>
			<path class="st0" d="M476.1,237.7h-29.3c-2,0-3.7-1.6-3.7-3.7s1.6-3.7,3.7-3.7h29.3c2,0,3.7,1.6,3.7,3.7S478.1,237.7,476.1,237.7
				z"/>
			<path class="st0" d="M461.4,252.3c-2,0-3.7-1.6-3.7-3.7v-29.3c0-2,1.6-3.7,3.7-3.7c2,0,3.7,1.6,3.7,3.7v29.3
				C465.1,250.7,463.4,252.3,461.4,252.3z"/>
		</g>
		<g>
			<path class="st0" d="M424.7,285.3h-29.3c-2,0-3.7-1.6-3.7-3.7c0-2,1.6-3.7,3.7-3.7h29.3c2,0,3.7,1.6,3.7,3.7
				C428.4,283.7,426.8,285.3,424.7,285.3z"/>
			<path class="st0" d="M410.1,300c-2,0-3.7-1.6-3.7-3.7V267c0-2,1.6-3.7,3.7-3.7c2,0,3.7,1.6,3.7,3.7v29.3
				C413.7,298.4,412.1,300,410.1,300z"/>
		</g>
	</g>
</g>
</svg>
