<?xml version="1.0" encoding="utf-8"?>
<!-- Generator: Adobe Illustrator 22.1.0, SVG Export Plug-In . SVG Version: 6.00 Build 0)  -->
<svg version="1.1" id="Layer_1" xmlns="http://www.w3.org/2000/svg" xmlns:xlink="http://www.w3.org/1999/xlink" x="0px" y="0px"
	 viewBox="0 0 512 512" style="enable-background:new 0 0 512 512;" xml:space="preserve">
<style type="text/css">
	.st0{fill:#00AEEF;}
	.st1{fill:#565656;}
	.st2{fill:#565656;stroke:#263238;stroke-width:7.8088;stroke-linecap:round;stroke-linejoin:round;stroke-miterlimit:10;}
</style>
<g>
	<path class="st0" d="M343.8,263.1H308c-2.2,0-3.9-1.7-3.9-3.9c0-2.2,1.7-3.9,3.9-3.9h35.8c30.1,0,54.7-24.5,54.7-54.7
		S374,146,343.8,146h-17.6c-2.2,0-3.9-1.7-3.9-3.9c0-36.6-29.8-66.4-66.4-66.4s-66.4,29.8-66.4,66.4c0,2.2-1.7,3.9-3.9,3.9l-17.6,0
		c-30.1,0-54.7,24.5-54.7,54.7s24.5,54.7,54.7,54.7H204c2.2,0,3.9,1.7,3.9,3.9c0,2.2-1.7,3.9-3.9,3.9h-35.8
		c-34.4,0-62.5-28-62.5-62.5s28-62.5,62.5-62.5h13.8c2-39.1,34.5-70.3,74.1-70.3s72,31.2,74.1,70.3l13.8,0c34.4,0,62.5,28,62.5,62.5
		S378.3,263.1,343.8,263.1z"/>
	<g>
		<path class="st0" d="M302.9,146c-2.2,0-3.9-1.7-3.9-3.9c0-23.7-19.3-42.9-42.9-42.9c-2.2,0-3.9-1.7-3.9-3.9c0-2.2,1.7-3.9,3.9-3.9
			c28,0,50.8,22.8,50.8,50.8C306.8,144.2,305,146,302.9,146z"/>
	</g>
	<g>
		<g>
			<path class="st1" d="M331.9,444.2c-31.1,0-57.9-12.6-59.4-13.4c-1.8-0.9-2.7-2.9-2-4.8c0.8-2.2,19.5-54.2,62.8-72.2
				c43.3-18,93.3,5.6,95.4,6.6c1.8,0.9,2.7,2.9,2,4.8c-0.8,2.2-19.5,54.2-62.8,72.2C356,442.4,343.6,444.2,331.9,444.2z
				 M279.2,425.3c11.6,4.8,51.7,19.1,85.7,5l0,0c34-14.1,52.2-52.5,57.1-64.2c-11.6-4.8-51.7-19.1-85.7-5
				C302.2,375.2,284,413.7,279.2,425.3z"/>
			<path class="st1" d="M256,486.4c-2.2,0-3.9-1.7-3.9-3.9c0-54.3,44.2-98.5,98.5-98.5c2.2,0,3.9,1.7,3.9,3.9c0,2.2-1.7,3.9-3.9,3.9
				c-50,0-90.7,40.7-90.7,90.7C259.9,484.6,258.2,486.4,256,486.4z"/>
		</g>
		<g>
			<path class="st1" d="M180.1,444.2c-11.8,0-24.1-1.8-36-6.7c-43.3-17.9-62-70-62.8-72.2c-0.7-1.9,0.2-4,2-4.8
				c2.1-1,52.1-24.6,95.4-6.6c43.3,17.9,62,70,62.8,72.2c0.7,1.9-0.2,4-2,4.8C238,431.6,211.3,444.2,180.1,444.2z M90,366.1
				c4.8,11.6,23.1,50.1,57.1,64.2l0,0c34,14.1,74.1-0.2,85.7-5c-4.8-11.6-23.1-50.1-57.1-64.2C141.8,347,101.7,361.3,90,366.1z"/>
			<path class="st1" d="M256,486.4c-2.2,0-3.9-1.7-3.9-3.9c0-50-40.7-90.7-90.7-90.7c-2.2,0-3.9-1.7-3.9-3.9c0-2.2,1.7-3.9,3.9-3.9
				c54.3,0,98.5,44.2,98.5,98.5C259.9,484.6,258.2,486.4,256,486.4z"/>
		</g>
		<path class="st1" d="M256,389.5c-0.9,0-1.9-0.3-2.6-1c-1.7-1.6-42.7-38.7-42.7-85.6c0-46.9,40.9-84.1,42.7-85.6
			c1.5-1.3,3.7-1.3,5.2,0c1.7,1.6,42.7,38.7,42.7,85.6c0,46.9-40.9,84.1-42.7,85.6C257.9,389.1,256.9,389.5,256,389.5z M256,225.6
			c-8.9,8.9-37.5,40.5-37.5,77.3c0,36.8,28.6,68.4,37.5,77.3c8.9-8.9,37.5-40.5,37.5-77.3C293.5,266.1,264.9,234.5,256,225.6z"/>
		<path class="st1" d="M256,486.4c-2.2,0-3.9-1.7-3.9-3.9V302.9c0-2.2,1.7-3.9,3.9-3.9s3.9,1.7,3.9,3.9v179.6
			C259.9,484.6,258.2,486.4,256,486.4z"/>
	</g>
	<path class="st0" d="M379,80.3c-1.7,0-3.2-1.1-3.7-2.7l-3.2-9.7c-1.3-3.8-4.2-6.8-8-8l-9.7-3.2c-1.6-0.5-2.7-2-2.7-3.7
		s1.1-3.2,2.7-3.7L364,46c3.8-1.3,6.7-4.3,8-8l3.2-9.7c0.5-1.6,2-2.7,3.7-2.7l0,0c1.7,0,3.2,1.1,3.7,2.7l3.2,9.7
		c1.3,3.8,4.2,6.7,8,8l9.7,3.2c1.6,0.5,2.7,2,2.7,3.7s-1.1,3.2-2.7,3.7l-9.7,3.2c-3.8,1.3-6.7,4.2-8,8l-3.2,9.7
		C382.2,79.2,380.7,80.3,379,80.3z M367.8,53c5.1,2.1,9.1,6.2,11.2,11.2c2.1-5.1,6.2-9.1,11.2-11.2c-5.1-2.1-9.1-6.2-11.2-11.2
		C376.9,46.8,372.8,50.9,367.8,53z"/>
	<g>
		<g>
			<path class="st0" d="M476.6,295h-7.8c-2.2,0-3.9-1.7-3.9-3.9s1.7-3.9,3.9-3.9h7.8c2.2,0,3.9,1.7,3.9,3.9S478.8,295,476.6,295z"/>
			<path class="st0" d="M453.2,295h-62.5c-2.2,0-3.9-1.7-3.9-3.9s1.7-3.9,3.9-3.9h62.5c2.2,0,3.9,1.7,3.9,3.9S455.3,295,453.2,295z"
				/>
		</g>
		<g>
			<path class="st0" d="M343.8,310.7H336c-2.2,0-3.9-1.7-3.9-3.9s1.7-3.9,3.9-3.9h7.8c2.2,0,3.9,1.7,3.9,3.9S346,310.7,343.8,310.7z
				"/>
			<path class="st0" d="M421.9,310.7h-62.5c-2.2,0-3.9-1.7-3.9-3.9s1.7-3.9,3.9-3.9h62.5c2.2,0,3.9,1.7,3.9,3.9
				S424.1,310.7,421.9,310.7z"/>
		</g>
	</g>
	<g>
		<g>
			<path class="st0" d="M39.2,295h-7.8c-2.2,0-3.9-1.7-3.9-3.9s1.7-3.9,3.9-3.9h7.8c2.2,0,3.9,1.7,3.9,3.9S41.4,295,39.2,295z"/>
			<path class="st0" d="M117.3,295H54.8c-2.2,0-3.9-1.7-3.9-3.9s1.7-3.9,3.9-3.9h62.5c2.2,0,3.9,1.7,3.9,3.9S119.5,295,117.3,295z"
				/>
		</g>
		<g>
			<path class="st0" d="M172,310.7h-7.8c-2.2,0-3.9-1.7-3.9-3.9s1.7-3.9,3.9-3.9h7.8c2.2,0,3.9,1.7,3.9,3.9S174.1,310.7,172,310.7z"
				/>
			<path class="st0" d="M148.5,310.7H86.1c-2.2,0-3.9-1.7-3.9-3.9s1.7-3.9,3.9-3.9h62.5c2.2,0,3.9,1.7,3.9,3.9
				S150.7,310.7,148.5,310.7z"/>
		</g>
	</g>
	<path class="st1" d="M58.8,192.8H27.6c-10.8,0-19.5-8.8-19.5-19.5c0-9.5,6.9-17.5,15.9-19.2c1.7-9.1,9.7-15.9,19.2-15.9
		s17.5,6.9,19.2,15.9c9.1,1.7,15.9,9.7,15.9,19.2C78.4,184,69.6,192.8,58.8,192.8z M43.2,146c-6.5,0-11.7,5.3-11.7,11.7
		c0,2.2-1.7,3.9-3.9,3.9c-6.5,0-11.7,5.3-11.7,11.7c0,6.5,5.3,11.7,11.7,11.7h31.2c6.5,0,11.7-5.3,11.7-11.7
		c0-6.5-5.3-11.7-11.7-11.7c-2.2,0-3.9-1.7-3.9-3.9C54.9,151.2,49.7,146,43.2,146z M62.7,157.7L62.7,157.7L62.7,157.7z"/>
	<path class="st1" d="M484.4,192.8h-31.2c-10.8,0-19.5-8.8-19.5-19.5c0-9.5,6.9-17.5,15.9-19.2c1.7-9.1,9.7-15.9,19.2-15.9
		c9.5,0,17.5,6.9,19.2,15.9c9.1,1.7,15.9,9.7,15.9,19.2C503.9,184,495.2,192.8,484.4,192.8z M468.8,146c-6.5,0-11.7,5.3-11.7,11.7
		c0,2.2-1.7,3.9-3.9,3.9c-6.5,0-11.7,5.3-11.7,11.7c0,6.5,5.3,11.7,11.7,11.7h31.2c6.5,0,11.7-5.3,11.7-11.7
		c0-6.5-5.3-11.7-11.7-11.7c-2.2,0-3.9-1.7-3.9-3.9C480.5,151.2,475.2,146,468.8,146z M488.3,157.7L488.3,157.7L488.3,157.7z"/>
</g>
</svg>
