<?xml version="1.0" encoding="utf-8"?>
<!-- Generator: Adobe Illustrator 22.1.0, SVG Export Plug-In . SVG Version: 6.00 Build 0)  -->
<svg version="1.1" id="Layer_1" xmlns="http://www.w3.org/2000/svg" xmlns:xlink="http://www.w3.org/1999/xlink" x="0px" y="0px"
	 viewBox="0 0 512 512" style="enable-background:new 0 0 512 512;" xml:space="preserve">
<style type="text/css">
	.st0{fill:#00AEEF;}
	.st1{fill:#565656;}
</style>
<g>
	<g>
		<g>
			<path class="st0" d="M441.3,275.8c-1.3,0-2.6-0.7-3.3-1.9l-46.4-80.3c-1.1-1.8-0.4-4.2,1.4-5.2c1.8-1.1,4.2-0.4,5.2,1.4
				l46.4,80.3c1.1,1.8,0.4,4.2-1.4,5.2C442.6,275.7,441.9,275.8,441.3,275.8z"/>
			<path class="st0" d="M452.3,295c-1.3,0-2.6-0.7-3.3-1.9l-4.4-7.7c-1.1-1.8-0.4-4.2,1.4-5.2c1.8-1.1,4.2-0.4,5.2,1.4l4.4,7.7
				c1.1,1.8,0.4,4.2-1.4,5.2C453.6,294.8,453,295,452.3,295z"/>
		</g>
	</g>
	<g>
		<g>
			<path class="st1" d="M219.6,438L219.6,438l-90.9,0c-15.5,0-29.9-8.3-37.6-21.7l-17.9-31.1c-7.7-13.4-7.7-30,0-43.4l36.2-62.8
				l-20.6-11.9c-1.4-0.8-2.2-2.5-1.8-4.1c0.3-1.6,1.7-2.8,3.3-3l77.4-8.4c1.7-0.2,3.2,0.7,3.9,2.3l31.5,71.2
				c0.7,1.5,0.3,3.3-0.9,4.4c-1.2,1.1-3,1.3-4.5,0.5l-23.9-13.8c-1.8-1.1-2.5-3.4-1.4-5.2c1.1-1.8,3.4-2.5,5.2-1.4l13.7,7.9
				l-25.6-58l-63,6.8l13.7,7.9c1.8,1.1,2.5,3.4,1.4,5.2l-38.1,66.1c-6.4,11-6.4,24.7,0,35.7l17.9,31.1c6.4,11,18.2,17.9,31,17.9
				l87.1,0l0-63l-69.2,0c-1.4,0-2.6-0.7-3.3-1.9c-0.7-1.2-0.7-2.6,0-3.8l17.7-30.7c1.1-1.8,3.4-2.5,5.2-1.4c1.8,1.1,2.5,3.4,1.4,5.2
				l-14.4,24.9l66.4,0c1,0,2,0.4,2.7,1.1c0.7,0.7,1.1,1.7,1.1,2.7l0,70.6C223.4,436.3,221.7,438,219.6,438z"/>
			<path class="st1" d="M305.2,465.6c-1.2,0-2.4-0.6-3.1-1.6l-46-62.9c-1-1.3-1-3.2,0-4.5l46-62.9c1-1.3,2.7-1.9,4.3-1.4
				c1.6,0.5,2.6,2,2.6,3.6v27.6c0,2.1-1.7,3.8-3.8,3.8c-2.1,0-3.8-1.7-3.8-3.8v-15.8L264,398.9l37.4,51.2v-15.8
				c0-2.1,1.7-3.8,3.8-3.8l76,0c12.7,0,24.6-6.8,30.9-17.9l18-31.1c6.4-11,6.4-24.7,0-35.8l-43.5-75.4L332,301.7l34.6,59.9
				c0.6,0.9,0.7,2.1,0.3,3.1c-0.5,1.6-2,2.6-3.6,2.6l-35.1,0c-2.1,0-3.8-1.7-3.8-3.8s1.7-3.8,3.8-3.8l28.5,0l-33.2-57.5
				c-1.1-1.8-0.4-4.2,1.4-5.2l61.2-35.3c1.8-1.1,4.2-0.4,5.2,1.4l45.5,78.8c7.7,13.4,7.7,30,0,43.4l-18,31.1
				c-7.7,13.4-22.1,21.7-37.6,21.7l-72.2,0v23.7c0,1.7-1.1,3.1-2.6,3.6C306,465.6,305.6,465.6,305.2,465.6z"/>
			<path class="st1" d="M337.5,252.1c-0.1,0-0.3,0-0.4,0l-77.4-8.3c-1.6-0.2-3-1.4-3.3-3s0.4-3.3,1.8-4.1l23.9-13.8
				c1.8-1.1,4.2-0.4,5.2,1.4c1.1,1.8,0.4,4.2-1.4,5.2l-13.7,7.9l63,6.8l25.6-58l-13.7,7.9c-1.8,1.1-4.2,0.4-5.2-1.4l-38-65.8
				c-6.4-11-18.2-17.9-30.9-17.9c0,0,0,0,0,0l-35.9,0c-12.7,0-24.6,6.9-30.9,17.9l-43.6,75.4l54.5,31.5l34.6-59.9
				c1.4-2.4,5.3-2.4,6.6,0l17.6,30.4c1.1,1.8,0.4,4.2-1.4,5.2c-1.8,1.1-4.2,0.4-5.2-1.4l-14.3-24.7l-33.2,57.5
				c-1,1.8-3.4,2.5-5.2,1.4L155.3,207c-0.9-0.5-1.5-1.3-1.8-2.3c-0.3-1-0.1-2,0.4-2.9l45.5-78.7c7.7-13.4,22.1-21.7,37.6-21.7
				l35.9,0c0,0,0,0,0,0c15.5,0,29.9,8.3,37.6,21.7l36.1,62.5l20.6-11.9c1.4-0.8,3.2-0.6,4.5,0.5c1.2,1.1,1.6,2.9,0.9,4.4L341,249.8
				C340.4,251.2,339,252.1,337.5,252.1z"/>
		</g>
		<path class="st1" d="M254.8,179.6c-1.3,0-2.6-0.7-3.3-1.9l-23-39.8c-1.1-1.8-0.4-4.2,1.4-5.2c1.8-1.1,4.2-0.4,5.2,1.4l23,39.8
			c1.1,1.8,0.4,4.2-1.4,5.2C256.1,179.5,255.5,179.6,254.8,179.6z"/>
		<path class="st1" d="M409.2,367.4h-46c-2.1,0-3.8-1.7-3.8-3.8c0-2.1,1.7-3.8,3.8-3.8h46c2.1,0,3.8,1.7,3.8,3.8
			C413,365.7,411.3,367.4,409.2,367.4z"/>
		<path class="st1" d="M123.6,407.2c-0.7,0-1.3-0.2-1.9-0.5c-1.8-1.1-2.5-3.4-1.4-5.2l23-39.8c1.1-1.8,3.4-2.5,5.2-1.4
			c1.8,1.1,2.5,3.4,1.4,5.2l-23,39.8C126.2,406.5,124.9,407.2,123.6,407.2z"/>
	</g>
	<g>
		<g>
			<path class="st0" d="M96.9,227.3c-0.7,0-1.3-0.2-1.9-0.5c-1.8-1.1-2.5-3.4-1.4-5.2l46.4-80.3c1.1-1.8,3.4-2.5,5.2-1.4
				c1.8,1.1,2.5,3.4,1.4,5.2l-46.4,80.3C99.5,226.6,98.2,227.3,96.9,227.3z"/>
			<path class="st0" d="M149.9,135.5c-0.7,0-1.3-0.2-1.9-0.5c-1.8-1.1-2.5-3.4-1.4-5.2l4.4-7.7c1.1-1.8,3.4-2.4,5.2-1.4
				c1.8,1.1,2.5,3.4,1.4,5.2l-4.4,7.7C152.5,134.8,151.2,135.5,149.9,135.5z"/>
		</g>
	</g>
	<g>
		<g>
			<path class="st0" d="M254,480.8h-92.8c-2.1,0-3.8-1.7-3.8-3.8s1.7-3.8,3.8-3.8H254c2.1,0,3.8,1.7,3.8,3.8S256.1,480.8,254,480.8z
				"/>
			<path class="st0" d="M147.9,480.8h-8.8c-2.1,0-3.8-1.7-3.8-3.8s1.7-3.8,3.8-3.8h8.8c2.1,0,3.8,1.7,3.8,3.8S150,480.8,147.9,480.8
				z"/>
		</g>
	</g>
	<path class="st0" d="M471.6,445.3c-3.3,0-6.6-0.9-9.5-2.6c-4.4-2.6-7.6-6.7-8.9-11.6c-1.3-4.9-0.6-10.1,1.9-14.5
		c2.6-4.4,6.7-7.6,11.6-8.9c5-1.3,10.1-0.7,14.5,1.9c9.1,5.3,12.3,17,7,26.2c-2.6,4.4-6.7,7.6-11.6,8.9
		C475,445.1,473.3,445.3,471.6,445.3z M471.7,414.6c-1,0-2,0.1-3,0.4c-3,0.8-5.4,2.7-7,5.4c-1.5,2.7-1.9,5.8-1.2,8.7
		c0.8,3,2.7,5.4,5.3,7l0,0c2.7,1.5,5.8,1.9,8.7,1.1c3-0.8,5.4-2.7,7-5.3c3.2-5.5,1.3-12.5-4.2-15.7
		C475.6,415.2,473.7,414.6,471.7,414.6z"/>
	<path class="st0" d="M260.2,69.5c-10.6,0-19.1-8.6-19.1-19.1s8.6-19.1,19.1-19.1c10.6,0,19.1,8.6,19.1,19.1S270.7,69.5,260.2,69.5z
		 M260.2,38.8c-6.3,0-11.5,5.2-11.5,11.5s5.2,11.5,11.5,11.5s11.5-5.2,11.5-11.5S266.5,38.8,260.2,38.8z"/>
	<path class="st0" d="M40.4,449.7c-6.6,0-13.1-3.4-16.6-9.6c-5.3-9.1-2.1-20.9,7-26.2c0,0,0,0,0,0c9.1-5.2,20.9-2.1,26.2,7
		c5.3,9.1,2.1,20.9-7,26.2C46.9,448.9,43.6,449.7,40.4,449.7z M34.6,420.6c-5.5,3.2-7.4,10.2-4.2,15.7c3.2,5.5,10.2,7.4,15.7,4.2
		c5.5-3.2,7.4-10.2,4.2-15.7S40.1,417.4,34.6,420.6L34.6,420.6z"/>
</g>
</svg>
