<?xml version="1.0" encoding="utf-8"?>
<!-- Generator: Adobe Illustrator 22.1.0, SVG Export Plug-In . SVG Version: 6.00 Build 0)  -->
<svg version="1.1" id="Layer_1" xmlns="http://www.w3.org/2000/svg" xmlns:xlink="http://www.w3.org/1999/xlink" x="0px" y="0px"
	 viewBox="0 0 512 512" style="enable-background:new 0 0 512 512;" xml:space="preserve">
<style type="text/css">
	.st0{fill:#565656;}
	.st1{fill:#00AEEF;}
</style>
<g>
	<g>
		<path class="st0" d="M122.2,475.6H87.9c-11.4,0-20.6-9.2-20.6-20.6v-24c0-1.9,1.5-3.4,3.4-3.4s3.4,1.5,3.4,3.4v24
			c0,7.6,6.2,13.7,13.7,13.7h34.3c7.6,0,13.7-6.2,13.7-13.7v-10.3c0-1.9,1.5-3.4,3.4-3.4s3.4,1.5,3.4,3.4V455
			C142.8,466.4,133.5,475.6,122.2,475.6z"/>
		<path class="st0" d="M424.1,475.6h-34.3c-11.4,0-20.6-9.2-20.6-20.6v-10.3c0-1.9,1.5-3.4,3.4-3.4s3.4,1.5,3.4,3.4V455
			c0,7.6,6.2,13.7,13.7,13.7H424c7.6,0,13.7-6.2,13.7-13.7v-24c0-1.9,1.5-3.4,3.4-3.4s3.4,1.5,3.4,3.4v24
			C444.7,466.4,435.5,475.6,424.1,475.6z"/>
		<path class="st0" d="M415,427.6H97c-11,0-21.5-4.8-28.7-13.2S58,395,59.7,384.1l10-65.2c2.8-18.5,18.5-32,37.3-32h298
			c18.8,0,34.5,13.5,37.3,32l10,65.2c1.7,10.9-1.5,21.9-8.7,30.3C436.5,422.8,426.1,427.6,415,427.6z M107,293.7
			c-15.4,0-28.2,11-30.5,26.2l-10,65.2c-1.4,8.9,1.2,18,7.1,24.8S88,420.7,97,420.7h318c9,0,17.6-3.9,23.4-10.8
			c5.9-6.8,8.5-15.9,7.1-24.8l-10-65.2c-2.3-15.2-15.2-26.2-30.5-26.2H107z"/>
		<path class="st0" d="M407,293.7H105c-1.2,0-2.2-0.6-2.9-1.6c-0.6-1-0.7-2.2-0.3-3.3l27.6-62.1c8.8-19.8,28.5-32.6,50.2-32.6h152.7
			c21.7,0,41.4,12.8,50.2,32.6l27.6,62.1c0.5,1.1,0.4,2.3-0.3,3.3C409.2,293.2,408.1,293.7,407,293.7z M110.3,286.9h291.4
			l-25.4-57.3c-7.7-17.3-24.9-28.5-43.9-28.5H179.6c-19,0-36.2,11.2-43.9,28.5L110.3,286.9z"/>
		<path class="st0" d="M375.3,273.2c-1.3,0-2.6-0.8-3.1-2L357.4,238c-4.4-9.9-14.2-16.3-25.1-16.3c-1.9,0-3.4-1.5-3.4-3.4
			s1.5-3.4,3.4-3.4c13.5,0,25.9,8,31.4,20.4l14.7,33.1c0.8,1.7,0,3.8-1.7,4.5C376.2,273.1,375.8,273.2,375.3,273.2z"/>
		<path class="st0" d="M67.3,300.6H46.7c-5.7,0-10.3-4.6-10.3-10.3v-17.2c0-5.7,4.6-10.3,10.3-10.3h24c9.7,0,18,6.6,20.1,16.1
			c0.4,1.8-0.8,3.7-2.6,4.1c-1.8,0.4-3.7-0.8-4.1-2.6c-1.4-6.3-6.9-10.7-13.4-10.7h-24c-1.9,0-3.4,1.5-3.4,3.4v17.2
			c0,1.9,1.5,3.4,3.4,3.4h20.6c1.9,0,3.4,1.5,3.4,3.4C70.7,299.1,69.2,300.6,67.3,300.6z"/>
		<path class="st0" d="M465.3,300.6h-20.6c-1.9,0-3.4-1.5-3.4-3.4s1.5-3.4,3.4-3.4h20.6c1.9,0,3.4-1.5,3.4-3.4v-17.2
			c0-1.9-1.5-3.4-3.4-3.4h-24c-6.5,0-12,4.4-13.4,10.7c-0.4,1.8-2.2,3-4.1,2.6c-1.8-0.4-3-2.2-2.6-4.1c2.1-9.5,10.4-16.1,20.1-16.1
			h24c5.7,0,10.3,4.6,10.3,10.3v17.2C475.6,296,471,300.6,465.3,300.6z"/>
		<path class="st0" d="M299.5,369.2h-87c-4.1,0-7.8-2.5-9.5-6.2l-4.4-10.3c-1.4-3.2-1-6.8,0.9-9.7c1.9-2.9,5.1-4.6,8.6-4.6H304
			c3.5,0,6.7,1.7,8.6,4.6s2.2,6.5,0.9,9.7L309,363C307.4,366.8,303.6,369.2,299.5,369.2z M208.1,345.2c-1.2,0-2.2,0.6-2.9,1.5
			c-0.6,1-0.8,2.2-0.3,3.2l4.4,10.3c0.5,1.3,1.8,2.1,3.1,2.1h87c1.4,0,2.6-0.8,3.1-2.1l4.4-10.3c0.5-1.1,0.4-2.3-0.3-3.2
			c-0.7-1-1.7-1.5-2.9-1.5H208.1z"/>
		<path class="st0" d="M325.4,365.8c-1.3,0-2.5-0.7-3.1-1.9c-0.7-1.3-0.4-2.9,0.7-3.9l20.1-20.1c9.8-9.8,22.1-16.5,35.6-19.4l31-6.8
			l0,0c2.9-0.6,5.9,0,8.2,1.7c2.4,1.7,3.9,4.4,4.2,7.3l2,20c0.6,5.6-3.4,10.5-8.9,11.2l-89.4,11.8
			C325.7,365.8,325.5,365.8,325.4,365.8z M411.1,320.3l-31,6.8c-12.2,2.7-23.4,8.8-32.2,17.6L335,357.6l79.3-10.5
			c1.8-0.2,3.1-1.9,3-3.7l-2-20c-0.1-1-0.6-1.8-1.4-2.4C413.1,320.3,412.1,320.1,411.1,320.3L411.1,320.3z"/>
		<path class="st0" d="M186.6,365.8c-0.1,0-0.3,0-0.4,0L96.8,354c-5.5-0.7-9.5-5.7-8.9-11.2l2-20c0.3-2.9,1.8-5.6,4.2-7.3
			c2.4-1.7,5.4-2.4,8.2-1.7l0,0l31,6.8c13.5,2.9,25.8,9.7,35.6,19.4l20.1,20.1c1,1,1.3,2.6,0.7,3.9
			C189.1,365.1,187.9,365.8,186.6,365.8z M100.1,320.3c-0.7,0-1.4,0.2-2,0.7c-0.8,0.6-1.3,1.4-1.4,2.4l-2,20c-0.2,1.9,1.1,3.5,3,3.7
			l79.3,10.5l-12.9-12.9c-8.9-8.8-20-14.9-32.2-17.6l-31-6.8C100.6,320.3,100.4,320.3,100.1,320.3z"/>
		<path class="st0" d="M149.3,407H115c-5.7,0-10.3-4.6-10.3-10.3v-6.9c0-5.7,4.6-10.3,10.3-10.3h34.3c5.7,0,10.3,4.6,10.3,10.3v6.9
			C159.6,402.4,154.9,407,149.3,407z M114.9,386.4c-1.9,0-3.4,1.5-3.4,3.4v6.9c0,1.9,1.5,3.4,3.4,3.4h34.3c1.9,0,3.4-1.5,3.4-3.4
			v-6.9c0-1.9-1.5-3.4-3.4-3.4H114.9z"/>
		<path class="st0" d="M397.1,407h-34.3c-5.7,0-10.3-4.6-10.3-10.3v-6.9c0-5.7,4.6-10.3,10.3-10.3h34.3c5.7,0,10.3,4.6,10.3,10.3
			v6.9C407.4,402.4,402.7,407,397.1,407z M362.8,386.4c-1.9,0-3.4,1.5-3.4,3.4v6.9c0,1.9,1.5,3.4,3.4,3.4h34.3
			c1.9,0,3.4-1.5,3.4-3.4v-6.9c0-1.9-1.5-3.4-3.4-3.4H362.8z"/>
	</g>
	<g>
		<path class="st0" d="M283.5,170.2h-61.8c-11.4,0-20.6-9.2-20.6-20.6V57c0-11.4,9.2-20.6,20.6-20.6h61.8c11.4,0,20.6,9.2,20.6,20.6
			v92.6C304,161,294.8,170.2,283.5,170.2z M221.7,43.2c-7.6,0-13.7,6.2-13.7,13.7v92.6c0,7.6,6.2,13.7,13.7,13.7h61.8
			c7.6,0,13.7-6.2,13.7-13.7V57c0-7.6-6.2-13.7-13.7-13.7L221.7,43.2L221.7,43.2z"/>
		<path class="st0" d="M269.7,87.9h-34.3c-5.7,0-10.3-4.6-10.3-10.3V39.8c0-1.9,1.5-3.4,3.4-3.4h48c1.9,0,3.4,1.5,3.4,3.4v37.7
			C280,83.2,275.4,87.9,269.7,87.9z M232,43.2v34.3c0,1.9,1.5,3.4,3.4,3.4h34.3c1.9,0,3.4-1.5,3.4-3.4V43.2H232z"/>
		<path class="st0" d="M245.7,115.3h-17.2c-1.9,0-3.4-1.5-3.4-3.4s1.5-3.4,3.4-3.4h17.2c1.9,0,3.4,1.5,3.4,3.4
			S247.6,115.3,245.7,115.3z"/>
		<path class="st0" d="M276.6,115.3h-17.2c-1.9,0-3.4-1.5-3.4-3.4s1.5-3.4,3.4-3.4h17.2c1.9,0,3.4,1.5,3.4,3.4
			S278.5,115.3,276.6,115.3z"/>
		<path class="st0" d="M245.7,139.3h-17.2c-1.9,0-3.4-1.5-3.4-3.4s1.5-3.4,3.4-3.4h17.2c1.9,0,3.4,1.5,3.4,3.4
			S247.6,139.3,245.7,139.3z"/>
		<path class="st0" d="M276.6,139.3h-17.2c-1.9,0-3.4-1.5-3.4-3.4s1.5-3.4,3.4-3.4h17.2c1.9,0,3.4,1.5,3.4,3.4
			S278.5,139.3,276.6,139.3z"/>
	</g>
	<path class="st1" d="M354.3,146.9c-0.9,0-1.8-0.3-2.4-1c-1.3-1.3-1.3-3.5,0-4.9c8.4-8.4,13.1-19.6,13.1-31.5s-4.6-23.1-13.1-31.5
		c-1.3-1.3-1.3-3.5,0-4.9c1.3-1.3,3.5-1.3,4.9,0c9.7,9.7,15.1,22.6,15.1,36.4s-5.4,26.7-15.1,36.4
		C356.1,146.6,355.2,146.9,354.3,146.9z"/>
	<path class="st1" d="M334.9,127.5c-0.9,0-1.8-0.3-2.4-1c-1.3-1.3-1.3-3.5,0-4.9c3.2-3.2,5-7.5,5-12.1s-1.8-8.9-5-12.1
		c-1.3-1.3-1.3-3.5,0-4.9c1.3-1.3,3.5-1.3,4.9,0c4.5,4.5,7,10.6,7,17s-2.5,12.5-7,17C336.7,127.2,335.8,127.5,334.9,127.5z"/>
	<path class="st1" d="M150.8,146.9c-0.9,0-1.8-0.3-2.4-1c-20.1-20.1-20.1-52.7,0-72.8c1.3-1.3,3.5-1.3,4.9,0c1.3,1.3,1.3,3.5,0,4.9
		c-17.4,17.4-17.4,45.7,0,63.1c1.3,1.3,1.3,3.5,0,4.9C152.6,146.6,151.7,146.9,150.8,146.9z"/>
	<path class="st1" d="M170.2,127.5c-0.9,0-1.8-0.3-2.4-1c-4.5-4.5-7-10.6-7-17s2.5-12.4,7-17c1.3-1.3,3.5-1.3,4.9,0
		c1.3,1.3,1.3,3.5,0,4.9c-3.2,3.2-5,7.6-5,12.1c0,4.6,1.8,8.9,5,12.1c1.3,1.3,1.3,3.5,0,4.9C172,127.2,171.1,127.5,170.2,127.5z"/>
	<g>
		<g>
			<path class="st1" d="M317.8,461.9h-6.9c-1.9,0-3.4-1.5-3.4-3.4s1.5-3.4,3.4-3.4h6.9c1.9,0,3.4,1.5,3.4,3.4
				C321.2,460.4,319.7,461.9,317.8,461.9z"/>
			<path class="st1" d="M297.2,461.9h-68.6c-1.9,0-3.4-1.5-3.4-3.4s1.5-3.4,3.4-3.4h68.6c1.9,0,3.4,1.5,3.4,3.4
				S299.1,461.9,297.2,461.9z"/>
		</g>
		<g>
			<path class="st1" d="M201.1,475.6h-6.9c-1.9,0-3.4-1.5-3.4-3.4s1.5-3.4,3.4-3.4h6.9c1.9,0,3.4,1.5,3.4,3.4S203,475.6,201.1,475.6
				z"/>
			<path class="st1" d="M283.5,475.6h-68.6c-1.9,0-3.4-1.5-3.4-3.4s1.5-3.4,3.4-3.4h68.6c1.9,0,3.4,1.5,3.4,3.4
				S285.3,475.6,283.5,475.6z"/>
		</g>
	</g>
</g>
</svg>
