<?xml version="1.0" encoding="utf-8"?>
<!-- Generator: Adobe Illustrator 22.1.0, SVG Export Plug-In . SVG Version: 6.00 Build 0)  -->
<svg version="1.1" id="Layer_1" xmlns="http://www.w3.org/2000/svg" xmlns:xlink="http://www.w3.org/1999/xlink" x="0px" y="0px"
	 viewBox="0 0 512 512" style="enable-background:new 0 0 512 512;" xml:space="preserve">
<style type="text/css">
	.st0{fill:#00AEEF;}
	.st1{fill:#565656;}
</style>
<g id="Digital_Camera">
	<g>
		<g>
			<path class="st0" d="M19.8,187.3c-2.1,0-3.8-1.7-3.8-3.8v-15.2c0-44.1,35.9-80,80-80h15.2c2.1,0,3.8,1.7,3.8,3.8
				s-1.7,3.8-3.8,3.8H96c-39.9,0-72.4,32.5-72.4,72.4v15.2C23.6,185.6,21.9,187.3,19.8,187.3z"/>
			<path class="st0" d="M134.1,95.8h-7.6c-2.1,0-3.8-1.7-3.8-3.8s1.7-3.8,3.8-3.8h7.6c2.1,0,3.8,1.7,3.8,3.8S136.2,95.8,134.1,95.8z
				"/>
		</g>
		<g>
			<path class="st0" d="M416,461.6h-15.2c-2.1,0-3.8-1.7-3.8-3.8s1.7-3.8,3.8-3.8H416c39.9,0,72.4-32.5,72.4-72.4v-15.2
				c0-2.1,1.7-3.8,3.8-3.8s3.8,1.7,3.8,3.8v15.2C496,425.7,460.1,461.6,416,461.6z"/>
			<path class="st0" d="M385.5,461.6h-7.6c-2.1,0-3.8-1.7-3.8-3.8s1.7-3.8,3.8-3.8h7.6c2.1,0,3.8,1.7,3.8,3.8
				S387.6,461.6,385.5,461.6z"/>
		</g>
		<path class="st0" d="M438.9,103.5c-1.6,0-3.1-1-3.6-2.6l-3.2-9.5c-1.2-3.7-4.1-6.6-7.8-7.8l-9.5-3.1c-1.6-0.5-2.6-2-2.6-3.6
			c0-1.6,1-3.1,2.6-3.6l9.5-3.2c3.7-1.2,6.6-4.1,7.8-7.8l3.2-9.5c1-3.1,6.2-3.1,7.2,0l3.2,9.5c1.2,3.7,4.1,6.6,7.8,7.8l9.5,3.2
			c1.6,0.5,2.6,2,2.6,3.6c0,1.6-1,3.1-2.6,3.6l-9.5,3.2c-3.7,1.2-6.6,4.1-7.8,7.8l-3.2,9.5C442,102.4,440.5,103.5,438.9,103.5z
			 M427.9,76.8c4.9,2,8.9,6,10.9,11c2-4.9,6-8.9,10.9-11c-4.9-2-8.9-6-10.9-11C436.9,70.8,432.9,74.8,427.9,76.8z"/>
		<g>
			<path class="st1" d="M400.8,400.6H111.2c-23.1,0-41.9-18.8-41.9-41.9V191.1c0-23.1,18.8-41.9,41.9-41.9h289.6
				c23.1,0,41.9,18.8,41.9,41.9v167.6C442.7,381.8,423.9,400.6,400.8,400.6z M111.2,156.8c-18.9,0-34.3,15.4-34.3,34.3v167.6
				c0,18.9,15.4,34.3,34.3,34.3h289.6c18.9,0,34.3-15.4,34.3-34.3V191.1c0-18.9-15.4-34.3-34.3-34.3H111.2z"/>
			<path class="st1" d="M400.8,400.6H111.2c-23.1,0-41.9-18.8-41.9-41.9V229.2c0-2.1,1.7-3.8,3.8-3.8H176c2.1,0,3.8,1.7,3.8,3.8
				c0,2.1-1.7,3.8-3.8,3.8H76.9v125.7c0,18.9,15.4,34.3,34.3,34.3h289.6c18.9,0,34.3-15.4,34.3-34.3V233H336c-2.1,0-3.8-1.7-3.8-3.8
				c0-2.1,1.7-3.8,3.8-3.8h102.9c2.1,0,3.8,1.7,3.8,3.8v129.5C442.7,381.8,423.9,400.6,400.8,400.6z"/>
			<path class="st1" d="M328.4,141.6c-1.3,0-2.5-0.6-3.2-1.8l-13.5-21.5c-2.8-4.5-7.6-7.2-12.9-7.2h-85.6c-5.3,0-10.1,2.7-12.9,7.2
				l-13.5,21.5c-1.1,1.8-3.5,2.3-5.2,1.2c-1.8-1.1-2.3-3.5-1.2-5.2l13.5-21.5c4.2-6.7,11.5-10.7,19.4-10.7h85.6
				c7.9,0,15.2,4,19.4,10.7l13.5,21.5c1.1,1.8,0.6,4.1-1.2,5.2C329.8,141.4,329.1,141.6,328.4,141.6z"/>
			<path class="st1" d="M256,354.9c-44.1,0-80-35.9-80-80s35.9-80,80-80s80,35.9,80,80S300.1,354.9,256,354.9z M256,202.5
				c-39.9,0-72.4,32.5-72.4,72.4s32.5,72.4,72.4,72.4s72.4-32.5,72.4-72.4S295.9,202.5,256,202.5z"/>
			<path class="st0" d="M256,332.1c-31.5,0-57.1-25.6-57.1-57.1s25.6-57.1,57.1-57.1s57.1,25.6,57.1,57.1S287.5,332.1,256,332.1z
				 M256,225.4c-27.3,0-49.5,22.2-49.5,49.5c0,27.3,22.2,49.5,49.5,49.5s49.5-22.2,49.5-49.5C305.5,247.6,283.3,225.4,256,225.4z"/>
			<path class="st0" d="M286.5,278.7c-2.1,0-3.8-1.7-3.8-3.8c0-14.7-12-26.7-26.7-26.7c-2.1,0-3.8-1.7-3.8-3.8
				c0-2.1,1.7-3.8,3.8-3.8c18.9,0,34.3,15.4,34.3,34.3C290.3,277,288.6,278.7,286.5,278.7z"/>
			<path class="st0" d="M400.8,206.3h-19c-6.3,0-11.4-5.1-11.4-11.4v-7.6c0-6.3,5.1-11.4,11.4-11.4h19c6.3,0,11.4,5.1,11.4,11.4v7.6
				C412.2,201.2,407.1,206.3,400.8,206.3z M381.7,183.5c-2.1,0-3.8,1.7-3.8,3.8v7.6c0,2.1,1.7,3.8,3.8,3.8h19c2.1,0,3.8-1.7,3.8-3.8
				v-7.6c0-2.1-1.7-3.8-3.8-3.8H381.7z"/>
			<path class="st1" d="M278.9,133.9h-45.7c-2.1,0-3.8-1.7-3.8-3.8s1.7-3.8,3.8-3.8h45.7c2.1,0,3.8,1.7,3.8,3.8
				S281,133.9,278.9,133.9z"/>
			<path class="st1" d="M160.8,141.6h-30.5c-2.1,0-3.8-1.7-3.8-3.8c0-2.1,1.7-3.8,3.8-3.8h30.5c2.1,0,3.8,1.7,3.8,3.8
				C164.6,139.9,162.9,141.6,160.8,141.6z"/>
			<path class="st1" d="M416,362.5c-2.1,0-3.8-1.7-3.8-3.8V252.1c0-2.1,1.7-3.8,3.8-3.8s3.8,1.7,3.8,3.8v106.7
				C419.8,360.8,418.1,362.5,416,362.5z"/>
		</g>
	</g>
</g>
</svg>
