<?xml version="1.0" encoding="utf-8"?>
<!-- Generator: Adobe Illustrator 22.1.0, SVG Export Plug-In . SVG Version: 6.00 Build 0)  -->
<svg version="1.1" id="Layer_1" xmlns="http://www.w3.org/2000/svg" xmlns:xlink="http://www.w3.org/1999/xlink" x="0px" y="0px"
	 viewBox="0 0 512 512" style="enable-background:new 0 0 512 512;" xml:space="preserve">
<style type="text/css">
	.st0{fill:#565656;}
	.st1{fill:#00AEEF;}
</style>
<g>
	<path class="st0" d="M344,384.4H168c-22.2,0-40.3-18.1-40.3-40.3V168c0-22.2,18.1-40.3,40.3-40.3H344c22.2,0,40.3,18.1,40.3,40.3
		V344C384.4,366.3,366.3,384.4,344,384.4z M168,135c-18.2,0-33,14.8-33,33V344c0,18.2,14.8,33,33,33H344c18.2,0,33-14.8,33-33V168
		c0-18.2-14.8-33-33-33H168z"/>
	<path class="st0" d="M358.7,197.3c-2,0-3.7-1.6-3.7-3.7v-22c0-8.1-6.6-14.7-14.7-14.7h-22c-2,0-3.7-1.6-3.7-3.7s1.6-3.7,3.7-3.7h22
		c12.1,0,22,9.9,22,22v22C362.4,195.7,360.7,197.3,358.7,197.3z"/>
	<path class="st1" d="M219.3,325.7c-0.8,0-1.5-0.2-2.2-0.7c-1.4-1-1.9-2.9-1.2-4.5l27.1-60.9h-23.7c-1.5,0-2.9-0.9-3.4-2.4
		c-0.5-1.4-0.2-3,1-4l73.4-66c1.3-1.2,3.2-1.3,4.6-0.2c1.4,1,1.9,2.9,1.2,4.5L269,252.3h23.7c1.5,0,2.9,0.9,3.4,2.4
		c0.5,1.4,0.2,3-1,4l-73.4,66C221.1,325.4,220.2,325.7,219.3,325.7z M228.9,252.3h19.8c1.2,0,2.4,0.6,3.1,1.7c0.7,1,0.8,2.4,0.3,3.5
		l-22.4,50.3l53.5-48.1h-19.8c-1.2,0-2.4-0.6-3.1-1.7c-0.7-1-0.8-2.4-0.3-3.5l22.4-50.3L228.9,252.3z"/>
	<g>
		<path class="st0" d="M204.6,135c-2,0-3.7-1.6-3.7-3.7V94.6c0-2-1.6-3.7-3.7-3.7c-2,0-3.7,1.6-3.7,3.7v36.7c0,2-1.6,3.7-3.7,3.7
			s-3.7-1.6-3.7-3.7V94.6c0-6.1,4.9-11,11-11s11,4.9,11,11v36.7C208.3,133.3,206.7,135,204.6,135z"/>
	</g>
	<g>
		<path class="st0" d="M263.3,135c-2,0-3.7-1.6-3.7-3.7V94.6c0-2-1.6-3.7-3.7-3.7c-2,0-3.7,1.6-3.7,3.7v36.7c0,2-1.6,3.7-3.7,3.7
			s-3.7-1.6-3.7-3.7V94.6c0-6.1,4.9-11,11-11s11,4.9,11,11v36.7C267,133.3,265.4,135,263.3,135z"/>
	</g>
	<g>
		<path class="st0" d="M322,135c-2,0-3.7-1.6-3.7-3.7V94.6c0-2-1.6-3.7-3.7-3.7s-3.7,1.6-3.7,3.7v36.7c0,2-1.6,3.7-3.7,3.7
			c-2,0-3.7-1.6-3.7-3.7V94.6c0-6.1,4.9-11,11-11s11,4.9,11,11v36.7C325.7,133.3,324.1,135,322,135z"/>
	</g>
	<g>
		<g>
			<g>
				<path class="st1" d="M182.6,479.8h-7.3c-2,0-3.7-1.6-3.7-3.7c0-2,1.6-3.7,3.7-3.7h7.3c2,0,3.7,1.6,3.7,3.7
					C186.3,478.1,184.7,479.8,182.6,479.8z"/>
				<path class="st1" d="M336.7,479.8H197.3c-2,0-3.7-1.6-3.7-3.7c0-2,1.6-3.7,3.7-3.7h139.4c2,0,3.7,1.6,3.7,3.7
					C340.4,478.1,338.7,479.8,336.7,479.8z"/>
			</g>
		</g>
		<g>
			<g>
				<path class="st1" d="M336.7,39.6h-7.3c-2,0-3.7-1.6-3.7-3.7s1.6-3.7,3.7-3.7h7.3c2,0,3.7,1.6,3.7,3.7S338.7,39.6,336.7,39.6z"/>
				<path class="st1" d="M314.7,39.6H175.3c-2,0-3.7-1.6-3.7-3.7s1.6-3.7,3.7-3.7h139.4c2,0,3.7,1.6,3.7,3.7S316.7,39.6,314.7,39.6z
					"/>
			</g>
		</g>
	</g>
	<g>
		<g>
			<g>
				<path class="st1" d="M476.1,340.4c-2,0-3.7-1.6-3.7-3.7v-7.3c0-2,1.6-3.7,3.7-3.7c2,0,3.7,1.6,3.7,3.7v7.3
					C479.8,338.7,478.1,340.4,476.1,340.4z"/>
				<path class="st1" d="M476.1,318.4c-2,0-3.7-1.6-3.7-3.7V175.3c0-2,1.6-3.7,3.7-3.7c2,0,3.7,1.6,3.7,3.7v139.4
					C479.8,316.7,478.1,318.4,476.1,318.4z"/>
			</g>
		</g>
		<g>
			<g>
				<path class="st1" d="M35.9,186.3c-2,0-3.7-1.6-3.7-3.7v-7.3c0-2,1.6-3.7,3.7-3.7s3.7,1.6,3.7,3.7v7.3
					C39.6,184.7,37.9,186.3,35.9,186.3z"/>
				<path class="st1" d="M35.9,340.4c-2,0-3.7-1.6-3.7-3.7V197.3c0-2,1.6-3.7,3.7-3.7s3.7,1.6,3.7,3.7v139.4
					C39.6,338.7,37.9,340.4,35.9,340.4z"/>
			</g>
		</g>
	</g>
	<path class="st0" d="M410.1,179c-2,0-3.7-1.6-3.7-3.7v-36.7c0-18.2-14.8-33-33-33h-36.7c-2,0-3.7-1.6-3.7-3.7s1.6-3.7,3.7-3.7h36.7
		c22.2,0,40.3,18.1,40.3,40.3v36.7C413.7,177.3,412.1,179,410.1,179z"/>
	<path class="st0" d="M292.7,105.6H278c-2,0-3.7-1.6-3.7-3.7s1.6-3.7,3.7-3.7h14.7c2,0,3.7,1.6,3.7,3.7S294.7,105.6,292.7,105.6z"/>
	<path class="st0" d="M234,105.6h-14.7c-2,0-3.7-1.6-3.7-3.7s1.6-3.7,3.7-3.7H234c2,0,3.7,1.6,3.7,3.7S236,105.6,234,105.6z"/>
	<path class="st0" d="M101.9,179c-2,0-3.7-1.6-3.7-3.7v-36.7c0-22.2,18.1-40.3,40.3-40.3h36.7c2,0,3.7,1.6,3.7,3.7s-1.6,3.7-3.7,3.7
		h-36.7c-18.2,0-33,14.8-33,33v36.7C105.6,177.3,104,179,101.9,179z"/>
	<g>
		<g>
			<path class="st0" d="M314.7,428.4c-6.1,0-11-4.9-11-11v-36.7c0-2,1.6-3.7,3.7-3.7c2,0,3.7,1.6,3.7,3.7v36.7c0,2,1.6,3.7,3.7,3.7
				s3.7-1.6,3.7-3.7v-36.7c0-2,1.6-3.7,3.7-3.7c2,0,3.7,1.6,3.7,3.7v36.7C325.7,423.5,320.8,428.4,314.7,428.4z"/>
		</g>
		<g>
			<path class="st0" d="M256,428.4c-6.1,0-11-4.9-11-11v-36.7c0-2,1.6-3.7,3.7-3.7s3.7,1.6,3.7,3.7v36.7c0,2,1.6,3.7,3.7,3.7
				c2,0,3.7-1.6,3.7-3.7v-36.7c0-2,1.6-3.7,3.7-3.7c2,0,3.7,1.6,3.7,3.7v36.7C267,423.5,262.1,428.4,256,428.4z"/>
		</g>
		<g>
			<path class="st0" d="M197.3,428.4c-6.1,0-11-4.9-11-11v-36.7c0-2,1.6-3.7,3.7-3.7s3.7,1.6,3.7,3.7v36.7c0,2,1.6,3.7,3.7,3.7
				c2,0,3.7-1.6,3.7-3.7v-36.7c0-2,1.6-3.7,3.7-3.7s3.7,1.6,3.7,3.7v36.7C208.3,423.5,203.4,428.4,197.3,428.4z"/>
		</g>
		<path class="st0" d="M175.3,413.7h-36.7c-22.2,0-40.3-18.1-40.3-40.3v-36.7c0-2,1.6-3.7,3.7-3.7s3.7,1.6,3.7,3.7v36.7
			c0,18.2,14.8,33,33,33h36.7c2,0,3.7,1.6,3.7,3.7C179,412.1,177.3,413.7,175.3,413.7z"/>
		<path class="st0" d="M234,413.7h-14.7c-2,0-3.7-1.6-3.7-3.7c0-2,1.6-3.7,3.7-3.7H234c2,0,3.7,1.6,3.7,3.7
			C237.7,412.1,236,413.7,234,413.7z"/>
		<path class="st0" d="M292.7,413.7H278c-2,0-3.7-1.6-3.7-3.7c0-2,1.6-3.7,3.7-3.7h14.7c2,0,3.7,1.6,3.7,3.7
			C296.3,412.1,294.7,413.7,292.7,413.7z"/>
		<path class="st0" d="M373.4,413.7h-36.7c-2,0-3.7-1.6-3.7-3.7c0-2,1.6-3.7,3.7-3.7h36.7c18.2,0,33-14.8,33-33v-36.7
			c0-2,1.6-3.7,3.7-3.7c2,0,3.7,1.6,3.7,3.7v36.7C413.7,395.6,395.6,413.7,373.4,413.7z"/>
	</g>
	<g>
		<path class="st0" d="M417.4,208.3h-36.7c-2,0-3.7-1.6-3.7-3.7s1.6-3.7,3.7-3.7h36.7c2,0,3.7-1.6,3.7-3.7c0-2-1.6-3.7-3.7-3.7
			h-36.7c-2,0-3.7-1.6-3.7-3.7s1.6-3.7,3.7-3.7h36.7c6.1,0,11,4.9,11,11S423.5,208.3,417.4,208.3z"/>
	</g>
	<g>
		<path class="st0" d="M417.4,267h-36.7c-2,0-3.7-1.6-3.7-3.7c0-2,1.6-3.7,3.7-3.7h36.7c2,0,3.7-1.6,3.7-3.7c0-2-1.6-3.7-3.7-3.7
			h-36.7c-2,0-3.7-1.6-3.7-3.7s1.6-3.7,3.7-3.7h36.7c6.1,0,11,4.9,11,11S423.5,267,417.4,267z"/>
	</g>
	<g>
		<path class="st0" d="M417.4,325.7h-36.7c-2,0-3.7-1.6-3.7-3.7c0-2,1.6-3.7,3.7-3.7h36.7c2,0,3.7-1.6,3.7-3.7s-1.6-3.7-3.7-3.7
			h-36.7c-2,0-3.7-1.6-3.7-3.7c0-2,1.6-3.7,3.7-3.7h36.7c6.1,0,11,4.9,11,11S423.5,325.7,417.4,325.7z"/>
	</g>
	<path class="st0" d="M410.1,296.3c-2,0-3.7-1.6-3.7-3.7V278c0-2,1.6-3.7,3.7-3.7c2,0,3.7,1.6,3.7,3.7v14.7
		C413.7,294.7,412.1,296.3,410.1,296.3z"/>
	<path class="st0" d="M410.1,237.7c-2,0-3.7-1.6-3.7-3.7v-14.7c0-2,1.6-3.7,3.7-3.7c2,0,3.7,1.6,3.7,3.7V234
		C413.7,236,412.1,237.7,410.1,237.7z"/>
	<g>
		<g>
			<path class="st0" d="M131.3,325.7H94.6c-6.1,0-11-4.9-11-11s4.9-11,11-11h36.7c2,0,3.7,1.6,3.7,3.7c0,2-1.6,3.7-3.7,3.7H94.6
				c-2,0-3.7,1.6-3.7,3.7s1.6,3.7,3.7,3.7h36.7c2,0,3.7,1.6,3.7,3.7C135,324.1,133.3,325.7,131.3,325.7z"/>
		</g>
		<g>
			<path class="st0" d="M131.3,267H94.6c-6.1,0-11-4.9-11-11s4.9-11,11-11h36.7c2,0,3.7,1.6,3.7,3.7s-1.6,3.7-3.7,3.7H94.6
				c-2,0-3.7,1.6-3.7,3.7c0,2,1.6,3.7,3.7,3.7h36.7c2,0,3.7,1.6,3.7,3.7C135,265.4,133.3,267,131.3,267z"/>
		</g>
		<g>
			<path class="st0" d="M131.3,208.3H94.6c-6.1,0-11-4.9-11-11s4.9-11,11-11h36.7c2,0,3.7,1.6,3.7,3.7s-1.6,3.7-3.7,3.7H94.6
				c-2,0-3.7,1.6-3.7,3.7c0,2,1.6,3.7,3.7,3.7h36.7c2,0,3.7,1.6,3.7,3.7S133.3,208.3,131.3,208.3z"/>
		</g>
		<path class="st0" d="M101.9,237.7c-2,0-3.7-1.6-3.7-3.7v-14.7c0-2,1.6-3.7,3.7-3.7s3.7,1.6,3.7,3.7V234
			C105.6,236,104,237.7,101.9,237.7z"/>
		<path class="st0" d="M101.9,296.3c-2,0-3.7-1.6-3.7-3.7V278c0-2,1.6-3.7,3.7-3.7s3.7,1.6,3.7,3.7v14.7
			C105.6,294.7,104,296.3,101.9,296.3z"/>
	</g>
</g>
</svg>
