<?xml version="1.0" encoding="utf-8"?>
<!-- Generator: Adobe Illustrator 22.1.0, SVG Export Plug-In . SVG Version: 6.00 Build 0)  -->
<svg version="1.1" id="Layer_1" xmlns="http://www.w3.org/2000/svg" xmlns:xlink="http://www.w3.org/1999/xlink" x="0px" y="0px"
	 viewBox="0 0 512 512" style="enable-background:new 0 0 512 512;" xml:space="preserve">
<style type="text/css">
	.st0{fill:#00AEEF;}
	.st1{fill:#565656;}
</style>
<g>
	<g>
		<g>
			<path class="st0" d="M41.1,359.7c-2,0-3.7-1.7-3.7-3.7v-7.4c0-2,1.7-3.7,3.7-3.7c2,0,3.7,1.7,3.7,3.7v7.4
				C44.8,358.1,43.1,359.7,41.1,359.7z"/>
			<path class="st0" d="M41.1,337.5c-2,0-3.7-1.7-3.7-3.7V193c0-2,1.7-3.7,3.7-3.7c2,0,3.7,1.7,3.7,3.7v140.8
				C44.8,335.9,43.1,337.5,41.1,337.5z"/>
		</g>
	</g>
	<g>
		<path class="st0" d="M470.9,300.5c-2,0-3.7-1.7-3.7-3.7v-7.4c0-2,1.7-3.7,3.7-3.7s3.7,1.7,3.7,3.7v7.4
			C474.6,298.8,472.9,300.5,470.9,300.5z"/>
		<path class="st0" d="M470.9,278.2c-2,0-3.7-1.7-3.7-3.7V133.7c0-2,1.7-3.7,3.7-3.7s3.7,1.7,3.7,3.7v140.8
			C474.6,276.6,472.9,278.2,470.9,278.2z"/>
	</g>
	<g>
		<g>
			<path class="st0" d="M87.1,74.4c-2,0-3.7-1.7-3.7-3.7V41.1c0-2,1.7-3.7,3.7-3.7s3.7,1.7,3.7,3.7v29.6
				C90.8,72.8,89.1,74.4,87.1,74.4z"/>
			<path class="st0" d="M101.9,59.6H72.3c-2,0-3.7-1.7-3.7-3.7c0-2,1.7-3.7,3.7-3.7h29.6c2,0,3.7,1.7,3.7,3.7
				C105.6,58,104,59.6,101.9,59.6z"/>
		</g>
		<g>
			<path class="st0" d="M41.1,133.7c-2,0-3.7-1.7-3.7-3.7v-29.6c0-2,1.7-3.7,3.7-3.7c2,0,3.7,1.7,3.7,3.7V130
				C44.8,132.1,43.1,133.7,41.1,133.7z"/>
			<path class="st0" d="M55.9,118.9H26.3c-2,0-3.7-1.7-3.7-3.7c0-2,1.7-3.7,3.7-3.7h29.6c2,0,3.7,1.7,3.7,3.7
				C59.6,117.2,58,118.9,55.9,118.9z"/>
		</g>
	</g>
	<g>
		<path class="st1" d="M415.3,400.5H96.7c-12.3,0-22.2-10-22.2-22.2V100.4c0-2,1.7-3.7,3.7-3.7c2,0,3.7,1.7,3.7,3.7v277.9
			c0,8.2,6.7,14.8,14.8,14.8h318.6c8.2,0,14.8-6.7,14.8-14.8V100.4c0-2,1.7-3.7,3.7-3.7s3.7,1.7,3.7,3.7v277.9
			C437.6,390.5,427.6,400.5,415.3,400.5z"/>
		<path class="st1" d="M467.2,89.3H44.8c-12.3,0-22.2-10-22.2-22.2V44.8c0-12.3,10-22.2,22.2-22.2h422.4c12.3,0,22.2,10,22.2,22.2
			V67C489.4,79.3,479.5,89.3,467.2,89.3z M44.8,30C36.6,30,30,36.6,30,44.8V67c0,8.2,6.7,14.8,14.8,14.8h422.4
			c8.2,0,14.8-6.6,14.8-14.8V44.8c0-8.2-6.7-14.8-14.8-14.8H44.8z"/>
		<path class="st0" d="M144.8,333.8h-29.6c-6.1,0-11.1-5-11.1-11.1V189.3c0-6.1,5-11.1,11.1-11.1h29.6c6.1,0,11.1,5,11.1,11.1v133.4
			C156,328.8,151,333.8,144.8,333.8z M115.2,185.6c-2,0-3.7,1.7-3.7,3.7v133.4c0,2,1.7,3.7,3.7,3.7h29.6c2,0,3.7-1.7,3.7-3.7V189.3
			c0-2-1.7-3.7-3.7-3.7H115.2z"/>
		<path class="st0" d="M278.2,333.8h-29.6c-6.1,0-11.1-5-11.1-11.1V137.4c0-6.1,5-11.1,11.1-11.1h29.6c6.1,0,11.1,5,11.1,11.1v185.3
			C289.3,328.8,284.4,333.8,278.2,333.8z M248.6,133.7c-2,0-3.7,1.7-3.7,3.7v185.3c0,2,1.7,3.7,3.7,3.7h29.6c2,0,3.7-1.7,3.7-3.7
			V137.4c0-2-1.7-3.7-3.7-3.7H248.6z"/>
		<path class="st0" d="M211.5,333.8h-29.6c-6.1,0-11.1-5-11.1-11.1v-88.9c0-6.1,5-11.1,11.1-11.1h29.6c6.1,0,11.1,5,11.1,11.1v88.9
			C222.7,328.8,217.7,333.8,211.5,333.8z M181.9,230.1c-2,0-3.7,1.7-3.7,3.7v88.9c0,2,1.7,3.7,3.7,3.7h29.6c2,0,3.7-1.7,3.7-3.7
			v-88.9c0-2-1.7-3.7-3.7-3.7H181.9z"/>
		<path class="st1" d="M404.2,237.5h-74.1c-2,0-3.7-1.7-3.7-3.7s1.7-3.7,3.7-3.7h74.1c2,0,3.7,1.7,3.7,3.7S406.3,237.5,404.2,237.5z
			"/>
		<path class="st1" d="M404.2,289.3h-74.1c-2,0-3.7-1.7-3.7-3.7s1.7-3.7,3.7-3.7h74.1c2,0,3.7,1.7,3.7,3.7S406.3,289.3,404.2,289.3z
			"/>
		<path class="st1" d="M404.2,311.6h-74.1c-2,0-3.7-1.7-3.7-3.7s1.7-3.7,3.7-3.7h74.1c2,0,3.7,1.7,3.7,3.7S406.3,311.6,404.2,311.6z
			"/>
		<path class="st1" d="M367.2,333.8h-37.1c-2,0-3.7-1.7-3.7-3.7s1.7-3.7,3.7-3.7h37.1c2,0,3.7,1.7,3.7,3.7S369.2,333.8,367.2,333.8z
			"/>
		<path class="st1" d="M256,445c-2,0-3.7-1.7-3.7-3.7v-29.6c0-2,1.7-3.7,3.7-3.7s3.7,1.7,3.7,3.7v29.6C259.7,443.3,258,445,256,445z
			"/>
		<path class="st1" d="M256,489.4c-14.3,0-25.9-11.6-25.9-25.9s11.6-25.9,25.9-25.9s25.9,11.6,25.9,25.9S270.3,489.4,256,489.4z
			 M256,445c-10.2,0-18.5,8.3-18.5,18.5c0,10.2,8.3,18.5,18.5,18.5c10.2,0,18.5-8.3,18.5-18.5C274.5,453.3,266.2,445,256,445z"/>
		<path class="st1" d="M411.6,148.5c-2,0-3.7-1.7-3.7-3.7v-33.3h-33.3c-2,0-3.7-1.7-3.7-3.7s1.7-3.7,3.7-3.7h37.1
			c2,0,3.7,1.7,3.7,3.7v37.1C415.3,146.9,413.7,148.5,411.6,148.5z"/>
	</g>
	<g>
		<g>
			<path class="st0" d="M485.7,389.4h-29.6c-2,0-3.7-1.7-3.7-3.7s1.7-3.7,3.7-3.7h29.6c2,0,3.7,1.7,3.7,3.7S487.8,389.4,485.7,389.4
				z"/>
			<path class="st0" d="M470.9,404.2c-2,0-3.7-1.7-3.7-3.7v-29.6c0-2,1.7-3.7,3.7-3.7s3.7,1.7,3.7,3.7v29.6
				C474.6,402.6,472.9,404.2,470.9,404.2z"/>
		</g>
		<g>
			<path class="st0" d="M433.8,437.6h-29.6c-2,0-3.7-1.7-3.7-3.7s1.7-3.7,3.7-3.7h29.6c2,0,3.7,1.7,3.7,3.7S435.9,437.6,433.8,437.6
				z"/>
			<path class="st0" d="M419,452.4c-2,0-3.7-1.7-3.7-3.7V419c0-2,1.7-3.7,3.7-3.7s3.7,1.7,3.7,3.7v29.6
				C422.7,450.7,421.1,452.4,419,452.4z"/>
		</g>
	</g>
</g>
</svg>
