<?xml version="1.0" encoding="utf-8"?>
<!-- Generator: Adobe Illustrator 22.1.0, SVG Export Plug-In . SVG Version: 6.00 Build 0)  -->
<svg version="1.1" id="Layer_1" xmlns="http://www.w3.org/2000/svg" xmlns:xlink="http://www.w3.org/1999/xlink" x="0px" y="0px"
	 viewBox="0 0 512 512" style="enable-background:new 0 0 512 512;" xml:space="preserve">
<style type="text/css">
	.st0{fill:#565656;}
	.st1{fill:#00AEEF;}
</style>
<g>
	<g>
		<path class="st0" d="M256,482.5c-0.6,0-1.2-0.1-1.7-0.4l-36.2-19.5c-35.6-19.2-57.7-56.2-57.7-96.6v-85.2c0-1.4,0.8-2.6,2.1-3.2
			c1.2-0.6,2.7-0.4,3.8,0.5c25.4,21.5,62,21.5,87.1,0.2c1.3-1.1,3.6-1.4,4.9-0.2c25.4,21.5,62,21.5,87.1,0.2
			c1.1-0.9,2.7-1.2,3.9-0.6c1.3,0.6,2.2,1.7,2.2,3.1V366c0,40.4-22.1,77.4-57.7,96.6l-36.2,19.5C257.2,482.4,256.6,482.5,256,482.5z
			 M167.5,288v78c0,37.8,20.7,72.4,54,90.4L256,475l34.5-18.6c33.3-17.9,54-52.6,54-90.4v-78.1c-27,18.7-62.7,17.8-88.5-2.6
			C229.8,305.8,194.2,306.6,167.5,288z"/>
		<g>
			<path class="st1" d="M241,419.5c-3.8,0-7.3-1.5-10-4.1l-35-35c-2.7-2.7-4.1-6.2-4.1-10c0-3.8,1.5-7.3,4.1-10
				c5.5-5.5,14.5-5.5,20,0l25,25l55.1-55.1c5.5-5.5,14.5-5.5,20,0c2.7,2.7,4.1,6.2,4.1,10c0,3.8-1.5,7.3-4.1,10L251,415.3
				C248.3,418,244.8,419.5,241,419.5z M205.9,363.2c-1.8,0-3.6,0.7-5,2.1c-1.3,1.3-2.1,3.1-2.1,5c0,1.9,0.7,3.7,2.1,5l35,35
				c2.7,2.7,7.3,2.7,10,0l65.1-65.1c1.3-1.3,2.1-3.1,2.1-5c0-1.9-0.7-3.7-2.1-5c-2.8-2.8-7.2-2.8-10,0l-57.6,57.6
				c-1.4,1.4-3.6,1.4-5,0l-27.5-27.5C209.6,363.9,207.8,363.2,205.9,363.2z"/>
		</g>
	</g>
	<g>
		<g>
			<path class="st1" d="M40.1,121.5H33c-2,0-3.5-1.6-3.5-3.5c0-2,1.6-3.5,3.5-3.5h7.1c2,0,3.5,1.6,3.5,3.5
				C43.6,119.9,42.1,121.5,40.1,121.5z"/>
			<path class="st1" d="M110.9,121.5H54.3c-2,0-3.5-1.6-3.5-3.5c0-2,1.6-3.5,3.5-3.5h56.6c2,0,3.5,1.6,3.5,3.5
				C114.4,119.9,112.8,121.5,110.9,121.5z"/>
		</g>
		<g>
			<path class="st1" d="M153.4,135.7h-7.1c-2,0-3.5-1.6-3.5-3.5s1.6-3.5,3.5-3.5h7.1c2,0,3.5,1.6,3.5,3.5S155.3,135.7,153.4,135.7z"
				/>
			<path class="st1" d="M132.1,135.7H75.5c-2,0-3.5-1.6-3.5-3.5s1.6-3.5,3.5-3.5h56.6c2,0,3.5,1.6,3.5,3.5S134.1,135.7,132.1,135.7z
				"/>
		</g>
	</g>
	<g>
		<g>
			<path class="st1" d="M479,121.5h-7.1c-2,0-3.5-1.6-3.5-3.5c0-2,1.6-3.5,3.5-3.5h7.1c2,0,3.5,1.6,3.5,3.5
				C482.5,119.9,480.9,121.5,479,121.5z"/>
			<path class="st1" d="M457.7,121.5h-56.6c-2,0-3.5-1.6-3.5-3.5c0-2,1.6-3.5,3.5-3.5h56.6c2,0,3.5,1.6,3.5,3.5
				C461.3,119.9,459.7,121.5,457.7,121.5z"/>
		</g>
		<g>
			<path class="st1" d="M365.7,135.7h-7.1c-2,0-3.5-1.6-3.5-3.5s1.6-3.5,3.5-3.5h7.1c2,0,3.5,1.6,3.5,3.5S367.7,135.7,365.7,135.7z"
				/>
			<path class="st1" d="M436.5,135.7h-56.6c-2,0-3.5-1.6-3.5-3.5s1.6-3.5,3.5-3.5h56.6c2,0,3.5,1.6,3.5,3.5S438.5,135.7,436.5,135.7
				z"/>
		</g>
	</g>
	<g>
		<path class="st0" d="M326.8,270.2c-2,0-3.5-1.6-3.5-3.5V96.7c0-1.9-1.6-3.5-3.5-3.5H192.3c-1.9,0-3.5,1.6-3.5,3.5v169.9
			c0,2-1.6,3.5-3.5,3.5s-3.5-1.6-3.5-3.5V96.7c0-5.9,4.8-10.6,10.6-10.6h127.4c5.9,0,10.6,4.8,10.6,10.6v169.9
			C330.3,268.6,328.7,270.2,326.8,270.2z"/>
		<path class="st0" d="M305.6,79c-2,0-3.5-1.6-3.5-3.5v-7.1c0-1.9-1.6-3.5-3.5-3.5h-84.9c-1.9,0-3.5,1.6-3.5,3.5v7.1
			c0,2-1.6,3.5-3.5,3.5s-3.5-1.6-3.5-3.5v-7.1c0-5.9,4.8-10.6,10.6-10.6h84.9c5.9,0,10.6,4.8,10.6,10.6v7.1
			C309.1,77.4,307.5,79,305.6,79z"/>
		<path class="st0" d="M277.2,50.7c-2,0-3.5-1.6-3.5-3.5v-7.1c0-1.9-1.6-3.5-3.5-3.5h-28.3c-1.9,0-3.5,1.6-3.5,3.5v7.1
			c0,2-1.6,3.5-3.5,3.5s-3.5-1.6-3.5-3.5v-7.1c0-5.9,4.8-10.6,10.6-10.6h28.3c5.9,0,10.6,4.8,10.6,10.6v7.1
			C280.8,49.1,279.2,50.7,277.2,50.7z"/>
		<path class="st0" d="M149.8,383.4H79c-5.9,0-10.6-4.8-10.6-10.6V210c0-5.9,4.8-10.6,10.6-10.6h92c2,0,3.5,1.6,3.5,3.5
			s-1.6,3.5-3.5,3.5H79c-1.9,0-3.5,1.6-3.5,3.5v162.8c0,1.9,1.6,3.5,3.5,3.5h70.8c2,0,3.5,1.6,3.5,3.5
			C153.4,381.8,151.8,383.4,149.8,383.4z"/>
		<path class="st0" d="M164,192.3c-2,0-3.5-1.6-3.5-3.5v-7.1c0-1.9-1.6-3.5-3.5-3.5h-56.6c-1.9,0-3.5,1.6-3.5,3.5v7.1
			c0,2-1.6,3.5-3.5,3.5s-3.5-1.6-3.5-3.5v-7.1c0-5.9,4.8-10.6,10.6-10.6h56.6c5.9,0,10.6,4.8,10.6,10.6v7.1
			C167.5,190.7,165.9,192.3,164,192.3z"/>
		<path class="st0" d="M294.9,149.8h-77.9c-5.9,0-10.6-4.8-10.6-10.6V125c0-5.9,4.8-10.6,10.6-10.6h77.9c5.9,0,10.6,4.8,10.6,10.6
			v14.2C305.6,145.1,300.8,149.8,294.9,149.8z M217.1,121.5c-1.9,0-3.5,1.6-3.5,3.5v14.2c0,1.9,1.6,3.5,3.5,3.5h77.9
			c1.9,0,3.5-1.6,3.5-3.5V125c0-1.9-1.6-3.5-3.5-3.5H217.1z"/>
		<path class="st0" d="M294.9,206.4h-77.9c-5.9,0-10.6-4.8-10.6-10.6v-14.2c0-5.9,4.8-10.6,10.6-10.6h77.9c5.9,0,10.6,4.8,10.6,10.6
			v14.2C305.6,201.7,300.8,206.4,294.9,206.4z M217.1,178.1c-1.9,0-3.5,1.6-3.5,3.5v14.2c0,1.9,1.6,3.5,3.5,3.5h77.9
			c1.9,0,3.5-1.6,3.5-3.5v-14.2c0-1.9-1.6-3.5-3.5-3.5H217.1z"/>
		<path class="st0" d="M294.9,263.1h-77.9c-5.9,0-10.6-4.8-10.6-10.6v-14.2c0-5.9,4.8-10.6,10.6-10.6h77.9c5.9,0,10.6,4.8,10.6,10.6
			v14.2C305.6,258.3,300.8,263.1,294.9,263.1z M217.1,234.8c-1.9,0-3.5,1.6-3.5,3.5v14.2c0,1.9,1.6,3.5,3.5,3.5h77.9
			c1.9,0,3.5-1.6,3.5-3.5v-14.2c0-1.9-1.6-3.5-3.5-3.5H217.1z"/>
		<path class="st0" d="M153.4,263.1h-49.6c-5.9,0-10.6-4.8-10.6-10.6v-14.2c0-5.9,4.8-10.6,10.6-10.6h49.6c5.9,0,10.6,4.8,10.6,10.6
			v14.2C164,258.3,159.2,263.1,153.4,263.1z M103.8,234.8c-1.9,0-3.5,1.6-3.5,3.5v14.2c0,1.9,1.6,3.5,3.5,3.5h49.6
			c1.9,0,3.5-1.6,3.5-3.5v-14.2c0-1.9-1.6-3.5-3.5-3.5H103.8z"/>
		<path class="st0" d="M433,383.4h-70.8c-2,0-3.5-1.6-3.5-3.5c0-2,1.6-3.5,3.5-3.5H433c1.9,0,3.5-1.6,3.5-3.5V210
			c0-1.9-1.6-3.5-3.5-3.5h-92c-2,0-3.5-1.6-3.5-3.5s1.6-3.5,3.5-3.5h92c5.9,0,10.6,4.8,10.6,10.6v162.8
			C443.6,378.7,438.8,383.4,433,383.4z"/>
		<path class="st0" d="M418.8,192.3c-2,0-3.5-1.6-3.5-3.5v-7.1c0-1.9-1.6-3.5-3.5-3.5h-56.6c-1.9,0-3.5,1.6-3.5,3.5v7.1
			c0,2-1.6,3.5-3.5,3.5s-3.5-1.6-3.5-3.5v-7.1c0-5.9,4.8-10.6,10.6-10.6h56.6c5.9,0,10.6,4.8,10.6,10.6v7.1
			C422.4,190.7,420.8,192.3,418.8,192.3z"/>
		<path class="st0" d="M411.7,263.1h-56.6c-5.9,0-10.6-4.8-10.6-10.6v-14.2c0-5.9,4.8-10.6,10.6-10.6h56.6c5.9,0,10.6,4.8,10.6,10.6
			v14.2C422.4,258.3,417.6,263.1,411.7,263.1z M355.1,234.8c-1.9,0-3.5,1.6-3.5,3.5v14.2c0,1.9,1.6,3.5,3.5,3.5h56.6
			c1.9,0,3.5-1.6,3.5-3.5v-14.2c0-1.9-1.6-3.5-3.5-3.5H355.1z"/>
		<path class="st0" d="M418.8,362.2c-2,0-3.5-1.6-3.5-3.5v-77.9c0-2,1.6-3.5,3.5-3.5s3.5,1.6,3.5,3.5v77.9
			C422.4,360.6,420.8,362.2,418.8,362.2z"/>
	</g>
</g>
</svg>
