<?xml version="1.0" encoding="utf-8"?>
<!-- Generator: Adobe Illustrator 22.1.0, SVG Export Plug-In . SVG Version: 6.00 Build 0)  -->
<svg version="1.1" id="Layer_1" xmlns="http://www.w3.org/2000/svg" xmlns:xlink="http://www.w3.org/1999/xlink" x="0px" y="0px"
	 viewBox="0 0 512 512" style="enable-background:new 0 0 512 512;" xml:space="preserve">
<style type="text/css">
	.st0{fill:#565656;}
	.st1{fill:#00AEEF;}
</style>
<g>
	<g>
		<path class="st0" d="M425,414.2h-55.2c-2,0-3.6-1.6-3.6-3.6s1.6-3.6,3.6-3.6H425c2,0,3.6,1.6,3.6,3.6S427,414.2,425,414.2z"/>
		<path class="st0" d="M316.1,368.3c-1.8,0-3.4-1.4-3.6-3.2l-11.9-119.5c-0.2-2,1.2-3.7,3.2-3.9c2-0.2,3.7,1.2,3.9,3.2l11.9,119.5
			c0.2,2-1.2,3.7-3.2,3.9C316.3,368.3,316.2,368.3,316.1,368.3z"/>
		<path class="st0" d="M355.3,364.4c-1.8,0-3.4-1.4-3.6-3.2l-11.6-115.5c-0.2-2,1.2-3.7,3.2-3.9c1.9-0.2,3.7,1.2,3.9,3.2l11.6,115.5
			c0.2,2-1.2,3.7-3.2,3.9C355.5,364.3,355.4,364.4,355.3,364.4z"/>
		<path class="st0" d="M425,378.3h-55.2c-2,0-3.6-1.6-3.6-3.6c0-2,1.6-3.6,3.6-3.6H425c2,0,3.6,1.6,3.6,3.6
			C428.6,376.7,427,378.3,425,378.3z"/>
		<path class="st0" d="M468.1,464.6h-28.8c-9.9,0-18-8.1-18-18V338.7c0-9.9,8.1-18,18-18h28.8c9.9,0,18,8.1,18,18v107.9
			C486.1,456.5,478.1,464.6,468.1,464.6z M439.4,327.9c-5.9,0-10.8,4.8-10.8,10.8v107.9c0,5.9,4.8,10.8,10.8,10.8h28.8
			c5.9,0,10.8-4.8,10.8-10.8V338.7c0-5.9-4.8-10.8-10.8-10.8H439.4z"/>
		<path class="st0" d="M460.9,169.7H204.1c-7,0-13.5-4.1-16.4-10.5l-22.9-50.3c-2.5-5.6-2.1-12,1.3-17.2c3.3-5.2,9-8.2,15.1-8.2
			h279.8c9.9,0,18,8.1,18,18v50.3C478.9,161.6,470.9,169.7,460.9,169.7z M181.2,90.6c-3.7,0-7,1.8-9.1,4.9c-2,3.1-2.3,6.9-0.8,10.3
			l22.9,50.3c1.7,3.8,5.6,6.3,9.8,6.3h256.9c5.9,0,10.8-4.8,10.8-10.8v-50.3c0-5.9-4.8-10.8-10.8-10.8H181.2z"/>
		<path class="st0" d="M180.4,191.3h-21.6c-5.9,0-10.8-4.8-10.8-10.8v-43.2c0-5.9,4.8-10.8,10.8-10.8h19.6c2,0,3.6,1.6,3.6,3.6
			c0,2-1.6,3.6-3.6,3.6h-19.6c-2,0-3.6,1.6-3.6,3.6v43.2c0,2,1.6,3.6,3.6,3.6h21.6c2,0,3.6-1.6,3.6-3.6c0-2,1.6-3.6,3.6-3.6
			c2,0,3.6,1.6,3.6,3.6C191.2,186.4,186.4,191.3,180.4,191.3z"/>
		<path class="st0" d="M446.6,234.4H202c-9.9,0-18-8.1-18-18v-66.2c0-2,1.6-3.6,3.6-3.6c2,0,3.6,1.6,3.6,3.6v66.2
			c0,5.9,4.8,10.8,10.8,10.8h244.6c5.9,0,10.8-4.8,10.8-10.8v-50.3c0-2,1.6-3.6,3.6-3.6c2,0,3.6,1.6,3.6,3.6v50.3
			C464.5,226.4,456.5,234.4,446.6,234.4z"/>
		<path class="st0" d="M453.8,148.1c-2,0-3.6-1.6-3.6-3.6v-36c0-2,1.6-3.6,3.6-3.6s3.6,1.6,3.6,3.6v36
			C457.4,146.5,455.7,148.1,453.8,148.1z"/>
		<path class="st0" d="M338.7,432.2c-21.8,0-39.6-17.8-39.6-39.6c0-21.8,17.8-39.6,39.6-39.6c21.8,0,39.6,17.8,39.6,39.6
			C378.2,414.5,360.5,432.2,338.7,432.2z M338.7,360.3c-17.8,0-32.4,14.5-32.4,32.4c0,17.8,14.5,32.4,32.4,32.4
			c17.8,0,32.4-14.5,32.4-32.4C371,374.8,356.5,360.3,338.7,360.3z"/>
		<path class="st1" d="M102.3,67.1c-0.8,0-1.6-0.3-2.2-0.8c-1.5-1.2-1.8-3.5-0.6-5.1c3.6-4.5,7.5-8.8,11.5-12.8
			c1.4-1.4,3.7-1.4,5.1,0c1.4,1.4,1.4,3.7,0,5.1c-3.9,3.9-7.6,8-11,12.3C104.4,66.7,103.4,67.1,102.3,67.1z"/>
		<g>
			<path class="st1" d="M195.6,277.6h-7.2c-2,0-3.6-1.6-3.6-3.6c0-2,1.6-3.6,3.6-3.6h7.2c2,0,3.6,1.6,3.6,3.6
				C199.2,276,197.5,277.6,195.6,277.6z"/>
			<path class="st1" d="M256.7,277.6h-46.8c-2,0-3.6-1.6-3.6-3.6c0-2,1.6-3.6,3.6-3.6h46.8c2,0,3.6,1.6,3.6,3.6
				C260.3,276,258.7,277.6,256.7,277.6z"/>
		</g>
		<g>
			<path class="st1" d="M446.6,54.6h-7.2c-2,0-3.6-1.6-3.6-3.6c0-2,1.6-3.6,3.6-3.6h7.2c2,0,3.6,1.6,3.6,3.6
				C450.2,53,448.5,54.6,446.6,54.6z"/>
			<path class="st1" d="M425,54.6h-61.1c-2,0-3.6-1.6-3.6-3.6c0-2,1.6-3.6,3.6-3.6H425c2,0,3.6,1.6,3.6,3.6
				C428.6,53,427,54.6,425,54.6z"/>
		</g>
	</g>
	<g>
		<path class="st0" d="M64.5,263.2c-0.1,0-0.1,0-0.2,0c-1-0.1-1.9-0.5-2.5-1.3c-47.8-56.8-47.8-149.2,0-206c0.6-0.8,1.5-1.2,2.5-1.3
			c1,0,1.9,0.3,2.7,1l72.8,67.4c1.5,1.3,1.5,3.6,0.2,5.1c-1.4,1.5-3.6,1.5-5.1,0.2l-70-64.8c-42.5,53.5-42.5,137.5,0,190.9l70-64.8
			c1.5-1.3,3.7-1.3,5.1,0.2c1.3,1.5,1.3,3.7-0.2,5.1l-72.8,67.4C66.3,262.9,65.4,263.2,64.5,263.2z"/>
	</g>
	<path class="st1" d="M113.6,270.4c-0.9,0-1.8-0.4-2.5-1.1C59.7,218,50.7,136.4,89.5,75.2c1.1-1.7,3.3-2.2,5-1.1
		c1.7,1.1,2.2,3.3,1.1,5c-37.1,58.3-28.5,136.2,20.5,185.2c1.4,1.4,1.4,3.7,0,5.1C115.4,270,114.5,270.4,113.6,270.4z"/>
</g>
</svg>
