<?xml version="1.0" encoding="utf-8"?>
<!-- Generator: Adobe Illustrator 22.1.0, SVG Export Plug-In . SVG Version: 6.00 Build 0)  -->
<svg version="1.1" id="Layer_1" xmlns="http://www.w3.org/2000/svg" xmlns:xlink="http://www.w3.org/1999/xlink" x="0px" y="0px"
	 viewBox="0 0 512 512" style="enable-background:new 0 0 512 512;" xml:space="preserve">
<style type="text/css">
	.st0{fill:#565656;}
	.st1{fill:#00AEEF;}
</style>
<g>
	<g>
		<path class="st0" d="M247.8,440.6H108.3c-13.6,0-24.6-11-24.6-24.6V276.5c0-13.6,11-24.6,24.6-24.6h139.5
			c13.6,0,24.6,11,24.6,24.6V416C272.4,429.6,261.4,440.6,247.8,440.6z M108.3,260.1c-9,0-16.4,7.4-16.4,16.4V416
			c0,9,7.4,16.4,16.4,16.4h139.5c9,0,16.4-7.4,16.4-16.4V276.5c0-9-7.4-16.4-16.4-16.4H108.3z"/>
		<g>
			<path class="st0" d="M210.9,391.4h-65.6c-6.8,0-12.3-5.5-12.3-12.3v-65.6c0-6.8,5.5-12.3,12.3-12.3h65.6
				c6.8,0,12.3,5.5,12.3,12.3v65.6C223.2,385.8,217.7,391.4,210.9,391.4z M145.2,309.3c-2.3,0-4.1,1.8-4.1,4.1v65.6
				c0,2.3,1.8,4.1,4.1,4.1h65.6c2.3,0,4.1-1.8,4.1-4.1v-65.6c0-2.3-1.8-4.1-4.1-4.1H145.2z"/>
			<path class="st0" d="M202.7,292.9c-2.3,0-4.1-1.8-4.1-4.1v-12.3c0-2.3,1.8-4.1,4.1-4.1c2.3,0,4.1,1.8,4.1,4.1v12.3
				C206.8,291.1,204.9,292.9,202.7,292.9z"/>
			<path class="st0" d="M178.1,292.9c-2.3,0-4.1-1.8-4.1-4.1v-12.3c0-2.3,1.8-4.1,4.1-4.1s4.1,1.8,4.1,4.1v12.3
				C182.2,291.1,180.3,292.9,178.1,292.9z"/>
			<path class="st0" d="M153.4,292.9c-2.3,0-4.1-1.8-4.1-4.1v-12.3c0-2.3,1.8-4.1,4.1-4.1s4.1,1.8,4.1,4.1v12.3
				C157.6,291.1,155.7,292.9,153.4,292.9z"/>
			<path class="st0" d="M202.7,420.1c-2.3,0-4.1-1.8-4.1-4.1v-12.3c0-2.3,1.8-4.1,4.1-4.1c2.3,0,4.1,1.8,4.1,4.1V416
				C206.8,418.2,204.9,420.1,202.7,420.1z"/>
			<path class="st0" d="M178.1,420.1c-2.3,0-4.1-1.8-4.1-4.1v-12.3c0-2.3,1.8-4.1,4.1-4.1s4.1,1.8,4.1,4.1V416
				C182.2,418.2,180.3,420.1,178.1,420.1z"/>
			<path class="st0" d="M153.4,420.1c-2.3,0-4.1-1.8-4.1-4.1v-12.3c0-2.3,1.8-4.1,4.1-4.1s4.1,1.8,4.1,4.1V416
				C157.6,418.2,155.7,420.1,153.4,420.1z"/>
			<path class="st0" d="M120.6,325.7h-12.3c-2.3,0-4.1-1.8-4.1-4.1c0-2.3,1.8-4.1,4.1-4.1h12.3c2.3,0,4.1,1.8,4.1,4.1
				C124.7,323.9,122.9,325.7,120.6,325.7z"/>
			<path class="st0" d="M120.6,350.3h-12.3c-2.3,0-4.1-1.8-4.1-4.1c0-2.3,1.8-4.1,4.1-4.1h12.3c2.3,0,4.1,1.8,4.1,4.1
				C124.7,348.5,122.9,350.3,120.6,350.3z"/>
			<path class="st0" d="M120.6,375h-12.3c-2.3,0-4.1-1.8-4.1-4.1c0-2.3,1.8-4.1,4.1-4.1h12.3c2.3,0,4.1,1.8,4.1,4.1
				C124.7,373.1,122.9,375,120.6,375z"/>
			<path class="st0" d="M247.8,325.7h-12.3c-2.3,0-4.1-1.8-4.1-4.1c0-2.3,1.8-4.1,4.1-4.1h12.3c2.3,0,4.1,1.8,4.1,4.1
				C251.9,323.9,250.1,325.7,247.8,325.7z"/>
			<path class="st0" d="M247.8,350.3h-12.3c-2.3,0-4.1-1.8-4.1-4.1c0-2.3,1.8-4.1,4.1-4.1h12.3c2.3,0,4.1,1.8,4.1,4.1
				C251.9,348.5,250.1,350.3,247.8,350.3z"/>
			<path class="st0" d="M247.8,375h-12.3c-2.3,0-4.1-1.8-4.1-4.1c0-2.3,1.8-4.1,4.1-4.1h12.3c2.3,0,4.1,1.8,4.1,4.1
				C251.9,373.1,250.1,375,247.8,375z"/>
		</g>
	</g>
	<g>
		<g>
			<path class="st1" d="M202.7,489.1h-8.2c-2.3,0-4.1-1.8-4.1-4.1c0-2.3,1.8-4.1,4.1-4.1h8.2c2.3,0,4.1,1.8,4.1,4.1
				C206.8,487.3,204.9,489.1,202.7,489.1z"/>
			<path class="st1" d="M178.1,489.1H96c-2.3,0-4.1-1.8-4.1-4.1c0-2.3,1.8-4.1,4.1-4.1h82c2.3,0,4.1,1.8,4.1,4.1
				C182.2,487.3,180.3,489.1,178.1,489.1z"/>
		</g>
		<g>
			<path class="st1" d="M63.2,472.7H55c-2.3,0-4.1-1.8-4.1-4.1c0-2.3,1.8-4.1,4.1-4.1h8.2c2.3,0,4.1,1.8,4.1,4.1
				C67.3,470.9,65.5,472.7,63.2,472.7z"/>
			<path class="st1" d="M161.7,472.7h-82c-2.3,0-4.1-1.8-4.1-4.1c0-2.3,1.8-4.1,4.1-4.1h82c2.3,0,4.1,1.8,4.1,4.1
				C165.8,470.9,163.9,472.7,161.7,472.7z"/>
		</g>
	</g>
	<g>
		<g>
			<path class="st0" d="M448.8,489.8H251.9c-20.4,0-36.9-16.6-36.9-36.9c0-2.3,1.8-4.1,4.1-4.1c2.3,0,4.1,1.8,4.1,4.1
				c0,15.8,12.9,28.7,28.7,28.7h196.9c15.8,0,28.7-12.9,28.7-28.7V67.3c0-20.4-16.6-36.9-36.9-36.9H260.1
				c-20.4,0-36.9,16.6-36.9,36.9v172.3c0,2.3-1.8,4.1-4.1,4.1c-2.3,0-4.1-1.8-4.1-4.1V67.3c0-24.9,20.2-45.1,45.1-45.1h180.5
				c24.9,0,45.1,20.2,45.1,45.1v385.6C485.7,473.3,469.2,489.8,448.8,489.8z"/>
		</g>
		<path class="st0" d="M448.8,129.5H251.9c-6.8,0-12.3-5.5-12.3-12.3V84.4c0-6.8,5.5-12.3,12.3-12.3h196.9c6.8,0,12.3,5.5,12.3,12.3
			v32.8C461.1,124,455.6,129.5,448.8,129.5z M251.9,80.3c-2.3,0-4.1,1.8-4.1,4.1v32.8c0,2.3,1.8,4.1,4.1,4.1h196.9
			c2.3,0,4.1-1.8,4.1-4.1V84.4c0-2.3-1.8-4.1-4.1-4.1H251.9z"/>
		<path class="st0" d="M448.8,228H251.9c-6.8,0-12.3-5.5-12.3-12.3v-32.8c0-6.8,5.5-12.3,12.3-12.3h196.9c6.8,0,12.3,5.5,12.3,12.3
			v32.8C461.1,222.4,455.6,228,448.8,228z M251.9,178.7c-2.3,0-4.1,1.8-4.1,4.1v32.8c0,2.3,1.8,4.1,4.1,4.1h196.9
			c2.3,0,4.1-1.8,4.1-4.1v-32.8c0-2.3-1.8-4.1-4.1-4.1H251.9z"/>
		<path class="st0" d="M350.3,367.4c-24.9,0-45.1-20.2-45.1-45.1s20.2-45.1,45.1-45.1c24.9,0,45.1,20.2,45.1,45.1
			S375.2,367.4,350.3,367.4z M350.3,285.4c-20.4,0-36.9,16.6-36.9,36.9s16.6,36.9,36.9,36.9c20.4,0,36.9-16.6,36.9-36.9
			S370.7,285.4,350.3,285.4z"/>
		<path class="st1" d="M350.3,342.8c-11.3,0-20.5-9.2-20.5-20.5s9.2-20.5,20.5-20.5c11.3,0,20.5,9.2,20.5,20.5
			S361.7,342.8,350.3,342.8z M350.3,310c-6.8,0-12.3,5.5-12.3,12.3c0,6.8,5.5,12.3,12.3,12.3c6.8,0,12.3-5.5,12.3-12.3
			C362.7,315.5,357.1,310,350.3,310z"/>
		<path class="st1" d="M350.3,326.4c-2.3,0-4.1-1.8-4.1-4.1v-24.6c0-2.3,1.8-4.1,4.1-4.1c2.3,0,4.1,1.8,4.1,4.1v24.6
			C354.4,324.6,352.6,326.4,350.3,326.4z"/>
		<path class="st0" d="M457,465.2c-2.3,0-4.1-1.8-4.1-4.1V248.5c0-2.3,1.8-4.1,4.1-4.1c2.3,0,4.1,1.8,4.1,4.1v212.6
			C461.1,463.4,459.3,465.2,457,465.2z"/>
	</g>
	<g>
		<g>
			<path class="st1" d="M120.6,201H87.8c-2.3,0-4.1-1.8-4.1-4.1s1.8-4.1,4.1-4.1h32.8c2.3,0,4.1,1.8,4.1,4.1S122.9,201,120.6,201z"
				/>
			<path class="st1" d="M104.2,217.4c-2.3,0-4.1-1.8-4.1-4.1v-32.8c0-2.3,1.8-4.1,4.1-4.1s4.1,1.8,4.1,4.1v32.8
				C108.3,215.5,106.5,217.4,104.2,217.4z"/>
		</g>
		<g>
			<path class="st1" d="M63.2,254.3H30.4c-2.3,0-4.1-1.8-4.1-4.1s1.8-4.1,4.1-4.1h32.8c2.3,0,4.1,1.8,4.1,4.1S65.5,254.3,63.2,254.3
				z"/>
			<path class="st1" d="M46.8,270.7c-2.3,0-4.1-1.8-4.1-4.1v-32.8c0-2.3,1.8-4.1,4.1-4.1c2.3,0,4.1,1.8,4.1,4.1v32.8
				C50.9,268.9,49.1,270.7,46.8,270.7z"/>
		</g>
	</g>
</g>
</svg>
