<?xml version="1.0" encoding="utf-8"?>
<!-- Generator: Adobe Illustrator 22.1.0, SVG Export Plug-In . SVG Version: 6.00 Build 0)  -->
<svg version="1.1" id="Layer_1" xmlns="http://www.w3.org/2000/svg" xmlns:xlink="http://www.w3.org/1999/xlink" x="0px" y="0px"
	 viewBox="0 0 512 512" style="enable-background:new 0 0 512 512;" xml:space="preserve">
<style type="text/css">
	.st0{fill:#00AEEF;}
	.st1{fill:#565656;}
</style>
<g>
	<g>
		<path class="st0" d="M405,485.3c-44.3,0-80.2-36-80.2-80.2s36-80.2,80.2-80.2s80.2,36,80.2,80.2S449.3,485.3,405,485.3z
			 M405,332.4c-40,0-72.6,32.6-72.6,72.6s32.6,72.6,72.6,72.6s72.6-32.6,72.6-72.6S445.1,332.4,405,332.4z"/>
		<path class="st0" d="M389.8,441.4c-2,0-3.9-0.5-5.7-1.5c-3.6-2.1-5.8-5.8-5.8-10v-49.7c0-4.2,2.2-7.9,5.8-9.9
			c3.6-2.1,7.9-2,11.5,0.1l42.3,24.8l0,0c3.5,2.1,5.6,5.8,5.6,9.9c0,4.1-2.1,7.8-5.6,9.9l-42.3,24.9
			C393.7,440.8,391.7,441.4,389.8,441.4z M389.8,376.3c-0.9,0-1.6,0.3-1.9,0.5c-0.6,0.3-1.9,1.3-1.9,3.3v49.7c0,2,1.4,3,1.9,3.3
			c0.6,0.3,2.1,1,3.8,0l42.3-24.9c1.7-1,1.9-2.6,1.9-3.3c0-0.6-0.2-2.3-1.9-3.3l-42.3-24.8C391,376.5,390.3,376.3,389.8,376.3z"/>
	</g>
	<g>
		<g>
			<path class="st0" d="M244.5,462.4c-120.1,0-217.8-97.7-217.8-217.8c0-2.1,1.7-3.8,3.8-3.8s3.8,1.7,3.8,3.8
				c0,115.9,94.3,210.2,210.2,210.2c2.1,0,3.8,1.7,3.8,3.8C248.4,460.6,246.6,462.4,244.5,462.4z"/>
			<path class="st0" d="M30.5,233.1c-2.1,0-3.8-1.7-3.8-3.8v-7.6c0-2.1,1.7-3.8,3.8-3.8s3.8,1.7,3.8,3.8v7.6
				C34.4,231.4,32.7,233.1,30.5,233.1z"/>
		</g>
		<g>
			<path class="st0" d="M458.5,248.4c-2.1,0-3.8-1.7-3.8-3.8c0-115.9-94.3-210.2-210.2-210.2c-2.1,0-3.8-1.7-3.8-3.8
				s1.7-3.8,3.8-3.8c120.1,0,217.8,97.7,217.8,217.8C462.4,246.6,460.6,248.4,458.5,248.4z"/>
			<path class="st0" d="M458.5,271.3c-2.1,0-3.8-1.7-3.8-3.8v-7.6c0-2.1,1.7-3.8,3.8-3.8c2.1,0,3.8,1.7,3.8,3.8v7.6
				C462.4,269.6,460.6,271.3,458.5,271.3z"/>
		</g>
	</g>
	<g>
		<path class="st1" d="M244.5,294.2c-27.4,0-49.7-22.3-49.7-49.7c0-27.4,22.3-49.7,49.7-49.7c27.4,0,49.7,22.3,49.7,49.7
			C294.2,271.9,271.9,294.2,244.5,294.2z M244.5,202.5c-23.2,0-42,18.9-42,42s18.9,42,42,42s42-18.9,42-42S267.7,202.5,244.5,202.5z
			"/>
		<path class="st1" d="M351.5,248.4c-2.1,0-3.8-1.7-3.8-3.8c0-56.9-46.3-103.2-103.2-103.2c-2.1,0-3.8-1.7-3.8-3.8s1.7-3.8,3.8-3.8
			c61.1,0,110.8,49.7,110.8,110.8C355.4,246.6,353.6,248.4,351.5,248.4z"/>
		<path class="st1" d="M255.9,408.9h-22.7c-10.7,0-20.2-7.6-22.4-18.1l-3-13.8c-10.8-3-21.2-7.3-31-12.8l-11.9,7.6
			c-9,5.8-21.1,4.5-28.6-3.1l-16-16c-7.6-7.6-8.9-19.6-3.1-28.6l7.6-11.9c-5.6-9.8-9.9-20.2-12.8-31l-13.8-3
			c-10.5-2.3-18.1-11.7-18.1-22.4v-22.7c0-10.7,7.6-20.2,18.1-22.4l13.8-3c3-10.8,7.3-21.2,12.8-31l-7.6-11.8
			c-5.8-9-4.5-21.1,3.1-28.6l16-16c7.6-7.6,19.6-8.9,28.6-3.1l11.9,7.6c9.8-5.5,20.2-9.9,31-12.8l3-13.8
			c2.3-10.5,11.7-18.1,22.4-18.1h22.7c10.7,0,20.2,7.6,22.4,18.1l3,13.8c10.8,3,21.2,7.3,31,12.8l11.9-7.6c9-5.8,21-4.5,28.6,3.1
			l16,16c7.6,7.6,8.9,19.6,3.1,28.6l-7.6,11.9c5.5,9.8,9.9,20.2,12.8,31l13.8,3c10.5,2.3,18.1,11.7,18.1,22.4v22.7
			c0,10.7-7.6,20.2-18.1,22.4l-13.8,3c-3.2,11.5-7.9,22.7-14,33.1c-1.1,1.8-3.4,2.4-5.2,1.4c-1.8-1.1-2.4-3.4-1.4-5.2
			c6.2-10.5,10.8-21.7,13.8-33.4c0.4-1.7,2-2.9,3.7-2.9l15.2-3.3c7-1.5,12.1-7.8,12.1-14.9v-22.7c0-7.2-5.1-13.4-12.1-14.9
			l-15.8-3.4c-1.5-0.3-2.8-1.4-3.1-2.8c-3-11.7-7.7-22.9-13.8-33.4c-0.9-1.5-0.7-3.3,0.5-4.5l8.5-13.3c3.9-6,3-14-2-19.1l-16-16
			c-5.1-5.1-13.1-5.9-19.1-2l-13.6,8.8c-1.2,0.9-2.9,1-4.2,0.2c-10.4-6.2-21.7-10.8-33.4-13.8c-1.7-0.4-2.9-2-2.9-3.7l-3.3-15.2
			c-1.5-7-7.8-12.1-14.9-12.1h-22.7c-7.2,0-13.4,5.1-14.9,12.1l-3.4,15.8c-0.3,1.5-1.4,2.8-2.8,3.1c-11.7,3-23,7.7-33.4,13.8
			c-1.5,0.9-3.4,0.6-4.6-0.6l-13.2-8.4c-6-3.9-14-3-19.1,2l-16,16c-5.1,5.1-5.9,13.1-2,19.1l8.8,13.7c1.2,1.2,1,2.7,0.2,4.1
			c-6.2,10.5-10.8,21.7-13.8,33.4c-0.4,1.7-2,2.9-3.7,2.9l-15.2,3.3c-7,1.5-12.1,7.8-12.1,14.9v22.7c0,7.2,5.1,13.4,12.1,14.9
			l15.8,3.4c1.5,0.3,2.8,1.4,3.1,2.8c3,11.7,7.7,22.9,13.8,33.4c0.9,1.5,0.6,3.4-0.6,4.6l-8.4,13.2c-3.9,6-3,14,2,19.1l16,16
			c5.1,5.1,13.1,5.9,19.1,2l13.6-8.8c1.2-0.9,2.9-1,4.2-0.2c10.5,6.2,21.7,10.8,33.4,13.8c1.7,0.4,2.9,2,2.9,3.7l3.3,15.2
			c1.5,7,7.8,12.1,14.9,12.1h22.7c7.2,0,13.4-5.1,14.9-12.1l3.4-15.8c0.3-1.5,1.4-2.8,2.8-3.1c11.7-3,22.9-7.7,33.4-13.8
			c1.8-1.1,4.2-0.5,5.2,1.4c1.1,1.8,0.5,4.2-1.4,5.2c-10.4,6.1-21.5,10.9-33.1,14l-3,13.8C276,401.2,266.6,408.9,255.9,408.9z
			 M244.5,324.8c-44.3,0-80.2-36-80.2-80.2s36-80.2,80.2-80.2s80.2,36,80.2,80.2S288.8,324.8,244.5,324.8z M244.5,171.9
			c-40,0-72.6,32.6-72.6,72.6s32.6,72.6,72.6,72.6s72.6-32.6,72.6-72.6S284.6,171.9,244.5,171.9z"/>
	</g>
</g>
</svg>
