<?xml version="1.0" encoding="utf-8"?>
<!-- Generator: Adobe Illustrator 22.1.0, SVG Export Plug-In . SVG Version: 6.00 Build 0)  -->
<svg version="1.1" id="Layer_1" xmlns="http://www.w3.org/2000/svg" xmlns:xlink="http://www.w3.org/1999/xlink" x="0px" y="0px"
	 viewBox="0 0 512 512" style="enable-background:new 0 0 512 512;" xml:space="preserve">
<style type="text/css">
	.st0{fill:#565656;}
	.st1{fill:#00AEEF;}
</style>
<g>
	<g>
		<g>
			<path class="st0" d="M256,424.3c-78.7,0-142.7-64-142.7-142.7c0-43.5,19.5-84.1,53.5-111.3c11-8.8,27.2-7,36,4
				c8.8,11,7,27.2-4,36c-21.8,17.5-34.3,43.5-34.3,71.4c0,50.4,41,91.5,91.5,91.5s91.5-41,91.5-91.5c0-27.9-12.5-53.9-34.3-71.4
				c-11-8.8-12.8-25-4-36c4.3-5.3,10.4-8.7,17.2-9.4c6.8-0.7,13.5,1.2,18.8,5.5c34,27.2,53.5,67.8,53.5,111.4
				C398.7,360.3,334.7,424.3,256,424.3z M182.8,172c-4,0-8.1,1.3-11.4,4c-32.2,25.9-50.7,64.4-50.7,105.6
				c0,74.6,60.7,135.3,135.4,135.3s135.3-60.7,135.3-135.3c0-41.3-18.5-79.8-50.7-105.6c-3.8-3.1-8.6-4.4-13.4-3.9
				c-4.9,0.5-9.2,2.9-12.3,6.7c-6.3,7.9-5,19.4,2.8,25.7c23.5,18.9,37,47,37,77.1c0,54.5-44.3,98.8-98.8,98.8s-98.8-44.3-98.8-98.8
				c0-30.1,13.5-58.2,37-77.1c7.9-6.3,9.1-17.8,2.8-25.7C193.5,174.3,188.2,172,182.8,172z"/>
		</g>
		<path class="st0" d="M256,277.9c-14.1,0-25.6-11.5-25.6-25.6V135.3c0-14.1,11.5-25.6,25.6-25.6s25.6,11.5,25.6,25.6v117.1
			C281.6,266.5,270.1,277.9,256,277.9z M256,117c-10.1,0-18.3,8.2-18.3,18.3v117.1c0,10.1,8.2,18.3,18.3,18.3
			c10.1,0,18.3-8.2,18.3-18.3V135.3C274.3,125.2,266.1,117,256,117z"/>
	</g>
	<g>
		<g>
			<path class="st1" d="M423.6,149.9h-36.6c-2,0-3.7-1.6-3.7-3.7v-2.2c0-6.4-2.7-13-7.7-18.4c-8.8-9.5-12.3-22.3-9.8-35.2
				c3.1-15.4,15.4-28,30.8-31.2c12.1-2.6,24.6,0.4,34,8.1c9.5,7.7,14.9,19.1,14.9,31.3c0,10-3.7,19.5-10.5,26.9
				c-3.6,3.9-7.8,10.2-7.8,18.5v2.2C427.3,148.3,425.7,149.9,423.6,149.9z M390.7,142.6H420c0.4-7.8,3.7-15.4,9.7-21.9
				c5.5-6,8.6-13.9,8.6-22c0-10-4.4-19.3-12.2-25.6c-7.7-6.3-17.9-8.7-27.9-6.6c-12.5,2.6-22.6,12.8-25.1,25.4
				c-2.1,10.5,0.8,21,8,28.8C386.9,127.1,390.3,134.8,390.7,142.6z"/>
			<path class="st0" d="M405.4,186.5c-12.1,0-21.9-9.8-21.9-21.9v-18.3c0-2,1.6-3.7,3.7-3.7h36.6c2,0,3.7,1.6,3.7,3.7v18.3
				C427.3,176.7,417.5,186.5,405.4,186.5z M390.7,149.9v14.6c0,8.1,6.6,14.6,14.6,14.6s14.6-6.6,14.6-14.6v-14.6H390.7z"/>
			<path class="st0" d="M423.6,168.2h-36.6c-2,0-3.7-1.6-3.7-3.7s1.6-3.7,3.7-3.7h36.6c2,0,3.7,1.6,3.7,3.7S425.7,168.2,423.6,168.2
				z"/>
		</g>
		<path class="st1" d="M405.4,43.8c-2,0-3.7-1.6-3.7-3.7V25.5c0-2,1.6-3.7,3.7-3.7c2,0,3.7,1.6,3.7,3.7v14.6
			C409,42.2,407.4,43.8,405.4,43.8z"/>
		<path class="st1" d="M368.8,56.3c-0.9,0-1.9-0.4-2.6-1.1l-10.3-10.3c-1.4-1.4-1.4-3.7,0-5.2c1.4-1.4,3.7-1.4,5.2,0l10.3,10.3
			c1.4,1.4,1.4,3.7,0,5.2C370.6,56,369.7,56.3,368.8,56.3z"/>
		<path class="st1" d="M441.9,56.3c-0.9,0-1.9-0.4-2.6-1.1c-1.4-1.4-1.4-3.7,0-5.2l10.3-10.3c1.4-1.4,3.7-1.4,5.2,0
			c1.4,1.4,1.4,3.7,0,5.2l-10.3,10.3C443.8,56,442.9,56.3,441.9,56.3z"/>
	</g>
	<g>
		<g>
			<path class="st1" d="M51.1,285.3c-2,0-3.7-1.6-3.7-3.7c0-115,93.5-208.5,208.5-208.5c2,0,3.7,1.6,3.7,3.7c0,2-1.6,3.7-3.7,3.7
				c-110.9,0-201.2,90.3-201.2,201.2C54.8,283.6,53.2,285.3,51.1,285.3z"/>
			<path class="st1" d="M277.9,80.4h-7.3c-2,0-3.7-1.6-3.7-3.7c0-2,1.6-3.7,3.7-3.7h7.3c2,0,3.7,1.6,3.7,3.7
				C281.6,78.8,280,80.4,277.9,80.4z"/>
		</g>
		<g>
			<path class="st1" d="M256,490.1c-2,0-3.7-1.6-3.7-3.7c0-2,1.6-3.7,3.7-3.7c110.9,0,201.2-90.3,201.2-201.2c0-2,1.6-3.7,3.7-3.7
				c2,0,3.7,1.6,3.7,3.7C464.5,396.6,371,490.1,256,490.1z"/>
			<path class="st1" d="M241.4,490.1h-7.3c-2,0-3.7-1.6-3.7-3.7c0-2,1.6-3.7,3.7-3.7h7.3c2,0,3.7,1.6,3.7,3.7
				C245,488.5,243.4,490.1,241.4,490.1z"/>
		</g>
	</g>
	<g>
		<g>
			<path class="st1" d="M95,394.3H65.8c-2,0-3.7-1.6-3.7-3.7s1.6-3.7,3.7-3.7H95c2,0,3.7,1.6,3.7,3.7S97.1,394.3,95,394.3z"/>
			<path class="st1" d="M80.4,408.9c-2,0-3.7-1.6-3.7-3.7V376c0-2,1.6-3.7,3.7-3.7c2,0,3.7,1.6,3.7,3.7v29.3
				C84.1,407.3,82.4,408.9,80.4,408.9z"/>
		</g>
		<g>
			<path class="st1" d="M146.3,441.8H117c-2,0-3.7-1.6-3.7-3.7s1.6-3.7,3.7-3.7h29.3c2,0,3.7,1.6,3.7,3.7S148.3,441.8,146.3,441.8z"
				/>
			<path class="st1" d="M131.6,456.4c-2,0-3.7-1.6-3.7-3.7v-29.3c0-2,1.6-3.7,3.7-3.7c2,0,3.7,1.6,3.7,3.7v29.3
				C135.3,454.8,133.6,456.4,131.6,456.4z"/>
		</g>
	</g>
</g>
</svg>
