<?xml version="1.0" encoding="utf-8"?>
<!-- Generator: Adobe Illustrator 22.1.0, SVG Export Plug-In . SVG Version: 6.00 Build 0)  -->
<svg version="1.1" id="Layer_1" xmlns="http://www.w3.org/2000/svg" xmlns:xlink="http://www.w3.org/1999/xlink" x="0px" y="0px"
	 viewBox="0 0 512 512" style="enable-background:new 0 0 512 512;" xml:space="preserve">
<style type="text/css">
	.st0{fill:#00AEEF;}
	.st1{fill:#565656;}
</style>
<g>
	<path class="st0" d="M374.5,208.6c-0.6,0-1.2-0.2-1.8-0.5c-1.3-0.8-1.9-2.5-1.4-4l25.6-76.8H361c-1.4,0-2.6-0.8-3.1-2.1
		s-0.2-2.7,0.7-3.7l81.3-81.3c1.1-1.1,2.9-1.3,4.2-0.5c1.3,0.8,1.9,2.5,1.4,4l-25.6,76.8h35.9c1.4,0,2.6,0.8,3.1,2.1
		c0.5,1.3,0.2,2.7-0.7,3.7l-81.3,81.3C376.3,208.3,375.4,208.6,374.5,208.6z M369.1,120.5h32.5c1.1,0,2.1,0.5,2.7,1.4
		c0.6,0.9,0.8,2,0.5,3.1l-22.6,67.7l65.3-65.3h-32.5c-1.1,0-2.1-0.5-2.7-1.4c-0.6-0.9-0.8-2-0.5-3.1l22.6-67.7L369.1,120.5z"/>
	<g>
		<path class="st1" d="M262.8,337.3h-33.9c-29.9,0-54.2-24.3-54.2-54.2v-57.6c0-1.9,1.5-3.4,3.4-3.4h135.5c1.9,0,3.4,1.5,3.4,3.4
			v57.6C317,313,292.6,337.3,262.8,337.3z M181.5,228.9v54.2c0,26.1,21.3,47.4,47.4,47.4h33.9c26.1,0,47.4-21.3,47.4-47.4v-54.2
			H181.5z"/>
		<path class="st1" d="M293.2,262.8c-1.9,0-3.4-1.5-3.4-3.4v-10.2h-10.2c-1.9,0-3.4-1.5-3.4-3.4c0-1.9,1.5-3.4,3.4-3.4h13.5
			c1.9,0,3.4,1.5,3.4,3.4v13.5C296.6,261.3,295.1,262.8,293.2,262.8z"/>
		<path class="st1" d="M256,432.1c-1.9,0-3.4-1.5-3.4-3.4v-71.1h-13.5v71.1c0,1.9-1.5,3.4-3.4,3.4c-1.9,0-3.4-1.5-3.4-3.4v-74.5
			c0-1.9,1.5-3.4,3.4-3.4H256c1.9,0,3.4,1.5,3.4,3.4v74.5C259.4,430.6,257.9,432.1,256,432.1z"/>
		<path class="st1" d="M212,201.8h-27.1c-1.9,0-3.4-1.5-3.4-3.4v-54.2c0-9.3,7.6-16.9,16.9-16.9s16.9,7.6,16.9,16.9v54.2
			C215.4,200.3,213.9,201.8,212,201.8z M188.3,195h20.3v-50.8c0-5.6-4.6-10.2-10.2-10.2c-5.6,0-10.2,4.6-10.2,10.2V195z"/>
		<path class="st1" d="M306.8,201.8h-27.1c-1.9,0-3.4-1.5-3.4-3.4v-54.2c0-9.3,7.6-16.9,16.9-16.9s16.9,7.6,16.9,16.9v54.2
			C310.2,200.3,308.7,201.8,306.8,201.8z M283.1,195h20.3v-50.8c0-5.6-4.6-10.2-10.2-10.2s-10.2,4.6-10.2,10.2V195z"/>
		<path class="st1" d="M320.3,228.9h-149c-5.6,0-10.2-4.6-10.2-10.2v-13.5c0-5.6,4.6-10.2,10.2-10.2h149c5.6,0,10.2,4.6,10.2,10.2
			v13.5C330.5,224.4,325.9,228.9,320.3,228.9z M171.3,201.8c-1.9,0-3.4,1.5-3.4,3.4v13.5c0,1.9,1.5,3.4,3.4,3.4h149
			c1.9,0,3.4-1.5,3.4-3.4v-13.5c0-1.9-1.5-3.4-3.4-3.4H171.3z"/>
		<path class="st1" d="M259.4,357.6h-27.1c-5.6,0-10.2-4.6-10.2-10.2v-6.8c0-5.6,4.6-10.2,10.2-10.2h27.1c5.6,0,10.2,4.6,10.2,10.2
			v6.8C269.5,353,265,357.6,259.4,357.6z M232.3,337.3c-1.9,0-3.4,1.5-3.4,3.4v6.8c0,1.9,1.5,3.4,3.4,3.4h27.1
			c1.9,0,3.4-1.5,3.4-3.4v-6.8c0-1.9-1.5-3.4-3.4-3.4H232.3z"/>
		<path class="st1" d="M279.9,300h-67.7c-1.9,0-3.4-1.5-3.4-3.4s1.5-3.4,3.4-3.4h67.7c1.9,0,3.4,1.5,3.4,3.4S281.8,300,279.9,300z"
			/>
		<path class="st1" d="M279.9,279.7h-67.7c-1.9,0-3.4-1.5-3.4-3.4s1.5-3.4,3.4-3.4h67.7c1.9,0,3.4,1.5,3.4,3.4
			S281.8,279.7,279.9,279.7z"/>
		<g>
			<path class="st1" d="M279.7,152.5c-0.3,0-0.6,0-0.8-0.1c-22.3-5.8-43.7-5.8-66,0c-1.8,0.5-3.7-0.6-4.1-2.4
				c-0.5-1.8,0.6-3.7,2.4-4.1c23.4-6.1,46-6.1,69.4,0c1.8,0.5,2.9,2.3,2.4,4.1C282.6,151.5,281.2,152.5,279.7,152.5z"/>
			<path class="st1" d="M256,417.6c-1.8,0-3.2-1.4-3.4-3.1c-0.1-1.9,1.3-3.5,3.1-3.6c68.3-5.1,121.7-62.7,121.7-131.1
				c0-49.8-27.7-94.7-72.2-117.4c-1.7-0.8-2.3-2.9-1.5-4.6c0.9-1.7,2.9-2.3,4.6-1.5c46.8,23.8,75.9,71,75.9,123.4
				c0,72-56.2,132.5-128,137.9C256.2,417.6,256.1,417.6,256,417.6z"/>
		</g>
	</g>
	<g>
		<g>
			<path class="st0" d="M56.2,283.1c-1.9,0-3.4-1.5-3.4-3.4c0-106.4,86.6-193,193-193c1.9,0,3.4,1.5,3.4,3.4s-1.5,3.4-3.4,3.4
				C143.1,93.5,59.6,177,59.6,279.7C59.6,281.6,58.1,283.1,56.2,283.1z"/>
			<path class="st0" d="M266.2,93.5h-6.8c-1.9,0-3.4-1.5-3.4-3.4s1.5-3.4,3.4-3.4h6.8c1.9,0,3.4,1.5,3.4,3.4S268,93.5,266.2,93.5z"
				/>
		</g>
		<g>
			<path class="st0" d="M245.8,472.7c-1.9,0-3.4-1.5-3.4-3.4s1.5-3.4,3.4-3.4c102.7,0,186.2-83.5,186.2-186.2c0-1.9,1.5-3.4,3.4-3.4
				s3.4,1.5,3.4,3.4C438.9,386.1,352.3,472.7,245.8,472.7z"/>
			<path class="st0" d="M232.3,472.7h-6.8c-1.9,0-3.4-1.5-3.4-3.4s1.5-3.4,3.4-3.4h6.8c1.9,0,3.4,1.5,3.4,3.4
				S234.2,472.7,232.3,472.7z"/>
		</g>
	</g>
	<g>
		<g>
			<path class="st0" d="M151.4,350.4h-27.1c-1.9,0-3.4-1.5-3.4-3.4s1.5-3.4,3.4-3.4h27.1c1.9,0,3.4,1.5,3.4,3.4
				S153.3,350.4,151.4,350.4z"/>
			<path class="st0" d="M137.9,363.9c-1.9,0-3.4-1.5-3.4-3.4v-27.1c0-1.9,1.5-3.4,3.4-3.4c1.9,0,3.4,1.5,3.4,3.4v27.1
				C141.3,362.4,139.8,363.9,137.9,363.9z"/>
		</g>
		<path class="st1" d="M122.2,337.1c-1.3,0-2.5-0.8-3.1-2c-7.7-17.7-11.7-36.3-11.7-55.3c0-52.3,29.1-99.6,75.9-123.4
			c1.7-0.8,3.7-0.2,4.6,1.5c0.8,1.7,0.2,3.7-1.5,4.6c-44.6,22.6-72.2,67.6-72.2,117.4c0,18.1,3.7,35.8,11.1,52.6
			c0.7,1.7,0,3.7-1.7,4.5C123.1,337,122.6,337.1,122.2,337.1z"/>
		<path class="st1" d="M235.7,417.6c-0.1,0-0.2,0-0.3,0c-35.1-2.6-67.5-18.4-91.5-44.3c-1.3-1.4-1.2-3.5,0.2-4.8
			c1.4-1.3,3.5-1.2,4.8,0.2c22.7,24.7,53.6,39.7,87,42.2c1.9,0.1,3.3,1.8,3.1,3.6C238.9,416.2,237.4,417.6,235.7,417.6z"/>
		<g>
			<path class="st0" d="M104,394.4H77c-1.9,0-3.4-1.5-3.4-3.4s1.5-3.4,3.4-3.4H104c1.9,0,3.4,1.5,3.4,3.4S105.9,394.4,104,394.4z"/>
			<path class="st0" d="M90.5,408c-1.9,0-3.4-1.5-3.4-3.4v-27.1c0-1.9,1.5-3.4,3.4-3.4s3.4,1.5,3.4,3.4v27.1
				C93.9,406.4,92.4,408,90.5,408z"/>
		</g>
	</g>
</g>
</svg>
