<?xml version="1.0" encoding="utf-8"?>
<!-- Generator: Adobe Illustrator 22.1.0, SVG Export Plug-In . SVG Version: 6.00 Build 0)  -->
<svg version="1.1" id="Layer_1" xmlns="http://www.w3.org/2000/svg" xmlns:xlink="http://www.w3.org/1999/xlink" x="0px" y="0px"
	 viewBox="0 0 512 512" style="enable-background:new 0 0 512 512;" xml:space="preserve">
<style type="text/css">
	.st0{fill:#565656;}
	.st1{fill:#00AEEF;}
</style>
<g id="Intelligent_Energy_Control_1_">
	<g>
		<g>
			<path class="st0" d="M363.2,470.5H134.5c-21.7,0-39.3-17.6-39.3-39.3V202.4c0-21.7,17.6-39.3,39.3-39.3h228.8
				c21.7,0,39.3,17.6,39.3,39.3v228.8C402.6,452.8,384.9,470.5,363.2,470.5z M134.5,170.2c-17.7,0-32.2,14.4-32.2,32.2v228.8
				c0,17.7,14.4,32.2,32.2,32.2h228.8c17.7,0,32.2-14.4,32.2-32.2V202.4c0-17.7-14.4-32.2-32.2-32.2H134.5z"/>
			<path class="st0" d="M377.5,231c-2,0-3.6-1.6-3.6-3.6v-21.4c0-7.9-6.4-14.3-14.3-14.3h-21.4c-2,0-3.6-1.6-3.6-3.6
				s1.6-3.6,3.6-3.6h21.4c11.8,0,21.4,9.6,21.4,21.4v21.4C381.1,229.4,379.5,231,377.5,231z"/>
			<path class="st1" d="M213.1,406.1c-0.6,0-1.3-0.2-1.9-0.5c-1.4-0.9-2-2.6-1.5-4.2l27-81.1h-37.9c-1.4,0-2.8-0.9-3.3-2.2
				s-0.2-2.9,0.8-3.9l85.8-85.8c1.2-1.2,3-1.4,4.4-0.5c1.4,0.9,2,2.6,1.5,4.2l-27,81.1h37.9c1.4,0,2.8,0.9,3.3,2.2
				c0.6,1.3,0.2,2.9-0.8,3.9l-85.8,85.8C214.9,405.8,214,406.1,213.1,406.1z M207.4,313.2h34.3c1.2,0,2.2,0.6,2.9,1.5
				c0.7,0.9,0.9,2.1,0.5,3.2l-23.8,71.4l69-69H256c-1.2,0-2.2-0.6-2.9-1.5c-0.7-0.9-0.9-2.1-0.5-3.2l23.8-71.4L207.4,313.2z"/>
		</g>
		<g>
			<path class="st1" d="M427.6,484.8c-2,0-3.6-1.6-3.6-3.6v-28.6c0-2,1.6-3.6,3.6-3.6c2,0,3.6,1.6,3.6,3.6v28.6
				C431.2,483.2,429.6,484.8,427.6,484.8z"/>
			<path class="st1" d="M441.9,470.5h-28.6c-2,0-3.6-1.6-3.6-3.6c0-2,1.6-3.6,3.6-3.6h28.6c2,0,3.6,1.6,3.6,3.6
				C445.5,468.9,443.9,470.5,441.9,470.5z"/>
		</g>
		<g>
			<path class="st1" d="M155.9,123.7c-2,0-3.6-1.6-3.6-3.6V91.5c0-2,1.6-3.6,3.6-3.6s3.6,1.6,3.6,3.6v28.6
				C159.5,122.1,157.9,123.7,155.9,123.7z"/>
			<path class="st1" d="M170.2,109.4h-28.6c-2,0-3.6-1.6-3.6-3.6s1.6-3.6,3.6-3.6h28.6c2,0,3.6,1.6,3.6,3.6S172.2,109.4,170.2,109.4
				z"/>
		</g>
		<g>
			<path class="st0" d="M256,159.5c-2,0-3.6-1.6-3.6-3.6v-22h-7.1v22c0,2-1.6,3.6-3.6,3.6s-3.6-1.6-3.6-3.6v-25.6
				c0-2,1.6-3.6,3.6-3.6H256c2,0,3.6,1.6,3.6,3.6v25.6C259.6,157.9,258,159.5,256,159.5z"/>
			<path class="st0" d="M248.9,134.4c-13.8,0-25-11.2-25-25s11.2-25,25-25c13.8,0,25,11.2,25,25S262.6,134.4,248.9,134.4z
				 M248.9,91.5c-9.9,0-17.9,8-17.9,17.9s8,17.9,17.9,17.9s17.9-8,17.9-17.9S258.7,91.5,248.9,91.5z"/>
			<g>
				<path class="st1" d="M304.5,57.4c-0.9,0-1.8-0.3-2.5-1c-29.3-29.3-76.9-29.3-106.2,0c-1.4,1.4-3.7,1.4-5.1,0
					c-1.4-1.4-1.4-3.7,0-5.1c32.1-32.1,84.2-32.1,116.3,0c1.4,1.4,1.4,3.7,0,5.1C306.3,57,305.4,57.4,304.5,57.4z"/>
				<path class="st1" d="M284.2,77.6c-0.9,0-1.8-0.3-2.5-1c-18.1-18.1-47.6-18.1-65.7,0c-1.4,1.4-3.7,1.4-5.1,0
					c-1.4-1.4-1.4-3.7,0-5.1c20.9-20.9,54.9-20.9,75.8,0c1.4,1.4,1.4,3.7,0,5.1C286.1,77.3,285.2,77.6,284.2,77.6z"/>
			</g>
		</g>
		<g>
			<g>
				<g>
					<path class="st1" d="M427.6,248.8c-2,0-3.6-1.6-3.6-3.6v-7.1c0-2,1.6-3.6,3.6-3.6c2,0,3.6,1.6,3.6,3.6v7.1
						C431.2,247.2,429.6,248.8,427.6,248.8z"/>
					<path class="st1" d="M427.6,399c-2,0-3.6-1.6-3.6-3.6V259.6c0-2,1.6-3.6,3.6-3.6c2,0,3.6,1.6,3.6,3.6v135.8
						C431.2,397.4,429.6,399,427.6,399z"/>
				</g>
			</g>
			<g>
				<g>
					<path class="st1" d="M70.1,399c-2,0-3.6-1.6-3.6-3.6v-7.1c0-2,1.6-3.6,3.6-3.6s3.6,1.6,3.6,3.6v7.1
						C73.7,397.4,72.1,399,70.1,399z"/>
					<path class="st1" d="M70.1,377.5c-2,0-3.6-1.6-3.6-3.6V238.1c0-2,1.6-3.6,3.6-3.6s3.6,1.6,3.6,3.6v135.8
						C73.7,375.9,72.1,377.5,70.1,377.5z"/>
				</g>
			</g>
		</g>
	</g>
</g>
</svg>
