<?xml version="1.0" encoding="utf-8"?>
<!-- Generator: Adobe Illustrator 22.1.0, SVG Export Plug-In . SVG Version: 6.00 Build 0)  -->
<svg version="1.1" id="Layer_1" xmlns="http://www.w3.org/2000/svg" xmlns:xlink="http://www.w3.org/1999/xlink" x="0px" y="0px"
	 viewBox="0 0 512 512" style="enable-background:new 0 0 512 512;" xml:space="preserve">
<style type="text/css">
	.st0{fill:#00AEEF;}
</style>
<g>
	<g>
		<path class="st0" d="M306.6,444H140.3c-21.9,0-39.8-17.8-39.8-39.8V107.8c0-21.9,17.8-39.8,39.8-39.8h166.3
			c21.9,0,39.8,17.8,39.8,39.8v25.3c0,2-1.6,3.6-3.6,3.6s-3.6-1.6-3.6-3.6v-25.3c0-17.9-14.6-32.5-32.5-32.5H140.3
			c-17.9,0-32.5,14.6-32.5,32.5v296.4c0,17.9,14.6,32.5,32.5,32.5h166.3c17.9,0,32.5-14.6,32.5-32.5v-25.3c0-2,1.6-3.6,3.6-3.6
			s3.6,1.6,3.6,3.6v25.3C346.4,426.1,328.5,444,306.6,444z"/>
		<path class="st0" d="M342.8,400.6H104.2c-2,0-3.6-1.6-3.6-3.6s1.6-3.6,3.6-3.6h238.6c2,0,3.6,1.6,3.6,3.6S344.8,400.6,342.8,400.6
			z"/>
		<path class="st0" d="M342.8,118.6H104.2c-2,0-3.6-1.6-3.6-3.6s1.6-3.6,3.6-3.6h238.6c2,0,3.6,1.6,3.6,3.6S344.8,118.6,342.8,118.6
			z"/>
		<path class="st0" d="M245.2,96.9h-43.4c-2,0-3.6-1.6-3.6-3.6s1.6-3.6,3.6-3.6h43.4c2,0,3.6,1.6,3.6,3.6S247.2,96.9,245.2,96.9z"/>
		<path class="st0" d="M237.9,429.5H209c-6,0-10.8-4.9-10.8-10.8s4.9-10.8,10.8-10.8h28.9c6,0,10.8,4.9,10.8,10.8
			S243.9,429.5,237.9,429.5z M209,415.1c-2,0-3.6,1.6-3.6,3.6s1.6,3.6,3.6,3.6h28.9c2,0,3.6-1.6,3.6-3.6s-1.6-3.6-3.6-3.6H209z"/>
		<path class="st0" d="M205.4,234.3h-57.8c-6,0-10.8-4.9-10.8-10.8v-57.8c0-6,4.9-10.8,10.8-10.8h57.8c6,0,10.8,4.9,10.8,10.8v57.8
			C216.2,229.4,211.4,234.3,205.4,234.3z M147.6,162c-2,0-3.6,1.6-3.6,3.6v57.8c0,2,1.6,3.6,3.6,3.6h57.8c2,0,3.6-1.6,3.6-3.6v-57.8
			c0-2-1.6-3.6-3.6-3.6H147.6z"/>
		<path class="st0" d="M205.4,357.2h-57.8c-6,0-10.8-4.9-10.8-10.8v-57.8c0-6,4.9-10.8,10.8-10.8h57.8c6,0,10.8,4.9,10.8,10.8v57.8
			C216.2,352.4,211.4,357.2,205.4,357.2z M147.6,284.9c-2,0-3.6,1.6-3.6,3.6v57.8c0,2,1.6,3.6,3.6,3.6h57.8c2,0,3.6-1.6,3.6-3.6
			v-57.8c0-2-1.6-3.6-3.6-3.6H147.6z"/>
	</g>
	<g>
		<path class="st0" d="M342.8,368.1c-61.8,0-112.1-50.3-112.1-112.1S281,143.9,342.8,143.9s112,50.3,112,112.1
			S404.6,368.1,342.8,368.1z M342.8,151.2C285,151.2,238,198.2,238,256s47,104.8,104.8,104.8s104.8-47,104.8-104.8
			C447.6,198.2,400.6,151.2,342.8,151.2z"/>
		<path class="st0" d="M362.8,315.8c-0.9,0-1.8-0.4-2.6-1.1c-1.4-1.4-1.4-3.7,0-5.1c29.6-29.6,29.6-77.8,0-107.4
			c-1.4-1.4-1.4-3.7,0-5.1s3.7-1.4,5.1,0c32.4,32.4,32.4,85.2,0,117.6C364.7,315.5,363.8,315.8,362.8,315.8z"/>
		<path class="st0" d="M342.4,295.4c-0.9,0-1.8-0.4-2.6-1.1c-1.4-1.4-1.4-3.7,0-5.1c18.3-18.3,18.3-48.1,0-66.5
			c-1.4-1.4-1.4-3.7,0-5.1s3.7-1.4,5.1,0c10.2,10.2,15.9,23.9,15.9,38.3c0,14.5-5.6,28.1-15.9,38.3
			C344.2,295,343.3,295.4,342.4,295.4z"/>
		<path class="st0" d="M321.9,275c-0.9,0-1.8-0.4-2.6-1.1c-1.4-1.4-1.4-3.7,0-5.1c3.4-3.4,5.3-8,5.3-12.8s-1.9-9.4-5.3-12.8
			c-1.4-1.4-1.4-3.7,0-5.1s3.7-1.4,5.1,0c4.8,4.8,7.4,11.1,7.4,17.9s-2.6,13.1-7.4,17.9C323.8,274.6,322.9,275,321.9,275z"/>
	</g>
	<g>
		<path class="st0" d="M60.8,118.6c-2,0-3.6-1.6-3.6-3.6v-14.5c0-41.9,34.1-75.9,75.9-75.9h14.5c2,0,3.6,1.6,3.6,3.6
			s-1.6,3.6-3.6,3.6h-14.5c-37.9,0-68.7,30.8-68.7,68.7V115C64.4,117,62.8,118.6,60.8,118.6z"/>
		<path class="st0" d="M169.2,31.9H162c-2,0-3.6-1.6-3.6-3.6s1.6-3.6,3.6-3.6h7.2c2,0,3.6,1.6,3.6,3.6S171.2,31.9,169.2,31.9z"/>
	</g>
	<g>
		<path class="st0" d="M313.8,487.4h-14.5c-2,0-3.6-1.6-3.6-3.6s1.6-3.6,3.6-3.6h14.5c37.9,0,68.7-30.8,68.7-68.7V397
			c0-2,1.6-3.6,3.6-3.6s3.6,1.6,3.6,3.6v14.5C389.8,453.3,355.7,487.4,313.8,487.4z"/>
		<path class="st0" d="M284.9,487.4h-7.2c-2,0-3.6-1.6-3.6-3.6s1.6-3.6,3.6-3.6h7.2c2,0,3.6,1.6,3.6,3.6
			C288.5,485.7,286.9,487.4,284.9,487.4z"/>
	</g>
</g>
</svg>
