<?xml version="1.0" encoding="utf-8"?>
<!-- Generator: Adobe Illustrator 22.1.0, SVG Export Plug-In . SVG Version: 6.00 Build 0)  -->
<svg version="1.1" id="Layer_1" xmlns="http://www.w3.org/2000/svg" xmlns:xlink="http://www.w3.org/1999/xlink" x="0px" y="0px"
	 viewBox="0 0 512 512" style="enable-background:new 0 0 512 512;" xml:space="preserve">
<style type="text/css">
	.st0{fill:#00AEEF;}
</style>
<g>
	<path class="st0" d="M256,491c-18.7,0-34.6-11.4-41.5-29.9c-4.1-10.9-2.9-23.3,3.4-33.9l34.9-59.3c0.8-1.4,2.5-2.1,4.1-1.7
		s2.7,1.9,2.7,3.5V442c9.4-5.8,16.2-15.1,18.7-26l0.5-2.2c0.3-1.5,1.5-2.6,3-2.8c1.5-0.3,3,0.5,3.7,1.8l8.5,14.4
		c6.2,10.6,7.5,22.9,3.4,33.9C290.6,479.6,274.7,491,256,491z M252.3,383.3L224.2,431c-5,8.5-6.1,18.8-2.8,27.6
		c5.8,15.5,19,25.1,34.6,25.1c15.5,0,28.8-9.6,34.6-25.1c3.3-8.7,2.2-19-2.8-27.6l-4.1-7c-4.6,12.2-14.1,22.3-26.2,27.6
		c-1.1,0.5-2.4,0.4-3.5-0.3c-1-0.7-1.7-1.8-1.7-3.1V383.3z"/>
	<path class="st0" d="M186.2,461.7c-0.7,0-1.4-0.2-2-0.6c-1.7-1.1-2.1-3.4-1-5.1l6.3-9.5c3.9-5.8,3.1-13.6-1.8-18.5l-0.7-0.7
		c-7.4-7.4-8.6-19.1-2.8-27.8l6.3-9.5c1.1-1.7,3.4-2.1,5.1-1c1.7,1.1,2.1,3.4,1,5.1l-6.3,9.5c-3.9,5.8-3.1,13.6,1.8,18.5l0.7,0.7
		c7.4,7.4,8.6,19.1,2.8,27.8l-6.3,9.5C188.6,461.1,187.4,461.7,186.2,461.7z"/>
	<path class="st0" d="M318.4,461.7c-0.7,0-1.4-0.2-2-0.6c-1.7-1.1-2.1-3.4-1-5.1l6.3-9.5c3.9-5.8,3.1-13.6-1.8-18.5l-0.7-0.7
		c-7.4-7.4-8.6-19.1-2.8-27.8l6.3-9.5c1.1-1.7,3.4-2.1,5.1-1s2.1,3.4,1,5.1l-6.3,9.5c-3.9,5.8-3.1,13.6,1.8,18.5l0.7,0.7
		c7.4,7.4,8.6,19.1,2.8,27.8l-6.3,9.5C320.8,461.1,319.6,461.7,318.4,461.7z"/>
	<g>
		<path class="st0" d="M256,204.6c-50.6,0-91.8-41.2-91.8-91.8S205.4,21,256,21s91.8,41.2,91.8,91.8S306.6,204.6,256,204.6z
			 M256,28.3c-46.6,0-84.5,37.9-84.5,84.5s37.9,84.5,84.5,84.5s84.5-37.9,84.5-84.5S302.6,28.3,256,28.3z"/>
		<g>
			<path class="st0" d="M259.7,138.5h-7.3c-6.1,0-11-4.9-11-11V61.4c0-6.1,4.9-11,11-11h7.3c6.1,0,11,4.9,11,11v66.1
				C270.7,133.5,265.7,138.5,259.7,138.5z M252.3,57.7c-2,0-3.7,1.6-3.7,3.7v66.1c0,2,1.6,3.7,3.7,3.7h7.3c2,0,3.7-1.6,3.7-3.7V61.4
				c0-2-1.6-3.7-3.7-3.7H252.3z"/>
			<path class="st0" d="M256,175.2c-8.1,0-14.7-6.6-14.7-14.7c0-8.1,6.6-14.7,14.7-14.7c8.1,0,14.7,6.6,14.7,14.7
				C270.7,168.6,264.1,175.2,256,175.2z M256,153.2c-4.1,0-7.3,3.3-7.3,7.3s3.3,7.3,7.3,7.3c4.1,0,7.3-3.3,7.3-7.3
				S260.1,153.2,256,153.2z"/>
		</g>
	</g>
	<g>
		<path class="st0" d="M391.9,241.3H120.1c-12.2,0-22-9.9-22-22v-29.4c0-12.2,9.9-22,22-22h55.1c2,0,3.7,1.6,3.7,3.7
			c0,2-1.6,3.7-3.7,3.7h-55.1c-8.1,0-14.7,6.6-14.7,14.7v29.4c0,8.1,6.6,14.7,14.7,14.7h271.8c8.1,0,14.7-6.6,14.7-14.7V190
			c0-8.1-6.6-14.7-14.7-14.7h-55.1c-2,0-3.7-1.6-3.7-3.7c0-2,1.6-3.7,3.7-3.7h55.1c12.2,0,22,9.9,22,22v29.4
			C413.9,231.4,404,241.3,391.9,241.3z"/>
		<path class="st0" d="M362.5,351.5h-213c-12.2,0-22-9.9-22-22v-7.3c0-12.2,9.9-22,22-22h213c12.2,0,22,9.9,22,22v7.3
			C384.5,341.6,374.6,351.5,362.5,351.5z M149.5,307.4c-8.1,0-14.7,6.6-14.7,14.7v7.3c0,8.1,6.6,14.7,14.7,14.7h213
			c8.1,0,14.7-6.6,14.7-14.7v-7.3c0-8.1-6.6-14.7-14.7-14.7H149.5z"/>
		<path class="st0" d="M153.2,307.4c-1.6,0-3.1-1-3.5-2.7L135,253.3c-0.6-1.9,0.6-4,2.5-4.5c2-0.5,4,0.6,4.5,2.5l14.7,51.4
			c0.6,2-0.6,4-2.5,4.5C153.8,307.4,153.5,307.4,153.2,307.4z"/>
		<path class="st0" d="M189.9,307.4c-1.6,0-3.1-1-3.5-2.7l-14.7-51.4c-0.6-1.9,0.6-4,2.5-4.5c2-0.5,4,0.6,4.5,2.5l14.7,51.4
			c0.6,2-0.6,4-2.5,4.5C190.6,307.4,190.2,307.4,189.9,307.4z"/>
		<path class="st0" d="M237.6,307.4c-2,0-3.7-1.6-3.7-3.7v-51.4c0-2,1.6-3.7,3.7-3.7c2,0,3.7,1.6,3.7,3.7v51.4
			C241.3,305.8,239.7,307.4,237.6,307.4z"/>
		<path class="st0" d="M274.4,307.4c-2,0-3.7-1.6-3.7-3.7v-51.4c0-2,1.6-3.7,3.7-3.7s3.7,1.6,3.7,3.7v51.4
			C278,305.8,276.4,307.4,274.4,307.4z"/>
		<path class="st0" d="M322.1,307.4c-0.3,0-0.7,0-1-0.1c-2-0.6-3.1-2.6-2.5-4.5l14.7-51.4c0.6-1.9,2.6-3.1,4.5-2.5
			c2,0.6,3.1,2.6,2.5,4.5l-14.7,51.4C325.2,306.4,323.7,307.4,322.1,307.4z"/>
		<path class="st0" d="M358.8,307.4c-0.3,0-0.7,0-1-0.1c-2-0.6-3.1-2.6-2.5-4.5l14.7-51.4c0.6-1.9,2.6-3.1,4.5-2.5
			c2,0.6,3.1,2.6,2.5,4.5l-14.7,51.4C361.9,306.4,360.4,307.4,358.8,307.4z"/>
		<path class="st0" d="M388.2,222.9c-2,0-3.7-1.6-3.7-3.7v-29.4c0-2,1.6-3.7,3.7-3.7c2,0,3.7,1.6,3.7,3.7v29.4
			C391.9,221.3,390.2,222.9,388.2,222.9z"/>
	</g>
	<g>
		<g>
			<path class="st0" d="M134.8,116.5H61.4c-2,0-3.7-1.6-3.7-3.7c0-2,1.6-3.7,3.7-3.7h73.4c2,0,3.7,1.6,3.7,3.7
				C138.5,114.8,136.8,116.5,134.8,116.5z"/>
		</g>
		<g>
			<path class="st0" d="M32,131.1h-7.3c-2,0-3.7-1.6-3.7-3.7s1.6-3.7,3.7-3.7H32c2,0,3.7,1.6,3.7,3.7C35.7,129.5,34,131.1,32,131.1z
				"/>
			<path class="st0" d="M112.8,131.1H46.7c-2,0-3.7-1.6-3.7-3.7s1.6-3.7,3.7-3.7h66.1c2,0,3.7,1.6,3.7,3.7
				C116.5,129.5,114.8,131.1,112.8,131.1z"/>
		</g>
	</g>
	<g>
		<g>
			<path class="st0" d="M450.6,116.5h-73.4c-2,0-3.7-1.6-3.7-3.7c0-2,1.6-3.7,3.7-3.7h73.4c2,0,3.7,1.6,3.7,3.7
				C454.3,114.8,452.7,116.5,450.6,116.5z"/>
		</g>
		<g>
			<path class="st0" d="M487.4,131.1H480c-2,0-3.7-1.6-3.7-3.7s1.6-3.7,3.7-3.7h7.3c2,0,3.7,1.6,3.7,3.7
				C491,129.5,489.4,131.1,487.4,131.1z"/>
			<path class="st0" d="M465.3,131.1h-66.1c-2,0-3.7-1.6-3.7-3.7s1.6-3.7,3.7-3.7h66.1c2,0,3.7,1.6,3.7,3.7
				C469,129.5,467.4,131.1,465.3,131.1z"/>
		</g>
	</g>
</g>
</svg>
