<?xml version="1.0" encoding="utf-8"?>
<!-- Generator: Adobe Illustrator 22.1.0, SVG Export Plug-In . SVG Version: 6.00 Build 0)  -->
<svg version="1.1" id="Layer_1" xmlns="http://www.w3.org/2000/svg" xmlns:xlink="http://www.w3.org/1999/xlink" x="0px" y="0px"
	 viewBox="0 0 512 512" style="enable-background:new 0 0 512 512;" xml:space="preserve">
<style type="text/css">
	.st0{fill:#565656;}
	.st1{fill:#00AEEF;}
</style>
<g>
	<g>
		<path class="st0" d="M310.4,437.4H129c-22,0-39.9-17.9-39.9-39.9v-312c0-22,17.9-39.9,39.9-39.9h188.6c22,0,39.9,17.9,39.9,39.9
			v217.6c0,2-1.6,3.6-3.6,3.6s-3.6-1.6-3.6-3.6V85.5c0-18-14.6-32.6-32.6-32.6H129c-18,0-32.6,14.6-32.6,32.6v312
			c0,18,14.6,32.6,32.6,32.6h181.4c2,0,3.6,1.6,3.6,3.6S312.4,437.4,310.4,437.4z"/>
		<path class="st0" d="M299.5,205.2H147.2c-12,0-21.8-9.8-21.8-21.8v-79.8c0-12,9.8-21.8,21.8-21.8h152.3c12,0,21.8,9.8,21.8,21.8
			v79.8C321.3,195.5,311.5,205.2,299.5,205.2z M147.2,89.1c-8,0-14.5,6.5-14.5,14.5v79.8c0,8,6.5,14.5,14.5,14.5h152.3
			c8,0,14.5-6.5,14.5-14.5v-79.8c0-8-6.5-14.5-14.5-14.5H147.2z"/>
		<path class="st0" d="M237.9,252.4h-29c-6,0-10.9-4.9-10.9-10.9v-7.3c0-6,4.9-10.9,10.9-10.9h29c6,0,10.9,4.9,10.9,10.9v7.3
			C248.7,247.5,243.9,252.4,237.9,252.4z M208.8,230.6c-2,0-3.6,1.6-3.6,3.6v7.3c0,2,1.6,3.6,3.6,3.6h29c2,0,3.6-1.6,3.6-3.6v-7.3
			c0-2-1.6-3.6-3.6-3.6H208.8z"/>
		<path class="st0" d="M165.3,252.4h-29c-6,0-10.9-4.9-10.9-10.9v-7.3c0-6,4.9-10.9,10.9-10.9h29c6,0,10.9,4.9,10.9,10.9v7.3
			C176.2,247.5,171.3,252.4,165.3,252.4z M136.3,230.6c-2,0-3.6,1.6-3.6,3.6v7.3c0,2,1.6,3.6,3.6,3.6h29c2,0,3.6-1.6,3.6-3.6v-7.3
			c0-2-1.6-3.6-3.6-3.6H136.3z"/>
		<path class="st0" d="M310.4,252.4h-29c-6,0-10.9-4.9-10.9-10.9v-7.3c0-6,4.9-10.9,10.9-10.9h29c6,0,10.9,4.9,10.9,10.9v7.3
			C321.3,247.5,316.4,252.4,310.4,252.4z M281.4,230.6c-2,0-3.6,1.6-3.6,3.6v7.3c0,2,1.6,3.6,3.6,3.6h29c2,0,3.6-1.6,3.6-3.6v-7.3
			c0-2-1.6-3.6-3.6-3.6H281.4z"/>
		<path class="st0" d="M237.9,295.9h-29c-6,0-10.9-4.9-10.9-10.9v-7.3c0-6,4.9-10.9,10.9-10.9h29c6,0,10.9,4.9,10.9,10.9v7.3
			C248.7,291,243.9,295.9,237.9,295.9z M208.8,274.1c-2,0-3.6,1.6-3.6,3.6v7.3c0,2,1.6,3.6,3.6,3.6h29c2,0,3.6-1.6,3.6-3.6v-7.3
			c0-2-1.6-3.6-3.6-3.6H208.8z"/>
		<path class="st0" d="M165.3,295.9h-29c-6,0-10.9-4.9-10.9-10.9v-7.3c0-6,4.9-10.9,10.9-10.9h29c6,0,10.9,4.9,10.9,10.9v7.3
			C176.2,291,171.3,295.9,165.3,295.9z M136.3,274.1c-2,0-3.6,1.6-3.6,3.6v7.3c0,2,1.6,3.6,3.6,3.6h29c2,0,3.6-1.6,3.6-3.6v-7.3
			c0-2-1.6-3.6-3.6-3.6H136.3z"/>
		<path class="st0" d="M310.4,295.9h-29c-6,0-10.9-4.9-10.9-10.9v-7.3c0-6,4.9-10.9,10.9-10.9h29c6,0,10.9,4.9,10.9,10.9v7.3
			C321.3,291,316.4,295.9,310.4,295.9z M281.4,274.1c-2,0-3.6,1.6-3.6,3.6v7.3c0,2,1.6,3.6,3.6,3.6h29c2,0,3.6-1.6,3.6-3.6v-7.3
			c0-2-1.6-3.6-3.6-3.6H281.4z"/>
		<path class="st0" d="M237.9,339.4h-29c-6,0-10.9-4.9-10.9-10.9v-7.3c0-6,4.9-10.9,10.9-10.9h29c6,0,10.9,4.9,10.9,10.9v7.3
			C248.7,334.5,243.9,339.4,237.9,339.4z M208.8,317.7c-2,0-3.6,1.6-3.6,3.6v7.3c0,2,1.6,3.6,3.6,3.6h29c2,0,3.6-1.6,3.6-3.6v-7.3
			c0-2-1.6-3.6-3.6-3.6H208.8z"/>
		<path class="st0" d="M237.9,383h-29c-6,0-10.9-4.9-10.9-10.9v-7.3c0-6,4.9-10.9,10.9-10.9h29c6,0,10.9,4.9,10.9,10.9v7.3
			C248.7,378.1,243.9,383,237.9,383z M208.8,361.2c-2,0-3.6,1.6-3.6,3.6v7.3c0,2,1.6,3.6,3.6,3.6h29c2,0,3.6-1.6,3.6-3.6v-7.3
			c0-2-1.6-3.6-3.6-3.6H208.8z"/>
		<path class="st0" d="M165.3,339.4h-29c-6,0-10.9-4.9-10.9-10.9v-7.3c0-6,4.9-10.9,10.9-10.9h29c6,0,10.9,4.9,10.9,10.9v7.3
			C176.2,334.5,171.3,339.4,165.3,339.4z M136.3,317.7c-2,0-3.6,1.6-3.6,3.6v7.3c0,2,1.6,3.6,3.6,3.6h29c2,0,3.6-1.6,3.6-3.6v-7.3
			c0-2-1.6-3.6-3.6-3.6H136.3z"/>
		<path class="st0" d="M310.4,339.4h-29c-6,0-10.9-4.9-10.9-10.9v-7.3c0-6,4.9-10.9,10.9-10.9h29c6,0,10.9,4.9,10.9,10.9v7.3
			C321.3,334.5,316.4,339.4,310.4,339.4z M281.4,317.7c-2,0-3.6,1.6-3.6,3.6v7.3c0,2,1.6,3.6,3.6,3.6h29c2,0,3.6-1.6,3.6-3.6v-7.3
			c0-2-1.6-3.6-3.6-3.6H281.4z"/>
		<path class="st0" d="M310.4,408.3H93.5c-2,0-3.6-1.6-3.6-3.6s1.6-3.6,3.6-3.6h216.9c2,0,3.6,1.6,3.6,3.6S312.4,408.3,310.4,408.3z
			"/>
		<path class="st1" d="M210.5,183.7c-3.9,0-7.5-1.5-10.3-4.3l-25.7-25.6c-2.7-2.7-4.3-6.4-4.3-10.3c0-3.9,1.5-7.5,4.3-10.3
			c5.5-5.5,15-5.5,20.5,0l15.4,15.4l41-41c5.7-5.7,14.9-5.7,20.5,0c2.7,2.7,4.3,6.4,4.3,10.3s-1.5,7.5-4.3,10.3l-51.3,51.3
			C218,182.2,214.4,183.7,210.5,183.7z M184.9,136.3c-1.9,0-3.7,0.7-5.1,2.1c-1.4,1.4-2.1,3.2-2.1,5.1c0,1.9,0.8,3.8,2.1,5.1
			l25.7,25.6c2.7,2.7,7.5,2.7,10.3,0L267,123c1.4-1.4,2.1-3.2,2.1-5.1s-0.8-3.8-2.1-5.1c-2.8-2.8-7.4-2.8-10.3,0l-43.6,43.6
			c-1.4,1.4-3.7,1.4-5.1,0l-18-18C188.6,137,186.7,136.3,184.9,136.3z"/>
	</g>
	<g>
		<path class="st1" d="M419.2,379.3c-2,0-3.6-1.6-3.6-3.6v-32.6c0-12-9.8-21.8-21.8-21.8h-21.8c-12,0-21.8,9.8-21.8,21.8v32.6
			c0,2-1.6,3.6-3.6,3.6s-3.6-1.6-3.6-3.6v-32.6c0-16,13-29,29-29h21.8c16,0,29,13,29,29v32.6C422.9,377.7,421.2,379.3,419.2,379.3z
			 M404.7,379.3c-2,0-3.6-1.6-3.6-3.6v-32.6c0-4-3.3-7.3-7.3-7.3h-21.8c-4,0-7.3,3.3-7.3,7.3v32.6c0,2-1.6,3.6-3.6,3.6
			s-3.6-1.6-3.6-3.6v-32.6c0-8,6.5-14.5,14.5-14.5h21.8c8,0,14.5,6.5,14.5,14.5v32.6C408.3,377.7,406.7,379.3,404.7,379.3z"/>
		<path class="st0" d="M422.9,488.1h-79.8c-12,0-21.8-9.8-21.8-21.8v-72.5c0-12,9.8-21.8,21.8-21.8h79.8c12,0,21.8,9.8,21.8,21.8
			v72.5C444.6,478.4,434.9,488.1,422.9,488.1z M343.1,379.3c-8,0-14.5,6.5-14.5,14.5v72.5c0,8,6.5,14.5,14.5,14.5h79.8
			c8,0,14.5-6.5,14.5-14.5v-72.5c0-8-6.5-14.5-14.5-14.5H343.1z"/>
		<path class="st1" d="M393.8,455.5h-21.8c-1.1,0-2.2-0.5-2.9-1.4c-0.7-0.9-0.9-2-0.7-3.1l3.5-13.8c-4.5-3.4-7.2-8.7-7.2-14.4
			c0-10,8.1-18.1,18.1-18.1c10,0,18.1,8.1,18.1,18.1c0,5.7-2.7,11-7.2,14.4l3.4,13.8c0.3,1.1,0,2.2-0.7,3.1
			C396,455,395,455.5,393.8,455.5z M376.7,448.2h12.5l-2.9-11.8c-0.4-1.6,0.3-3.3,1.8-4.1c3.6-1.9,5.8-5.6,5.8-9.5
			c0-6-4.9-10.9-10.9-10.9s-10.9,4.9-10.9,10.9c0,4,2.2,7.6,5.8,9.5c1.5,0.8,2.2,2.5,1.8,4.1L376.7,448.2z"/>
	</g>
	<g>
		<path class="st1" d="M158.1,459.1h-32.6c-32,0-58-26-58-58v-32.6c0-2,1.6-3.6,3.6-3.6s3.6,1.6,3.6,3.6v32.6
			c0,28,22.8,50.8,50.8,50.8h32.6c2,0,3.6,1.6,3.6,3.6S160.1,459.1,158.1,459.1z"/>
		<path class="st1" d="M71,357.6c-2,0-3.6-1.6-3.6-3.6v-7.3c0-2,1.6-3.6,3.6-3.6s3.6,1.6,3.6,3.6v7.3C74.6,355.9,73,357.6,71,357.6z
			"/>
	</g>
	<g>
		<path class="st1" d="M375.7,118.2c-2,0-3.6-1.6-3.6-3.6V81.9c0-28-22.8-50.8-50.8-50.8h-32.6c-2,0-3.6-1.6-3.6-3.6
			s1.6-3.6,3.6-3.6h32.6c32,0,58,26,58,58v32.6C379.3,116.5,377.7,118.2,375.7,118.2z"/>
		<path class="st1" d="M375.7,139.9c-2,0-3.6-1.6-3.6-3.6V129c0-2,1.6-3.6,3.6-3.6s3.6,1.6,3.6,3.6v7.3
			C379.3,138.3,377.7,139.9,375.7,139.9z"/>
	</g>
</g>
</svg>
