<?xml version="1.0" encoding="utf-8"?>
<!-- Generator: Adobe Illustrator 22.1.0, SVG Export Plug-In . SVG Version: 6.00 Build 0)  -->
<svg version="1.1" id="Layer_1" xmlns="http://www.w3.org/2000/svg" xmlns:xlink="http://www.w3.org/1999/xlink" x="0px" y="0px"
	 viewBox="0 0 512 512" style="enable-background:new 0 0 512 512;" xml:space="preserve">
<style type="text/css">
	.st0{fill:#FFFFFF;}
	.st1{display:none;}
	.st2{display:inline;}
	.st3{fill:#565656;}
	.st4{display:inline;fill:#00AEEF;}
	.st5{fill:#00AEEF;}
	.st6{display:inline;fill:#565656;}
</style>
<g>
	<g>
		<path class="st0" d="M448,71.9c-1,0-2-0.4-2.8-1.2c-32.4-32.4-85-32.4-117.4,0c-1.5,1.5-4,1.5-5.6,0c-1.5-1.5-1.5-4,0-5.6
			c35.5-35.5,93.1-35.5,128.6,0c1.5,1.5,1.5,4,0,5.6C450,71.6,449,71.9,448,71.9z"/>
		<path class="st0" d="M425.6,94.3c-1,0-2-0.4-2.8-1.2c-20.1-20-52.6-20-72.7,0c-1.5,1.5-4,1.5-5.6,0c-1.5-1.5-1.5-4,0-5.6
			c23.1-23.1,60.7-23.1,83.9,0c1.5,1.5,1.5,4,0,5.6C427.6,93.9,426.6,94.3,425.6,94.3z"/>
		<path class="st0" d="M403.2,116.7c-1,0-2-0.4-2.8-1.2c-7.7-7.7-20.3-7.7-28,0c-1.5,1.5-4,1.5-5.6,0c-1.5-1.5-1.5-4,0-5.6
			c10.8-10.8,28.4-10.8,39.1,0c1.5,1.5,1.5,4,0,5.6C405.2,116.3,404.2,116.7,403.2,116.7z"/>
	</g>
	<path class="st0" d="M489.2,473.4H22.8c-10.9,0-19.8-8.9-19.8-19.8s8.9-19.8,19.8-19.8h466.5c10.9,0,19.8,8.9,19.8,19.8
		S500.1,473.4,489.2,473.4z M22.8,441.8c-6.5,0-11.9,5.3-11.9,11.9c0,6.5,5.3,11.9,11.9,11.9h466.5c6.5,0,11.9-5.3,11.9-11.9
		c0-6.5-5.3-11.9-11.9-11.9H22.8z"/>
	<g>
		<g>
			<g>
				<path class="st0" d="M422,339c-2.2,0-4-1.8-4-4v-7.9c0-2.2,1.8-4,4-4s4,1.8,4,4v7.9C426,337.2,424.2,339,422,339z"/>
				<path class="st0" d="M422,315.3c-2.2,0-4-1.8-4-4v-94.9c0-2.2,1.8-4,4-4s4,1.8,4,4v94.9C426,313.5,424.2,315.3,422,315.3z"/>
			</g>
		</g>
		<g>
			<g>
				<path class="st0" d="M445.8,228.3c-2.2,0-4-1.8-4-4v-7.9c0-2.2,1.8-4,4-4s4,1.8,4,4v7.9C449.7,226.5,447.9,228.3,445.8,228.3z"
					/>
				<path class="st0" d="M445.8,339c-2.2,0-4-1.8-4-4v-94.9c0-2.2,1.8-4,4-4s4,1.8,4,4V335C449.7,337.2,447.9,339,445.8,339z"/>
			</g>
		</g>
	</g>
	<g>
		<g>
			<path class="st0" d="M90,426c-2.2,0-4-1.8-4-4V129.1c0-10.9,7.4-20.4,18-23l118.6-29.6c7.1-1.8,14.5-0.2,20.3,4.3
				s9.1,11.3,9.1,18.7v132.8c0,2.2-1.8,4-4,4s-4-1.8-4-4V99.5c0-4.9-2.2-9.4-6.1-12.5c-3.9-3-8.8-4.1-13.6-2.9l-118.6,29.6
				c-7.1,1.8-12,8.1-12,15.3v293C93.9,424.2,92.2,426,90,426z"/>
			<path class="st0" d="M374.6,426c-2.2,0-4-1.8-4-4V256c0-2.2-1.8-4-4-4H256c-2.2,0-4,1.8-4,4v166c0,2.2-1.8,4-4,4s-4-1.8-4-4V256
				c0-6.5,5.3-11.9,11.9-11.9h110.7c6.5,0,11.9,5.3,11.9,11.9v166C378.5,424.2,376.8,426,374.6,426z"/>
			<path class="st0" d="M343,307.4h-63.2c-6.5,0-11.9-5.3-11.9-11.9v-15.8c0-6.5,5.3-11.9,11.9-11.9H343c6.5,0,11.9,5.3,11.9,11.9
				v15.8C354.8,302,349.5,307.4,343,307.4z M279.7,275.7c-2.2,0-4,1.8-4,4v15.8c0,2.2,1.8,4,4,4H343c2.2,0,4-1.8,4-4v-15.8
				c0-2.2-1.8-4-4-4H279.7z"/>
			<path class="st0" d="M216.5,252h-94.9c-6.5,0-11.9-5.3-11.9-11.9v-15.8c0-6.5,5.3-11.9,11.9-11.9h94.9c6.5,0,11.9,5.3,11.9,11.9
				v15.8C228.3,246.7,223,252,216.5,252z M121.6,220.4c-2.2,0-4,1.8-4,4v15.8c0,2.2,1.8,4,4,4h94.9c2.2,0,4-1.8,4-4v-15.8
				c0-2.2-1.8-4-4-4H121.6z"/>
			<path class="st0" d="M216.5,196.7h-94.9c-6.5,0-11.9-5.3-11.9-11.9V169c0-6.5,5.3-11.9,11.9-11.9h94.9c6.5,0,11.9,5.3,11.9,11.9
				v15.8C228.3,191.4,223,196.7,216.5,196.7z M121.6,165.1c-2.2,0-4,1.8-4,4v15.8c0,2.2,1.8,4,4,4h94.9c2.2,0,4-1.8,4-4V169
				c0-2.2-1.8-4-4-4h-94.9V165.1z"/>
			<path class="st0" d="M216.5,307.4h-94.9c-6.5,0-11.9-5.3-11.9-11.9v-15.8c0-6.5,5.3-11.9,11.9-11.9h94.9
				c6.5,0,11.9,5.3,11.9,11.9v15.8C228.3,302,223,307.4,216.5,307.4z M121.6,275.7c-2.2,0-4,1.8-4,4v15.8c0,2.2,1.8,4,4,4h94.9
				c2.2,0,4-1.8,4-4v-15.8c0-2.2-1.8-4-4-4H121.6z"/>
			<path class="st0" d="M343,362.7h-63.2c-6.5,0-11.9-5.3-11.9-11.9V335c0-6.5,5.3-11.9,11.9-11.9H343c6.5,0,11.9,5.3,11.9,11.9
				v15.8C354.8,357.4,349.5,362.7,343,362.7z M279.7,331.1c-2.2,0-4,1.8-4,4v15.8c0,2.2,1.8,4,4,4H343c2.2,0,4-1.8,4-4V335
				c0-2.2-1.8-4-4-4h-63.3V331.1z"/>
		</g>
		<path class="st0" d="M350.9,426c-2.2,0-4-1.8-4-4v-39.5c0-2.2,1.8-4,4-4s4,1.8,4,4V422C354.8,424.2,353.1,426,350.9,426z"/>
	</g>
	<g>
		<g>
			<path class="st0" d="M105.8,70.6H74.2c-2.2,0-4-1.8-4-4s1.8-4,4-4h31.6c2.2,0,4,1.8,4,4C109.7,68.8,108,70.6,105.8,70.6z"/>
			<path class="st0" d="M90,86.4c-2.2,0-4-1.8-4-4V50.8c0-2.2,1.8-4,4-4s4,1.8,4,4v31.6C93.9,84.6,92.2,86.4,90,86.4z"/>
		</g>
		<g>
			<path class="st0" d="M50.4,122H18.8c-2.2,0-4-1.8-4-4s1.8-4,4-4h31.6c2.2,0,4,1.8,4,4S52.6,122,50.4,122z"/>
			<path class="st0" d="M34.6,137.8c-2.2,0-4-1.8-4-4v-31.6c0-2.2,1.8-4,4-4s4,1.8,4,4v31.6C38.6,136,36.8,137.8,34.6,137.8z"/>
		</g>
	</g>
</g>
<g class="st1">
	<g class="st2">
		<path class="st3" d="M110.5,328.7c-26.1,0-47.3-21.2-47.3-47.3s21.2-47.3,47.3-47.3s47.3,21.2,47.3,47.3S136.6,328.7,110.5,328.7z
			 M110.5,241.4c-22.1,0-40,18-40,40s18,40,40,40s40-18,40-40S132.5,241.4,110.5,241.4z"/>
		<path class="st3" d="M55.9,452.4H37.7c-2,0-3.6-1.6-3.6-3.6v-83.7c0-20.1,16.3-36.4,36.4-36.4c2,0,3.6,1.6,3.6,3.6
			s-1.6,3.6-3.6,3.6c-16.1,0-29.1,13.1-29.1,29.1v80h14.5c2,0,3.6,1.6,3.6,3.6C59.5,450.8,57.9,452.4,55.9,452.4z"/>
		<path class="st3" d="M183.2,452.4H165c-2,0-3.6-1.6-3.6-3.6s1.6-3.6,3.6-3.6h14.6v-80c0-16.1-13.1-29.1-29.1-29.1
			c-2,0-3.6-1.6-3.6-3.6s1.6-3.6,3.6-3.6c20.1,0,36.4,16.3,36.4,36.4V449C186.9,450.8,185.3,452.4,183.2,452.4z"/>
		<path class="st3" d="M110.5,357.8c-0.8,0-1.7-0.3-2.4-0.9l-25.5-21.8c-1.5-1.3-1.7-3.6-0.4-5.1c1.3-1.5,3.6-1.7,5.1-0.4l25.5,21.8
			c1.5,1.3,1.7,3.6,0.4,5.1C112.5,357.4,111.5,357.8,110.5,357.8z"/>
		<path class="st3" d="M110.5,401.5c-2,0-3.6-1.6-3.6-3.6v-43.7c0-1.1,0.5-2.1,1.3-2.8l25.5-21.8c1.5-1.3,3.8-1.1,5.1,0.4
			s1.1,3.8-0.4,5.1l-24.2,20.7v42C114.1,399.9,112.5,401.5,110.5,401.5z"/>
		<path class="st3" d="M150.5,452.4h-80c-2,0-3.6-1.6-3.6-3.6v-50.9c0-2,1.6-3.6,3.6-3.6s3.6,1.6,3.6,3.6v47.3h72.8v-47.3
			c0-2,1.6-3.6,3.6-3.6s3.6,1.6,3.6,3.6v50.9C154.1,450.8,152.5,452.4,150.5,452.4z"/>
	</g>
	<g class="st2">
		<path class="st3" d="M256,365.1c-26.1,0-47.3-21.2-47.3-47.3c0-26.1,21.2-47.3,47.3-47.3s47.3,21.2,47.3,47.3
			S282.1,365.1,256,365.1z M256,277.8c-22.1,0-40,18-40,40s18,40,40,40s40-18,40-40S278.1,277.8,256,277.8z"/>
		<path class="st3" d="M201.4,488.8h-18.2c-2,0-3.6-1.6-3.6-3.6v-83.7c0-20.1,16.3-36.4,36.4-36.4c2,0,3.6,1.6,3.6,3.6
			s-1.6,3.6-3.6,3.6c-16.1,0-29.1,13.1-29.1,29.1v80h14.5c2,0,3.6,1.6,3.6,3.6C205.1,487.2,203.4,488.8,201.4,488.8z"/>
		<path class="st3" d="M328.8,488.8h-18.2c-2,0-3.6-1.6-3.6-3.6s1.6-3.6,3.6-3.6h14.6v-80c0-16.1-13.1-29.1-29.1-29.1
			c-2,0-3.6-1.6-3.6-3.6s1.6-3.6,3.6-3.6c20.1,0,36.4,16.3,36.4,36.4v83.7C332.4,487.2,330.8,488.8,328.8,488.8z"/>
		<path class="st3" d="M256,394.2c-0.8,0-1.7-0.3-2.4-0.9l-25.5-21.8c-1.5-1.3-1.7-3.6-0.4-5.1s3.6-1.7,5.1-0.4l25.5,21.8
			c1.5,1.3,1.7,3.6,0.4,5.1C258,393.8,257,394.2,256,394.2z"/>
		<path class="st3" d="M256,437.9c-2,0-3.6-1.6-3.6-3.6v-43.7c0-1.1,0.5-2.1,1.3-2.8l25.5-21.8c1.5-1.3,3.8-1.1,5.1,0.4
			c1.3,1.5,1.1,3.8-0.4,5.1l-24.2,20.7v42C259.6,436.2,258,437.9,256,437.9z"/>
		<path class="st3" d="M296,488.8h-80c-2,0-3.6-1.6-3.6-3.6v-50.9c0-2,1.6-3.6,3.6-3.6s3.6,1.6,3.6,3.6v47.3h72.8v-47.3
			c0-2,1.6-3.6,3.6-3.6s3.6,1.6,3.6,3.6v50.9C299.7,487.2,298,488.8,296,488.8z"/>
	</g>
	<g class="st2">
		<path class="st3" d="M401.5,328.7c-26.1,0-47.3-21.2-47.3-47.3s21.2-47.3,47.3-47.3s47.3,21.2,47.3,47.3S427.6,328.7,401.5,328.7z
			 M401.5,241.4c-22.1,0-40,18-40,40s18,40,40,40s40-18,40-40S423.6,241.4,401.5,241.4z"/>
		<path class="st3" d="M346.9,452.4h-18.2c-2,0-3.6-1.6-3.6-3.6v-83.7c0-20.1,16.3-36.4,36.4-36.4c2,0,3.6,1.6,3.6,3.6
			s-1.6,3.6-3.6,3.6c-16.1,0-29.1,13.1-29.1,29.1v80h14.5c2,0,3.6,1.6,3.6,3.6C350.6,450.8,349,452.4,346.9,452.4z"/>
		<path class="st3" d="M474.3,452.4h-18.2c-2,0-3.6-1.6-3.6-3.6s1.6-3.6,3.6-3.6h14.6v-80c0-16.1-13.1-29.1-29.1-29.1
			c-2,0-3.6-1.6-3.6-3.6s1.6-3.6,3.6-3.6c20.1,0,36.4,16.3,36.4,36.4V449C477.9,450.8,476.3,452.4,474.3,452.4z"/>
		<path class="st3" d="M401.5,357.8c-0.8,0-1.7-0.3-2.4-0.9l-25.5-21.8c-1.5-1.3-1.7-3.6-0.4-5.1c1.3-1.5,3.6-1.7,5.1-0.4l25.5,21.8
			c1.5,1.3,1.7,3.6,0.4,5.1C403.6,357.4,402.5,357.8,401.5,357.8z"/>
		<path class="st3" d="M401.5,401.5c-2,0-3.6-1.6-3.6-3.6v-43.7c0-1.1,0.5-2.1,1.3-2.8l25.5-21.8c1.5-1.3,3.8-1.1,5.1,0.4
			c1.3,1.5,1.1,3.8-0.4,5.1l-24.2,20.7v42C405.2,399.9,403.5,401.5,401.5,401.5z"/>
		<path class="st3" d="M441.5,452.4h-80c-2,0-3.6-1.6-3.6-3.6v-50.9c0-2,1.6-3.6,3.6-3.6s3.6,1.6,3.6,3.6v47.3h72.8v-47.3
			c0-2,1.6-3.6,3.6-3.6s3.6,1.6,3.6,3.6v50.9C445.2,450.8,443.5,452.4,441.5,452.4z"/>
	</g>
	<path class="st4" d="M408.8,85.7c-10,0-18.2-8.2-18.2-18.2s8.2-18.2,18.2-18.2S427,57.5,427,67.5S418.8,85.7,408.8,85.7z
		 M408.8,56.6c-6,0-10.9,4.9-10.9,10.9s4.9,10.9,10.9,10.9s10.9-4.9,10.9-10.9S414.8,56.6,408.8,56.6z"/>
	<path class="st4" d="M103.2,202.1c-10,0-18.2-8.2-18.2-18.2s8.2-18.2,18.2-18.2s18.2,8.2,18.2,18.2S113.2,202.1,103.2,202.1z
		 M103.2,173c-6,0-10.9,4.9-10.9,10.9s4.9,10.9,10.9,10.9s10.9-4.9,10.9-10.9S109.2,173,103.2,173z"/>
	<g class="st2">
		<g>
			<path class="st5" d="M59.6,488.8h-7.3c-2,0-3.6-1.6-3.6-3.6s1.6-3.6,3.6-3.6h7.3c2,0,3.6,1.6,3.6,3.6
				C63.2,487.2,61.6,488.8,59.6,488.8z"/>
			<path class="st5" d="M161.4,488.8H74.1c-2,0-3.6-1.6-3.6-3.6s1.6-3.6,3.6-3.6h87.3c2,0,3.6,1.6,3.6,3.6
				C165.1,487.2,163.4,488.8,161.4,488.8z"/>
		</g>
	</g>
	<g class="st2">
		<g>
			<path class="st5" d="M459.7,488.8h-7.3c-2,0-3.6-1.6-3.6-3.6s1.6-3.6,3.6-3.6h7.3c2,0,3.6,1.6,3.6,3.6
				C463.4,487.2,461.7,488.8,459.7,488.8z"/>
			<path class="st5" d="M437.9,488.8h-87.3c-2,0-3.6-1.6-3.6-3.6s1.6-3.6,3.6-3.6h87.3c2,0,3.6,1.6,3.6,3.6
				C441.5,487.2,439.9,488.8,437.9,488.8z"/>
		</g>
	</g>
	<g class="st2">
		<g>
			<path class="st5" d="M277.4,189.6h-48.2c-2.7,0-4.8-2.2-4.8-4.8v-2.9c0-8.5-3.6-17.1-10.2-24.2c-11.6-12.5-16.3-29.4-12.9-46.4
				c4-20.3,20.3-36.9,40.6-41.1c16-3.4,32.4,0.5,44.9,10.7C299.2,91,306.4,106,306.4,122c0,13.2-4.9,25.8-13.8,35.5
				c-4.7,5.1-10.3,13.5-10.3,24.3v2.9C282.2,187.4,280.1,189.6,277.4,189.6z M234,179.9h38.7c0.5-10.2,5-20.4,12.8-28.9
				c7.3-8,11.3-18.2,11.3-29c0-13.1-5.9-25.4-16.1-33.7s-23.6-11.4-36.8-8.7c-16.5,3.5-29.8,16.9-33.1,33.6
				c-2.8,13.9,1.1,27.7,10.5,38C229,159.5,233.5,169.6,234,179.9z"/>
			<path class="st5" d="M253.3,237.8c-16,0-28.9-13-28.9-28.9v-24.1c0-2.7,2.2-4.8,4.8-4.8h48.2c2.7,0,4.8,2.2,4.8,4.8v24.1
				C282.2,224.8,269.3,237.8,253.3,237.8z M234,189.6v19.3c0,10.6,8.7,19.3,19.3,19.3c10.6,0,19.3-8.7,19.3-19.3v-19.3H234z"/>
			<path class="st5" d="M277.4,213.7h-48.2c-2.7,0-4.8-2.2-4.8-4.8s2.2-4.8,4.8-4.8h48.2c2.7,0,4.8,2.2,4.8,4.8
				S280.1,213.7,277.4,213.7z"/>
		</g>
		<path class="st5" d="M253.3,49.7c-2.7,0-4.8-2.2-4.8-4.8V25.6c0-2.7,2.2-4.8,4.8-4.8s4.8,2.2,4.8,4.8v19.3
			C258.1,47.5,256,49.7,253.3,49.7z"/>
		<path class="st5" d="M205.1,66.1c-1.2,0-2.5-0.5-3.4-1.4L188,51.1c-1.9-1.9-1.9-4.9,0-6.8c1.9-1.9,4.9-1.9,6.8,0l13.6,13.6
			c1.9,1.9,1.9,4.9,0,6.8C207.5,65.7,206.3,66.1,205.1,66.1z"/>
		<path class="st5" d="M301.5,66.1c-1.2,0-2.5-0.5-3.4-1.4c-1.9-1.9-1.9-4.9,0-6.8l13.6-13.6c1.9-1.9,4.9-1.9,6.8,0s1.9,4.9,0,6.8
			l-13.6,13.6C304,65.7,302.8,66.1,301.5,66.1z"/>
	</g>
</g>
<g class="st1">
	<path class="st6" d="M205.9,490.9c-2.1,0-3.9-1.7-3.9-3.9V232.9c0-2.1-1.7-3.9-3.9-3.9H59.6c-2.1,0-3.9,1.7-3.9,3.9v254.2
		c0,2.1-1.7,3.9-3.9,3.9H13.4c-2.1,0-3.9-1.7-3.9-3.9c0-2.1,1.7-3.9,3.9-3.9H48V232.9c0-6.4,5.2-11.6,11.6-11.6h138.7
		c6.4,0,11.6,5.2,11.6,11.6v254.2C209.8,489.2,208.1,490.9,205.9,490.9z"/>
	<path class="st6" d="M498.6,490.9h-38.5c-2.1,0-3.9-1.7-3.9-3.9V179c0-2.1-1.7-3.9-3.9-3.9H437c-2.1,0-3.9-1.7-3.9-3.9
		s1.7-3.9,3.9-3.9h15.4c6.4,0,11.6,5.2,11.6,11.6v304.3h34.7c2.1,0,3.9,1.7,3.9,3.9C502.5,489.2,500.8,490.9,498.6,490.9z"/>
	<path class="st6" d="M344.6,490.9c-2.1,0-3.9-1.7-3.9-3.9V179c0-6.4,5.2-11.6,11.6-11.6h15.4c2.1,0,3.9,1.7,3.9,3.9
		s-1.7,3.9-3.9,3.9h-15.4c-2.1,0-3.9,1.7-3.9,3.9v308.1C348.4,489.2,346.7,490.9,344.6,490.9z"/>
	<path class="st6" d="M182.8,213.6c-2.1,0-3.9-1.7-3.9-3.9V202c0-2.1-1.7-3.9-3.9-3.9H82.7c-2.1,0-3.9,1.7-3.9,3.9v7.7
		c0,2.1-1.7,3.9-3.9,3.9s-3.9-1.7-3.9-3.9V202c0-6.4,5.2-11.6,11.6-11.6H175c6.4,0,11.6,5.2,11.6,11.6v7.7
		C186.7,211.9,184.9,213.6,182.8,213.6z"/>
	<path class="st6" d="M171.3,290.7H86.5c-6.4,0-11.6-5.2-11.6-11.6v-15.4c0-6.4,5.2-11.6,11.6-11.6h84.7c6.4,0,11.6,5.2,11.6,11.6
		v15.4C182.8,285.5,177.6,290.7,171.3,290.7z M86.5,259.9c-2.1,0-3.9,1.7-3.9,3.9v15.4c0,2.1,1.7,3.9,3.9,3.9h84.7
		c2.1,0,3.9-1.7,3.9-3.9v-15.4c0-2.1-1.7-3.9-3.9-3.9H86.5z"/>
	<path class="st6" d="M171.3,352.3H86.5c-6.4,0-11.6-5.2-11.6-11.6v-15.4c0-6.4,5.2-11.6,11.6-11.6h84.7c6.4,0,11.6,5.2,11.6,11.6
		v15.4C182.8,347.1,177.6,352.3,171.3,352.3z M86.5,321.5c-2.1,0-3.9,1.7-3.9,3.9v15.4c0,2.1,1.7,3.9,3.9,3.9h84.7
		c2.1,0,3.9-1.7,3.9-3.9v-15.4c0-2.1-1.7-3.9-3.9-3.9H86.5z"/>
	<path class="st6" d="M171.3,413.9H86.5c-6.4,0-11.6-5.2-11.6-11.6V387c0-6.4,5.2-11.6,11.6-11.6h84.7c6.4,0,11.6,5.2,11.6,11.6
		v15.4C182.8,408.7,177.6,413.9,171.3,413.9z M86.5,383.1c-2.1,0-3.9,1.7-3.9,3.9v15.4c0,2.1,1.7,3.9,3.9,3.9h84.7
		c2.1,0,3.9-1.7,3.9-3.9V387c0-2.1-1.7-3.9-3.9-3.9H86.5z"/>
	<path class="st6" d="M329.2,290.7H221.3c-2.1,0-3.9-1.7-3.9-3.9c0-2.1,1.7-3.9,3.9-3.9h107.8c2.1,0,3.9,1.7,3.9,3.9
		C333,288.9,331.3,290.7,329.2,290.7z"/>
	<path class="st6" d="M313.8,275.3c-2.1,0-3.9-1.7-3.9-3.9v-7.7c0-2.1-1.7-3.9-3.9-3.9h-61.6c-2.1,0-3.9,1.7-3.9,3.9v7.7
		c0,2.1-1.7,3.9-3.9,3.9s-3.9-1.7-3.9-3.9v-7.7c0-6.4,5.2-11.6,11.6-11.6h61.6c6.4,0,11.6,5.2,11.6,11.6v7.7
		C317.6,273.5,315.9,275.3,313.8,275.3z"/>
	<path class="st4" d="M256,352.3h-15.4c-6.4,0-11.6-5.2-11.6-11.6v-15.4c0-6.4,5.2-11.6,11.6-11.6H256c6.4,0,11.6,5.2,11.6,11.6
		v15.4C267.6,347.1,262.4,352.3,256,352.3z M240.6,321.5c-2.1,0-3.9,1.7-3.9,3.9v15.4c0,2.1,1.7,3.9,3.9,3.9H256
		c2.1,0,3.9-1.7,3.9-3.9v-15.4c0-2.1-1.7-3.9-3.9-3.9H240.6z"/>
	<path class="st4" d="M309.9,352.3h-15.4c-6.4,0-11.6-5.2-11.6-11.6v-15.4c0-6.4,5.2-11.6,11.6-11.6h15.4c6.4,0,11.6,5.2,11.6,11.6
		v15.4C321.5,347.1,316.3,352.3,309.9,352.3z M294.5,321.5c-2.1,0-3.9,1.7-3.9,3.9v15.4c0,2.1,1.7,3.9,3.9,3.9h15.4
		c2.1,0,3.9-1.7,3.9-3.9v-15.4c0-2.1-1.7-3.9-3.9-3.9H294.5z"/>
	<path class="st4" d="M256,413.9h-15.4c-6.4,0-11.6-5.2-11.6-11.6V387c0-6.4,5.2-11.6,11.6-11.6H256c6.4,0,11.6,5.2,11.6,11.6v15.4
		C267.6,408.7,262.4,413.9,256,413.9z M240.6,383.1c-2.1,0-3.9,1.7-3.9,3.9v15.4c0,2.1,1.7,3.9,3.9,3.9H256c2.1,0,3.9-1.7,3.9-3.9
		V387c0-2.1-1.7-3.9-3.9-3.9H240.6z"/>
	<path class="st4" d="M309.9,413.9h-15.4c-6.4,0-11.6-5.2-11.6-11.6V387c0-6.4,5.2-11.6,11.6-11.6h15.4c6.4,0,11.6,5.2,11.6,11.6
		v15.4C321.5,408.7,316.3,413.9,309.9,413.9z M294.5,383.1c-2.1,0-3.9,1.7-3.9,3.9v15.4c0,2.1,1.7,3.9,3.9,3.9h15.4
		c2.1,0,3.9-1.7,3.9-3.9V387c0-2.1-1.7-3.9-3.9-3.9H294.5z"/>
	<g class="st2">
		<g>
			<path class="st5" d="M421.6,155.9h-38.5c-2.1,0-3.9-1.7-3.9-3.9v-2.3c0-6.8-2.9-13.6-8.1-19.3c-9.2-10-13-23.5-10.3-37
				C364,77.1,377,64,393.2,60.6C406,57.9,419,61,429,69.1s15.7,20.1,15.7,32.9c0,10.5-3.9,20.6-11.1,28.4
				c-3.7,4.1-8.2,10.8-8.2,19.4v2.3C425.5,154.1,423.7,155.9,421.6,155.9z M386.9,148.2h30.9c0.4-8.2,4-16.3,10.2-23.1
				c5.8-6.4,9-14.6,9-23.1c0-10.5-4.7-20.3-12.8-26.9c-8.1-6.6-18.9-9.2-29.4-6.9C381.6,71,371,81.7,368.4,95
				c-2.2,11.1,0.9,22.1,8.4,30.3C383,131.9,386.5,140,386.9,148.2z"/>
			<path class="st5" d="M402.4,194.4c-12.7,0-23.1-10.4-23.1-23.1V152c0-2.1,1.7-3.9,3.9-3.9h38.5c2.1,0,3.9,1.7,3.9,3.9v19.3
				C425.5,184,415.1,194.4,402.4,194.4z M387,155.9v15.4c0,8.5,6.9,15.4,15.4,15.4s15.4-6.9,15.4-15.4v-15.4H387z"/>
			<path class="st5" d="M421.6,175.1h-38.5c-2.1,0-3.9-1.7-3.9-3.9s1.7-3.9,3.9-3.9h38.5c2.1,0,3.9,1.7,3.9,3.9
				S423.7,175.1,421.6,175.1z"/>
		</g>
		<path class="st5" d="M402.4,44.2c-2.1,0-3.9-1.7-3.9-3.9V24.9c0-2.1,1.7-3.9,3.9-3.9s3.9,1.7,3.9,3.9v15.4
			C406.2,42.4,404.5,44.2,402.4,44.2z"/>
		<path class="st5" d="M363.8,57.3c-1,0-2-0.4-2.7-1.1l-10.9-10.9c-1.5-1.5-1.5-3.9,0-5.4s3.9-1.5,5.4,0l10.9,10.9
			c1.5,1.5,1.5,3.9,0,5.4C365.8,56.9,364.8,57.3,363.8,57.3z"/>
		<path class="st5" d="M440.9,57.3c-1,0-2-0.4-2.7-1.1c-1.5-1.5-1.5-3.9,0-5.4l10.8-11c1.5-1.5,3.9-1.5,5.4,0s1.5,3.9,0,5.4
			l-10.9,10.9C442.8,56.9,441.9,57.3,440.9,57.3z"/>
	</g>
	<path class="st6" d="M383.1,429.3h-7.7c-6.4,0-11.6-5.2-11.6-11.6V217.5c0-6.4,5.2-11.6,11.6-11.6h7.7c6.4,0,11.6,5.2,11.6,11.6
		v200.3C394.7,424.1,389.5,429.3,383.1,429.3z M375.4,213.6c-2.1,0-3.9,1.7-3.9,3.9v200.3c0,2.1,1.7,3.9,3.9,3.9h7.7
		c2.1,0,3.9-1.7,3.9-3.9V217.5c0-2.1-1.7-3.9-3.9-3.9H375.4z"/>
	<path class="st6" d="M429.3,429.3h-7.7c-6.4,0-11.6-5.2-11.6-11.6V217.5c0-6.4,5.2-11.6,11.6-11.6h7.7c6.4,0,11.6,5.2,11.6,11.6
		v200.3C440.9,424.1,435.7,429.3,429.3,429.3z M421.6,213.6c-2.1,0-3.9,1.7-3.9,3.9v200.3c0,2.1,1.7,3.9,3.9,3.9h7.7
		c2.1,0,3.9-1.7,3.9-3.9V217.5c0-2.1-1.7-3.9-3.9-3.9H421.6z"/>
	<g class="st2">
		<path class="st5" d="M254.1,136.6h-61.6c-2.1,0-3.9-1.7-3.9-3.9s1.7-3.9,3.9-3.9h61.6c2.1,0,3.9,1.7,3.9,3.9
			S256.2,136.6,254.1,136.6z"/>
		<path class="st5" d="M296.4,152h-7.7c-2.1,0-3.9-1.7-3.9-3.9s1.7-3.9,3.9-3.9h7.7c2.1,0,3.9,1.7,3.9,3.9S298.6,152,296.4,152z"/>
		<path class="st5" d="M273.3,152h-50.1c-2.1,0-3.9-1.7-3.9-3.9s1.7-3.9,3.9-3.9h50.1c2.1,0,3.9,1.7,3.9,3.9S275.5,152,273.3,152z"
			/>
	</g>
	<path class="st6" d="M121.2,136.6H90.4c-10.6,0-19.3-8.6-19.3-19.3c0-9.4,6.8-17.3,15.7-18.9c1.7-8.9,9.5-15.7,18.9-15.7
		s17.3,6.8,18.9,15.7c8.9,1.7,15.7,9.5,15.7,18.9C140.5,128,131.8,136.6,121.2,136.6z M105.8,90.4c-6.4,0-11.6,5.2-11.6,11.6
		c0,2.1-1.7,3.9-3.9,3.9c-6.4,0-11.6,5.2-11.6,11.6s5.2,11.6,11.6,11.6h30.8c6.4,0,11.6-5.2,11.6-11.6s-5.2-11.6-11.6-11.6
		c-2.1,0-3.9-1.7-3.9-3.9C117.3,95.6,112.2,90.4,105.8,90.4z M125,101.9L125,101.9L125,101.9z"/>
</g>
</svg>
