<?xml version="1.0" encoding="utf-8"?>
<!-- Generator: Adobe Illustrator 22.1.0, SVG Export Plug-In . SVG Version: 6.00 Build 0)  -->
<svg version="1.1" id="Layer_1" xmlns="http://www.w3.org/2000/svg" xmlns:xlink="http://www.w3.org/1999/xlink" x="0px" y="0px"
	 viewBox="0 0 512 512" style="enable-background:new 0 0 512 512;" xml:space="preserve">
<style type="text/css">
	.st0{fill:#565656;}
	.st1{fill:#00AEEF;}
</style>
<g>
	<g>
		<g>
			<path class="st0" d="M164,346.1c-49.7,0-90.2-40.5-90.2-90.2c0-49.7,40.5-90.2,90.2-90.2s90.2,40.5,90.2,90.2
				c0,7.3-0.9,14.5-2.6,21.5c-0.5,1.9-2.4,3.1-4.4,2.6c-1.9-0.5-3.1-2.4-2.6-4.4c1.6-6.4,2.4-13.1,2.4-19.8c0-45.8-37.2-83-83-83
				s-83,37.2-83,83s37.2,83,83,83c16,0,31.6-4.6,45-13.3c1.7-1.1,3.9-0.6,5,1.1c1.1,1.7,0.6,3.9-1.1,5
				C198.3,341.1,181.4,346.1,164,346.1z"/>
			<g>
				<path class="st0" d="M247,443.5H81c-21.9,0-39.7-17.8-39.7-39.7V107.9C41.3,86,59.1,68.2,81,68.2h115.5c2,0,3.6,1.6,3.6,3.6
					c0,2-1.6,3.6-3.6,3.6H81c-17.9,0-32.5,14.6-32.5,32.5v295.9c0,17.9,14.6,32.5,32.5,32.5h166c10.3,0,19.8-4.7,26-13
					c1.2-1.6,3.5-1.9,5.1-0.7c1.6,1.2,1.9,3.5,0.7,5.1C271.2,437.7,259.6,443.5,247,443.5z"/>
				<path class="st0" d="M283.1,218.6c-2,0-3.6-1.6-3.6-3.6v-56.6c0-2,1.6-3.6,3.6-3.6c2,0,3.6,1.6,3.6,3.6V215
					C286.7,217,285.1,218.6,283.1,218.6z"/>
				<path class="st0" d="M178.4,400.2H44.9c-2,0-3.6-1.6-3.6-3.6c0-2,1.6-3.6,3.6-3.6h133.5c2,0,3.6,1.6,3.6,3.6
					C182,398.6,180.4,400.2,178.4,400.2z"/>
				<path class="st0" d="M196.5,118.7H44.9c-2,0-3.6-1.6-3.6-3.6c0-2,1.6-3.6,3.6-3.6h151.6c2,0,3.6,1.6,3.6,3.6
					C200.1,117.1,198.5,118.7,196.5,118.7z"/>
				<path class="st0" d="M185.6,97.1h-43.3c-2,0-3.6-1.6-3.6-3.6c0-2,1.6-3.6,3.6-3.6h43.3c2,0,3.6,1.6,3.6,3.6
					C189.2,95.4,187.6,97.1,185.6,97.1z"/>
				<path class="st0" d="M178.4,429.1h-28.9c-6,0-10.8-4.9-10.8-10.8s4.9-10.8,10.8-10.8h28.9c6,0,10.8,4.9,10.8,10.8
					S184.4,429.1,178.4,429.1z M149.5,414.6c-2,0-3.6,1.6-3.6,3.6c0,2,1.6,3.6,3.6,3.6h28.9c2,0,3.6-1.6,3.6-3.6
					c0-2-1.6-3.6-3.6-3.6H149.5z"/>
			</g>
			<path class="st1" d="M174.5,295.7h-39.4c-6,0-10.8-4.9-10.8-10.8v-57.7c0-6,4.9-10.8,10.8-10.8h57.7c6,0,10.8,4.9,10.8,10.8v39.5
				c0,2-1.6,3.6-3.6,3.6c-2,0-3.6-1.6-3.6-3.6v-39.5c0-2-1.6-3.6-3.6-3.6h-57.7c-2,0-3.6,1.6-3.6,3.6v57.7c0,2,1.6,3.6,3.6,3.6h39.4
				c2,0,3.6,1.6,3.6,3.6C178.1,294.1,176.5,295.7,174.5,295.7z"/>
		</g>
		<g>
			<g>
				<path class="st0" d="M382.7,486.8c-5.5,0-11.1-2.1-15.3-6.3L347,460.1c-4.1-4.1-6.3-9.5-6.3-15.3c0-5.8,2.3-11.2,6.3-15.3
					l66.3-66.3c8.2-8.2,22.4-8.2,30.6,0l20.4,20.4c8.4,8.4,8.4,22.2,0,30.6L398,480.5C393.8,484.7,388.3,486.8,382.7,486.8z
					 M428.7,364c-3.9,0-7.5,1.5-10.2,4.2l-66.3,66.3c-2.7,2.7-4.2,6.4-4.2,10.2c0,3.9,1.5,7.5,4.2,10.2l20.4,20.4
					c5.6,5.6,14.8,5.6,20.4,0l66.3-66.3c5.6-5.6,5.6-14.8,0-20.4l-20.4-20.4C436.1,365.5,432.5,364,428.7,364z"/>
				<path class="st0" d="M347.3,437.9c-0.5,0-0.9-0.1-1.3-0.3l-42.5-17c-5.5-2.2-11.1-3.9-16.9-5.2l-87.1-18.7
					c-9.9-2.1-17-11-17-21.1c0-11.9,9.7-21.6,21.6-21.6h27.5l-72.9-72.9c-4.1-4.1-6.3-9.5-6.3-15.3c0-5.8,2.3-11.2,6.3-15.3
					c8.2-8.2,22.4-8.2,30.6,0l42.2,42.2c0.3-5.3,2.5-10.3,6.3-14.1c5.1-5.1,12.6-7.3,19.6-5.9c-0.3-1.4-0.4-2.8-0.4-4.3
					c0-5.8,2.3-11.2,6.3-15.3c5.1-5.1,12.6-7.3,19.6-5.9c-0.4-1.8-0.5-3.6-0.4-5.4c0.3-6.1,3.2-11.8,8-15.7l0,0
					c8.5-6.9,21.5-6,29.7,2.2l65.2,65.2c10.8,10.8,19.1,23.4,24.8,37.6l12.2,30.4c0.5,1.3,0.2,2.9-0.8,3.9l-71.5,71.5
					C349.1,437.5,348.2,437.9,347.3,437.9z M203.9,361.3c-7.9,0-14.4,6.4-14.4,14.4c0,6.7,4.8,12.6,11.3,14l87.1,18.7
					c6.2,1.3,12.3,3.2,18.1,5.5l40.3,16.1l68.1-68.1l-11.3-28.2c-5.3-13.2-13.1-25.1-23.2-35.1l-65.2-65.2c-5.6-5.6-14.4-6.4-20-1.7
					l0,0c-3.2,2.6-5.1,6.4-5.3,10.5c-0.2,4.1,1.3,8,4.2,10.9l0,0c1.4,1.4,1.4,3.7,0,5.1c-1.4,1.4-3.7,1.4-5.1,0l0,0l0,0
					c-5.5-5.4-15-5.4-20.4,0c-2.7,2.7-4.2,6.4-4.2,10.2c0,3.9,1.5,7.5,4.2,10.2c0.7,0.7,1.1,1.6,1.1,2.6s-0.4,1.8-1.1,2.6
					c-1.4,1.4-3.7,1.4-5.1,0c-5.5-5.5-15-5.5-20.4,0c-2.7,2.7-4.2,6.4-4.2,10.2c0,3.9,1.5,7.5,4.2,10.2l0,0c1.4,1.4,1.4,3.7,0,5.1
					s-3.7,1.4-5.1,0l0,0l-53.6-53.6c-5.5-5.4-15-5.4-20.4,0c-2.7,2.7-4.2,6.4-4.2,10.2c0,3.9,1.5,7.5,4.2,10.2l79.1,79.1
					c1,1,1.3,2.6,0.8,3.9c-0.6,1.3-1.9,2.2-3.3,2.2H203.9z M292.5,228.9L292.5,228.9L292.5,228.9z"/>
				<path class="st0" d="M280.9,300.1c-0.9,0-1.8-0.4-2.6-1.1L263,283.7c-1.4-1.4-1.4-3.7,0-5.1s3.7-1.4,5.1,0l15.3,15.3
					c1.4,1.4,1.4,3.7,0,5.1C282.8,299.7,281.8,300.1,280.9,300.1z"/>
				<path class="st0" d="M306.4,274.6c-0.9,0-1.8-0.4-2.6-1.1l-15.3-15.3c-1.4-1.4-1.4-3.7,0-5.1s3.7-1.4,5.1,0l15.3,15.3
					c1.4,1.4,1.4,3.7,0,5.1C308.3,274.2,307.4,274.6,306.4,274.6z"/>
				<path class="st0" d="M255.4,325.6c-0.9,0-1.8-0.4-2.6-1.1l-15.3-15.3c-1.4-1.4-1.4-3.7,0-5.1s3.7-1.4,5.1,0l15.3,15.3
					c1.4,1.4,1.4,3.7,0,5.1C257.2,325.3,256.3,325.6,255.4,325.6z"/>
			</g>
			<path class="st0" d="M393.3,361.2c-1.4,0-2.8-0.9-3.3-2.3l-6.9-17.1c-4.2-10.5-10.4-19.9-18.4-27.9c-1.4-1.4-1.4-3.7,0-5.1
				c1.4-1.4,3.7-1.4,5.1,0c8.7,8.7,15.4,18.9,20,30.3l6.9,17.1c0.7,1.8-0.2,3.9-2,4.7C394.2,361.1,393.7,361.2,393.3,361.2z"/>
		</g>
		<g>
			<g>
				<path class="st1" d="M369.7,219.8c-2,0-3.6-1.6-3.6-3.6v-28.9c0-2,1.6-3.6,3.6-3.6c2,0,3.6,1.6,3.6,3.6v28.9
					C373.3,218.1,371.7,219.8,369.7,219.8z"/>
				<path class="st1" d="M384.1,205.3h-28.9c-2,0-3.6-1.6-3.6-3.6c0-2,1.6-3.6,3.6-3.6h28.9c2,0,3.6,1.6,3.6,3.6
					C387.7,203.7,386.1,205.3,384.1,205.3z"/>
			</g>
			<g>
				<path class="st1" d="M414.5,176.4c-2,0-3.6-1.6-3.6-3.6V144c0-2,1.6-3.6,3.6-3.6c2,0,3.6,1.6,3.6,3.6v28.9
					C418.1,174.8,416.5,176.4,414.5,176.4z"/>
				<path class="st1" d="M428.9,162h-28.9c-2,0-3.6-1.6-3.6-3.6s1.6-3.6,3.6-3.6h28.9c2,0,3.6,1.6,3.6,3.6S430.9,162,428.9,162z"/>
			</g>
		</g>
		<g>
			<path class="st1" d="M337.2,147.6H228.9c-11.9,0-21.7-9.7-21.7-21.7V46.5c0-11.9,9.7-21.7,21.7-21.7h108.3
				c11.9,0,21.7,9.7,21.7,21.7v79.4C358.9,137.9,349.1,147.6,337.2,147.6z M228.9,32.1c-8,0-14.4,6.5-14.4,14.4v79.4
				c0,8,6.5,14.4,14.4,14.4h108.3c8,0,14.4-6.5,14.4-14.4V46.5c0-8-6.5-14.4-14.4-14.4H228.9z"/>
			<g>
				<path class="st1" d="M301.1,111.5c-0.7,0-1.4-0.2-2-0.6l-30.5-20.3l-30.5,20.3c-1.7,1.1-3.9,0.7-5-1c-1.1-1.7-0.7-3.9,1-5
					l32.5-21.7c1.2-0.8,2.8-0.8,4,0l29.5,19.7L327,62.6c1.1-1.7,3.4-2.1,5-1c1.7,1.1,2.1,3.3,1,5l-28.9,43.3
					C303.4,110.9,302.3,111.5,301.1,111.5z"/>
			</g>
		</g>
	</g>
	<g>
		<path class="st1" d="M310.1,472.7H187.4c-2,0-3.6-1.6-3.6-3.6c0-2,1.6-3.6,3.6-3.6h122.7c2,0,3.6,1.6,3.6,3.6
			C313.7,471.1,312.1,472.7,310.1,472.7z"/>
		<path class="st1" d="M155,487.1h-7.2c-2,0-3.6-1.6-3.6-3.6c0-2,1.6-3.6,3.6-3.6h7.2c2,0,3.6,1.6,3.6,3.6
			C158.6,485.5,157,487.1,155,487.1z"/>
		<path class="st1" d="M281.3,487.1H169.4c-2,0-3.6-1.6-3.6-3.6c0-2,1.6-3.6,3.6-3.6h111.9c2,0,3.6,1.6,3.6,3.6
			C284.9,485.5,283.3,487.1,281.3,487.1z"/>
	</g>
</g>
</svg>
