<?xml version="1.0" encoding="utf-8"?>
<!-- Generator: Adobe Illustrator 22.1.0, SVG Export Plug-In . SVG Version: 6.00 Build 0)  -->
<svg version="1.1" id="Layer_1" xmlns="http://www.w3.org/2000/svg" xmlns:xlink="http://www.w3.org/1999/xlink" x="0px" y="0px"
	 viewBox="0 0 512 512" style="enable-background:new 0 0 512 512;" xml:space="preserve">
<style type="text/css">
	.st0{fill:#FFFFFF;}
	.st1{fill:#FFFFFF;stroke:#263238;stroke-width:7.1382;stroke-linecap:round;stroke-linejoin:round;stroke-miterlimit:10;}
</style>
<g>
	<g>
		<path class="st0" d="M168,121.9c-0.9,0-1.8-0.3-2.5-1c-29.2-29.2-76.8-29.2-106,0c-1.4,1.4-3.7,1.4-5,0c-1.4-1.4-1.4-3.7,0-5
			c32-32,84.1-32,116.1,0c1.4,1.4,1.4,3.7,0,5C169.8,121.6,168.9,121.9,168,121.9z"/>
		<path class="st0" d="M147.8,142.1c-0.9,0-1.8-0.3-2.5-1c-8.8-8.8-20.4-13.6-32.8-13.6s-24,4.8-32.8,13.6c-1.4,1.4-3.7,1.4-5,0
			c-1.4-1.4-1.4-3.7,0-5c10.1-10.1,23.6-15.7,37.9-15.7s27.7,5.6,37.9,15.7c1.4,1.4,1.4,3.7,0,5
			C149.6,141.8,148.7,142.1,147.8,142.1z"/>
		<path class="st0" d="M97.3,162.3c-0.9,0-1.8-0.3-2.5-1c-1.4-1.4-1.4-3.7,0-5c9.4-9.4,25.9-9.4,35.3,0c1.4,1.4,1.4,3.7,0,5
			c-1.4,1.4-3.7,1.4-5,0c-6.7-6.7-18.5-6.7-25.2,0C99.1,162,98.2,162.3,97.3,162.3z"/>
	</g>
	<g>
		<g>
			<path class="st0" d="M349.7,407.1h-7.1c-2,0-3.6-1.6-3.6-3.6c0-2,1.6-3.6,3.6-3.6h7.1c2,0,3.6,1.6,3.6,3.6
				C353.3,405.5,351.7,407.1,349.7,407.1z"/>
			<path class="st0" d="M247.6,407.1c-0.9,0-1.8-0.3-2.5-1c-9.4-9.4-25.9-9.4-35.3,0c-1.4,1.4-3.7,1.4-5,0s-1.4-3.7,0-5
				c6.1-6.1,14.1-9.4,22.7-9.4c8.6,0,16.6,3.3,22.7,9.4c1.4,1.4,1.4,3.7,0,5C249.4,406.7,248.5,407.1,247.6,407.1z"/>
			<path class="st0" d="M287.9,407.1c-0.9,0-1.8-0.3-2.5-1c-9.7-9.7-25.6-9.7-35.3,0c-1.4,1.4-3.7,1.4-5,0c-1.4-1.4-1.4-3.7,0-5
				c12.5-12.5,32.9-12.5,45.4,0c1.4,1.4,1.4,3.7,0,5C289.8,406.7,288.9,407.1,287.9,407.1z"/>
			<path class="st0" d="M328.3,407.1c-0.9,0-1.8-0.3-2.5-1c-9.7-9.7-25.6-9.7-35.3,0c-1.4,1.4-3.7,1.4-5,0c-1.4-1.4-1.4-3.7,0-5
				c12.5-12.5,32.9-12.5,45.4,0c1.4,1.4,1.4,3.7,0,5C330.2,406.7,329.2,407.1,328.3,407.1z"/>
		</g>
		<g>
			<path class="st0" d="M296.3,451.1h-7.1c-2,0-3.6-1.6-3.6-3.6c0-2,1.6-3.6,3.6-3.6h7.1c2,0,3.6,1.6,3.6,3.6
				C299.9,449.5,298.3,451.1,296.3,451.1z"/>
			<g>
				<path class="st0" d="M351,451.1c-0.9,0-1.8-0.3-2.5-1c-9.4-9.4-25.9-9.4-35.3,0c-1.4,1.4-3.7,1.4-5,0s-1.4-3.7,0-5
					c12.5-12.5,32.9-12.5,45.4,0c1.4,1.4,1.4,3.7,0,5C352.8,450.8,351.9,451.1,351,451.1z"/>
				<path class="st0" d="M391.3,451.1c-0.9,0-1.8-0.3-2.5-1c-9.7-9.7-25.6-9.7-35.3,0c-1.4,1.4-3.7,1.4-5,0s-1.4-3.7,0-5
					c12.5-12.5,32.9-12.5,45.4,0c1.4,1.4,1.4,3.7,0,5C393.2,450.8,392.3,451.1,391.3,451.1z"/>
				<path class="st0" d="M431.7,451.1c-0.9,0-1.8-0.3-2.5-1c-9.4-9.4-25.9-9.4-35.3,0c-1.4,1.4-3.7,1.4-5,0c-1.4-1.4-1.4-3.7,0-5
					c12.5-12.5,32.9-12.5,45.4,0c1.4,1.4,1.4,3.7,0,5C433.5,450.8,432.6,451.1,431.7,451.1z"/>
			</g>
		</g>
	</g>
	<g>
		<path class="st0" d="M112.4,484.5c-8,0-16.1-3-22.4-9.1C79.4,465,77.2,448.8,84.8,436l24.6-41.7c1.3-2.2,4.9-2.2,6.1,0l24.6,41.7
			c7.6,12.8,5.4,29-5.3,39.4C128.5,481.4,120.5,484.5,112.4,484.5z M112.4,403.1l-21.5,36.5c-5.9,10-4.2,22.6,4.1,30.6
			c9.8,9.5,25,9.5,34.8,0c0,0,0,0,0,0c8.3-8.1,10-20.6,4.1-30.6L112.4,403.1z"/>
		<g>
			<g>
				<path class="st0" d="M123.2,384.5h-21.4c-11.8,0-21.4-9.6-21.4-21.4v-7.1c0-2,1.6-3.6,3.6-3.6c2,0,3.6,1.6,3.6,3.6v7.1
					c0,7.9,6.4,14.3,14.3,14.3h21.4c7.9,0,14.3-6.4,14.3-14.3v-7.1c0-2,1.6-3.6,3.6-3.6s3.6,1.6,3.6,3.6v7.1
					C144.6,374.8,135,384.5,123.2,384.5z"/>
				<path class="st0" d="M141,302.4c-2,0-3.6-1.6-3.6-3.6V281c0-25.6,20.8-46.4,46.4-46.4h64.2c2,0,3.6,1.6,3.6,3.6
					s-1.6,3.6-3.6,3.6h-64.2c-21.6,0-39.3,17.6-39.3,39.3v17.8C144.6,300.8,143,302.4,141,302.4z"/>
				<path class="st0" d="M437.2,241.7h-3.6c-2,0-3.6-1.6-3.6-3.6s1.6-3.6,3.6-3.6h3.6c7.9,0,14.3-6.4,14.3-14.3v-21.4
					c0-7.9-6.4-14.3-14.3-14.3h-3.6c-2,0-3.6-1.6-3.6-3.6c0-2,1.6-3.6,3.6-3.6h3.6c11.8,0,21.4,9.6,21.4,21.4v21.4
					C458.6,232.1,449,241.7,437.2,241.7z"/>
				<path class="st0" d="M83.9,302.4c-2,0-3.6-1.6-3.6-3.6V281c0-57.1,46.4-103.5,103.5-103.5h64.2c2,0,3.6,1.6,3.6,3.6
					c0,2-1.6,3.6-3.6,3.6h-64.2c-53.1,0-96.4,43.2-96.4,96.4v17.8C87.5,300.8,85.9,302.4,83.9,302.4z"/>
			</g>
			<path class="st0" d="M401.5,77.5h-92.8c-11.8,0-21.4-9.6-21.4-21.4V49c0-11.8,9.6-21.4,21.4-21.4h92.8c11.8,0,21.4,9.6,21.4,21.4
				v7.1C423,67.9,413.3,77.5,401.5,77.5z M308.7,34.7c-7.9,0-14.3,6.4-14.3,14.3v7.1c0,7.9,6.4,14.3,14.3,14.3h92.8
				c7.9,0,14.3-6.4,14.3-14.3V49c0-7.9-6.4-14.3-14.3-14.3H308.7z"/>
			<path class="st0" d="M369.4,106.1c-2,0-3.6-1.6-3.6-3.6V73.9c0-2,1.6-3.6,3.6-3.6s3.6,1.6,3.6,3.6v28.6
				C373,104.5,371.4,106.1,369.4,106.1z"/>
			<path class="st0" d="M340.9,106.1c-2,0-3.6-1.6-3.6-3.6V73.9c0-2,1.6-3.6,3.6-3.6s3.6,1.6,3.6,3.6v28.6
				C344.4,104.5,342.8,106.1,340.9,106.1z"/>
			<path class="st0" d="M390.8,148.9h-71.4c-2,0-3.6-1.6-3.6-3.6v-10.7c0-11.8,9.6-21.4,21.4-21.4H373c11.8,0,21.4,9.6,21.4,21.4
				v10.7C394.4,147.3,392.8,148.9,390.8,148.9z M323,141.8h64.2v-7.1c0-7.9-6.4-14.3-14.3-14.3h-35.7c-7.9,0-14.3,6.4-14.3,14.3
				V141.8z"/>
			<path class="st0" d="M401.5,277.4h-92.8c-11.8,0-21.4-9.6-21.4-21.4v-92.8c0-11.8,9.6-21.4,21.4-21.4h92.8
				c11.8,0,21.4,9.6,21.4,21.4V256C423,267.8,413.3,277.4,401.5,277.4z M308.7,148.9c-7.9,0-14.3,6.4-14.3,14.3V256
				c0,7.9,6.4,14.3,14.3,14.3h92.8c7.9,0,14.3-6.4,14.3-14.3v-92.8c0-7.9-6.4-14.3-14.3-14.3H308.7z"/>
			<path class="st0" d="M390.8,256h-28.6c-2,0-3.6-1.6-3.6-3.6s1.6-3.6,3.6-3.6h28.6c2,0,3.6-1.6,3.6-3.6v-28.6c0-2,1.6-3.6,3.6-3.6
				s3.6,1.6,3.6,3.6v28.6C401.5,251.2,396.7,256,390.8,256z"/>
			<path class="st0" d="M290.9,256h-10.7c-11.8,0-21.4-9.6-21.4-21.4v-50c0-11.8,9.6-21.4,21.4-21.4h10.7c2,0,3.6,1.6,3.6,3.6v85.7
				C294.5,254.4,292.9,256,290.9,256z M280.2,170.3c-7.9,0-14.3,6.4-14.3,14.3v50c0,7.9,6.4,14.3,14.3,14.3h7.1v-78.5H280.2z"/>
			<path class="st0" d="M141,345.2H83.9c-9.8,0-17.8-8-17.8-17.8c0-9.8,8-17.8,17.8-17.8H141c9.8,0,17.8,8,17.8,17.8
				C158.8,337.2,150.8,345.2,141,345.2z M83.9,316.6c-5.9,0-10.7,4.8-10.7,10.7c0,5.9,4.8,10.7,10.7,10.7H141
				c5.9,0,10.7-4.8,10.7-10.7c0-5.9-4.8-10.7-10.7-10.7H83.9z"/>
			<path class="st0" d="M383.7,198.9h-57.1c-5.9,0-10.7-4.8-10.7-10.7v-14.3c0-5.9,4.8-10.7,10.7-10.7h57.1
				c5.9,0,10.7,4.8,10.7,10.7v14.3C394.4,194.1,389.6,198.9,383.7,198.9z M326.6,170.3c-2,0-3.6,1.6-3.6,3.6v14.3
				c0,2,1.6,3.6,3.6,3.6h57.1c2,0,3.6-1.6,3.6-3.6v-14.3c0-2-1.6-3.6-3.6-3.6H326.6z"/>
		</g>
	</g>
	<g>
		<g>
			<path class="st0" d="M455.1,305.9h-28.6c-2,0-3.6-1.6-3.6-3.6s1.6-3.6,3.6-3.6h28.6c2,0,3.6,1.6,3.6,3.6S457,305.9,455.1,305.9z"
				/>
			<path class="st0" d="M440.8,320.2c-2,0-3.6-1.6-3.6-3.6v-28.6c0-2,1.6-3.6,3.6-3.6s3.6,1.6,3.6,3.6v28.6
				C444.4,318.6,442.8,320.2,440.8,320.2z"/>
		</g>
		<g>
			<path class="st0" d="M405.1,352.3h-28.6c-2,0-3.6-1.6-3.6-3.6s1.6-3.6,3.6-3.6h28.6c2,0,3.6,1.6,3.6,3.6S407.1,352.3,405.1,352.3
				z"/>
			<path class="st0" d="M390.8,366.6c-2,0-3.6-1.6-3.6-3.6v-28.6c0-2,1.6-3.6,3.6-3.6s3.6,1.6,3.6,3.6V363
				C394.4,365,392.8,366.6,390.8,366.6z"/>
		</g>
	</g>
</g>
</svg>
